G04 #@! TF.GenerationSoftware,KiCad,Pcbnew,10.0.4-10.0.4~ubuntu24.04.1*
G04 #@! TF.CreationDate,2026-07-27T12:19:18+01:00*
G04 #@! TF.ProjectId,ESP32-C3-Low-Power-IoT-Plant-Node,45535033-322d-4433-932d-4c6f772d506f,1.0*
G04 #@! TF.SameCoordinates,Original*
G04 #@! TF.FileFunction,Legend,Bot*
G04 #@! TF.FilePolarity,Positive*
%FSLAX46Y46*%
G04 Gerber Fmt 4.6, Leading zero omitted, Abs format (unit mm)*
G04 Created by KiCad (PCBNEW 10.0.4-10.0.4~ubuntu24.04.1) date 2026-07-27 12:19:18*
%MOMM*%
%LPD*%
G01*
G04 APERTURE LIST*
G04 Aperture macros list*
%AMRoundRect*
0 Rectangle with rounded corners*
0 $1 Rounding radius*
0 $2 $3 $4 $5 $6 $7 $8 $9 X,Y pos of 4 corners*
0 Add a 4 corners polygon primitive as box body*
4,1,4,$2,$3,$4,$5,$6,$7,$8,$9,$2,$3,0*
0 Add four circle primitives for the rounded corners*
1,1,$1+$1,$2,$3*
1,1,$1+$1,$4,$5*
1,1,$1+$1,$6,$7*
1,1,$1+$1,$8,$9*
0 Add four rect primitives between the rounded corners*
20,1,$1+$1,$2,$3,$4,$5,0*
20,1,$1+$1,$4,$5,$6,$7,0*
20,1,$1+$1,$6,$7,$8,$9,0*
20,1,$1+$1,$8,$9,$2,$3,0*%
G04 Aperture macros list end*
%ADD10C,0.100000*%
%ADD11C,0.120000*%
%ADD12RoundRect,0.250000X-0.350000X-0.625000X0.350000X-0.625000X0.350000X0.625000X-0.350000X0.625000X0*%
%ADD13O,1.200000X1.750000*%
%ADD14C,0.600000*%
%ADD15C,2.100000*%
%ADD16C,0.650000*%
%ADD17O,2.100000X1.000000*%
%ADD18O,1.800000X1.000000*%
%ADD19RoundRect,0.250000X0.350000X0.625000X-0.350000X0.625000X-0.350000X-0.625000X0.350000X-0.625000X0*%
%ADD20C,1.500000*%
G04 APERTURE END LIST*
D10*
X172743133Y-84840476D02*
X172743133Y-84459524D01*
X172933609Y-84650000D02*
X172552657Y-84650000D01*
X176440476Y-84656866D02*
X176059524Y-84656866D01*
X190806594Y-99619920D02*
X191073261Y-99158040D01*
X191170868Y-99522314D02*
X190708988Y-99255647D01*
G36*
X170346182Y-91691091D02*
G01*
X170368040Y-91712949D01*
X170392466Y-91761801D01*
X170392466Y-91933332D01*
X170159133Y-91933332D01*
X170159133Y-91761801D01*
X170183558Y-91712950D01*
X170205418Y-91691090D01*
X170254269Y-91666665D01*
X170297330Y-91666665D01*
X170346182Y-91691091D01*
G37*
G36*
X170712848Y-91657757D02*
G01*
X170734707Y-91679617D01*
X170759133Y-91728468D01*
X170759133Y-91933332D01*
X170492466Y-91933332D01*
X170492466Y-91758113D01*
X170519501Y-91677008D01*
X170538753Y-91657756D01*
X170587603Y-91633332D01*
X170663997Y-91633332D01*
X170712848Y-91657757D01*
G37*
G36*
X170559133Y-91247294D02*
G01*
X170267245Y-91149998D01*
X170559133Y-91052702D01*
X170559133Y-91247294D01*
G37*
G36*
X170379514Y-88657758D02*
G01*
X170401374Y-88679618D01*
X170425800Y-88728469D01*
X170425800Y-88933333D01*
X170159133Y-88933333D01*
X170159133Y-88728469D01*
X170183558Y-88679617D01*
X170205418Y-88657758D01*
X170254269Y-88633333D01*
X170330664Y-88633333D01*
X170379514Y-88657758D01*
G37*
G36*
X170936911Y-92111110D02*
G01*
X169981355Y-92111110D01*
X169981355Y-91749999D01*
X170059133Y-91749999D01*
X170059133Y-91983332D01*
X170062939Y-92002466D01*
X170089999Y-92029526D01*
X170109133Y-92033332D01*
X170809133Y-92033332D01*
X170828267Y-92029526D01*
X170855327Y-92002466D01*
X170859133Y-91983332D01*
X170859133Y-91716665D01*
X170858644Y-91714208D01*
X170859007Y-91713121D01*
X170856891Y-91705395D01*
X170855327Y-91697531D01*
X170854515Y-91696719D01*
X170853854Y-91694304D01*
X170820521Y-91627638D01*
X170815609Y-91621309D01*
X170811155Y-91614643D01*
X170777821Y-91581310D01*
X170771161Y-91576859D01*
X170764827Y-91571944D01*
X170698161Y-91538611D01*
X170695745Y-91537949D01*
X170694934Y-91537138D01*
X170687072Y-91535574D01*
X170679345Y-91533458D01*
X170678256Y-91533820D01*
X170675800Y-91533332D01*
X170575800Y-91533332D01*
X170573343Y-91533820D01*
X170572256Y-91533458D01*
X170564526Y-91535574D01*
X170556666Y-91537138D01*
X170555855Y-91537948D01*
X170553440Y-91538610D01*
X170486773Y-91571944D01*
X170480451Y-91576850D01*
X170473777Y-91581310D01*
X170440444Y-91614644D01*
X170439052Y-91616726D01*
X170438027Y-91617239D01*
X170434059Y-91624199D01*
X170429606Y-91630865D01*
X170429606Y-91632012D01*
X170429213Y-91632702D01*
X170411155Y-91614644D01*
X170404495Y-91610193D01*
X170398161Y-91605278D01*
X170331494Y-91571944D01*
X170329078Y-91571282D01*
X170328267Y-91570471D01*
X170320405Y-91568907D01*
X170312678Y-91566791D01*
X170311589Y-91567153D01*
X170309133Y-91566665D01*
X170242466Y-91566665D01*
X170240009Y-91567153D01*
X170238921Y-91566791D01*
X170231193Y-91568907D01*
X170223332Y-91570471D01*
X170222520Y-91571282D01*
X170220105Y-91571944D01*
X170153439Y-91605278D01*
X170147107Y-91610191D01*
X170140445Y-91614643D01*
X170107111Y-91647976D01*
X170102656Y-91654642D01*
X170097745Y-91660971D01*
X170064412Y-91727639D01*
X170063750Y-91730053D01*
X170062939Y-91730865D01*
X170061374Y-91738730D01*
X170059259Y-91746455D01*
X170059621Y-91747542D01*
X170059133Y-91749999D01*
X169981355Y-91749999D01*
X169981355Y-91146455D01*
X170059259Y-91146455D01*
X170060440Y-91149999D01*
X170059259Y-91153543D01*
X170066346Y-91167719D01*
X170071360Y-91182759D01*
X170074702Y-91184429D01*
X170076373Y-91187772D01*
X170093322Y-91197433D01*
X170793322Y-91430766D01*
X170812678Y-91433206D01*
X170846906Y-91416092D01*
X170859007Y-91379788D01*
X170841893Y-91345559D01*
X170824945Y-91335898D01*
X170659133Y-91280627D01*
X170659133Y-91019369D01*
X170824944Y-90964099D01*
X170841893Y-90954438D01*
X170859007Y-90920209D01*
X170846906Y-90883905D01*
X170812677Y-90866791D01*
X170793322Y-90869231D01*
X170093322Y-91102565D01*
X170076373Y-91112226D01*
X170074702Y-91115568D01*
X170071360Y-91117239D01*
X170066346Y-91132278D01*
X170059259Y-91146455D01*
X169981355Y-91146455D01*
X169981355Y-90383332D01*
X170059133Y-90383332D01*
X170059133Y-90783332D01*
X170062939Y-90802466D01*
X170089999Y-90829526D01*
X170128267Y-90829526D01*
X170155327Y-90802466D01*
X170159133Y-90783332D01*
X170159133Y-90633332D01*
X170809133Y-90633332D01*
X170828267Y-90629526D01*
X170855327Y-90602466D01*
X170855327Y-90564198D01*
X170828267Y-90537138D01*
X170809133Y-90533332D01*
X170159133Y-90533332D01*
X170159133Y-90383332D01*
X170155327Y-90364198D01*
X170128267Y-90337138D01*
X170089999Y-90337138D01*
X170062939Y-90364198D01*
X170059133Y-90383332D01*
X169981355Y-90383332D01*
X169981355Y-89849999D01*
X170059133Y-89849999D01*
X170059133Y-90249999D01*
X170062939Y-90269133D01*
X170089999Y-90296193D01*
X170128267Y-90296193D01*
X170155327Y-90269133D01*
X170159133Y-90249999D01*
X170159133Y-90099999D01*
X170809133Y-90099999D01*
X170828267Y-90096193D01*
X170855327Y-90069133D01*
X170855327Y-90030865D01*
X170828267Y-90003805D01*
X170809133Y-89999999D01*
X170159133Y-89999999D01*
X170159133Y-89849999D01*
X170155327Y-89830865D01*
X170128267Y-89803805D01*
X170089999Y-89803805D01*
X170062939Y-89830865D01*
X170059133Y-89849999D01*
X169981355Y-89849999D01*
X169981355Y-89283333D01*
X170059133Y-89283333D01*
X170059133Y-89616666D01*
X170062939Y-89635800D01*
X170089999Y-89662860D01*
X170109133Y-89666666D01*
X170809133Y-89666666D01*
X170828267Y-89662860D01*
X170855327Y-89635800D01*
X170859133Y-89616666D01*
X170859133Y-89283333D01*
X170855327Y-89264199D01*
X170828267Y-89237139D01*
X170789999Y-89237139D01*
X170762939Y-89264199D01*
X170759133Y-89283333D01*
X170759133Y-89566666D01*
X170492466Y-89566666D01*
X170492466Y-89383333D01*
X170488660Y-89364199D01*
X170461600Y-89337139D01*
X170423332Y-89337139D01*
X170396272Y-89364199D01*
X170392466Y-89383333D01*
X170392466Y-89566666D01*
X170159133Y-89566666D01*
X170159133Y-89283333D01*
X170155327Y-89264199D01*
X170128267Y-89237139D01*
X170089999Y-89237139D01*
X170062939Y-89264199D01*
X170059133Y-89283333D01*
X169981355Y-89283333D01*
X169981355Y-88716666D01*
X170059133Y-88716666D01*
X170059133Y-88983333D01*
X170062939Y-89002467D01*
X170089999Y-89029527D01*
X170109133Y-89033333D01*
X170809133Y-89033333D01*
X170828267Y-89029527D01*
X170855327Y-89002467D01*
X170855327Y-88964199D01*
X170828267Y-88937139D01*
X170809133Y-88933333D01*
X170525800Y-88933333D01*
X170525800Y-88842699D01*
X170837806Y-88624294D01*
X170851299Y-88610204D01*
X170857949Y-88572518D01*
X170836004Y-88541167D01*
X170798318Y-88534517D01*
X170780460Y-88542371D01*
X170525800Y-88720632D01*
X170525800Y-88716666D01*
X170525311Y-88714209D01*
X170525674Y-88713121D01*
X170523557Y-88705393D01*
X170521994Y-88697532D01*
X170521182Y-88696720D01*
X170520521Y-88694305D01*
X170487187Y-88627639D01*
X170482273Y-88621307D01*
X170477822Y-88614645D01*
X170444489Y-88581311D01*
X170437822Y-88576856D01*
X170431494Y-88571945D01*
X170364826Y-88538612D01*
X170362411Y-88537950D01*
X170361600Y-88537139D01*
X170353734Y-88535574D01*
X170346010Y-88533459D01*
X170344922Y-88533821D01*
X170342466Y-88533333D01*
X170242466Y-88533333D01*
X170240009Y-88533821D01*
X170238922Y-88533459D01*
X170231196Y-88535574D01*
X170223332Y-88537139D01*
X170222520Y-88537950D01*
X170220105Y-88538612D01*
X170153439Y-88571945D01*
X170147110Y-88576856D01*
X170140444Y-88581311D01*
X170107111Y-88614645D01*
X170102660Y-88621304D01*
X170097745Y-88627639D01*
X170064412Y-88694305D01*
X170063750Y-88696720D01*
X170062939Y-88697532D01*
X170061375Y-88705393D01*
X170059259Y-88713121D01*
X170059621Y-88714209D01*
X170059133Y-88716666D01*
X169981355Y-88716666D01*
X169981355Y-87908008D01*
X170059888Y-87908008D01*
X170068190Y-87945365D01*
X170082289Y-87958849D01*
X170382668Y-88150000D01*
X170082289Y-88341150D01*
X170068190Y-88354633D01*
X170059888Y-88391991D01*
X170080433Y-88424276D01*
X170117791Y-88432578D01*
X170135977Y-88425516D01*
X170490360Y-88200000D01*
X170809133Y-88200000D01*
X170828267Y-88196194D01*
X170855327Y-88169134D01*
X170855327Y-88130866D01*
X170828267Y-88103806D01*
X170809133Y-88100000D01*
X170490360Y-88100000D01*
X170135977Y-87874483D01*
X170117791Y-87867421D01*
X170080434Y-87875723D01*
X170059888Y-87908008D01*
X169981355Y-87908008D01*
X169981355Y-87789643D01*
X170936911Y-87789643D01*
X170936911Y-92111110D01*
G37*
X193434544Y-94292000D02*
X193475613Y-94354201D01*
X193475613Y-94354201D02*
X193591083Y-94420868D01*
X193591083Y-94420868D02*
X193665485Y-94425334D01*
X193665485Y-94425334D02*
X193727685Y-94384265D01*
X193727685Y-94384265D02*
X193744352Y-94355398D01*
X193744352Y-94355398D02*
X193748818Y-94280996D01*
X193748818Y-94280996D02*
X193707750Y-94218795D01*
X193707750Y-94218795D02*
X193621147Y-94168795D01*
X193621147Y-94168795D02*
X193580079Y-94106594D01*
X193580079Y-94106594D02*
X193584544Y-94032193D01*
X193584544Y-94032193D02*
X193601211Y-94003325D01*
X193601211Y-94003325D02*
X193663412Y-93962257D01*
X193663412Y-93962257D02*
X193737814Y-93966723D01*
X193737814Y-93966723D02*
X193824416Y-94016723D01*
X193824416Y-94016723D02*
X193865485Y-94078923D01*
X193937493Y-94620868D02*
X194170827Y-94216723D01*
X194287493Y-94014650D02*
X194241959Y-94026851D01*
X194241959Y-94026851D02*
X194254160Y-94072385D01*
X194254160Y-94072385D02*
X194299694Y-94060184D01*
X194299694Y-94060184D02*
X194287493Y-94014650D01*
X194287493Y-94014650D02*
X194254160Y-94072385D01*
X194719309Y-94533389D02*
X194435976Y-95024137D01*
X194435976Y-95024137D02*
X194373775Y-95065205D01*
X194373775Y-95065205D02*
X194328241Y-95077406D01*
X194328241Y-95077406D02*
X194253839Y-95072940D01*
X194253839Y-95072940D02*
X194167237Y-95022940D01*
X194167237Y-95022940D02*
X194126168Y-94960740D01*
X194502642Y-94908667D02*
X194428241Y-94904201D01*
X194428241Y-94904201D02*
X194312771Y-94837534D01*
X194312771Y-94837534D02*
X194271702Y-94775334D01*
X194271702Y-94775334D02*
X194259502Y-94729799D01*
X194259502Y-94729799D02*
X194263967Y-94655398D01*
X194263967Y-94655398D02*
X194363967Y-94482193D01*
X194363967Y-94482193D02*
X194426168Y-94441124D01*
X194426168Y-94441124D02*
X194471702Y-94428923D01*
X194471702Y-94428923D02*
X194546104Y-94433389D01*
X194546104Y-94433389D02*
X194661574Y-94500056D01*
X194661574Y-94500056D02*
X194702642Y-94562257D01*
G36*
X189685835Y-95047574D02*
G01*
X189825656Y-95087571D01*
X189913967Y-95138557D01*
X190018514Y-95239643D01*
X190057956Y-95299383D01*
X190080688Y-95384220D01*
X190060529Y-95482730D01*
X189994348Y-95597359D01*
X189388130Y-95247358D01*
X189454312Y-95132729D01*
X189529543Y-95066018D01*
X189614383Y-95043285D01*
X189685835Y-95047574D01*
G37*
G36*
X190065589Y-94302335D02*
G01*
X190144119Y-94347676D01*
X190180081Y-94402143D01*
X190189824Y-94438505D01*
X190185914Y-94503654D01*
X190064434Y-94714063D01*
X189788130Y-94554538D01*
X189909610Y-94344131D01*
X189964078Y-94308168D01*
X190000440Y-94298425D01*
X190065589Y-94302335D01*
G37*
G36*
X190830948Y-94526106D02*
G01*
X189739678Y-96416241D01*
X188806295Y-95877352D01*
X188839414Y-95819989D01*
X188946448Y-95819989D01*
X188956352Y-95856953D01*
X188971020Y-95869816D01*
X189663841Y-96269816D01*
X189682315Y-96276087D01*
X189719280Y-96266183D01*
X189719281Y-96266179D01*
X189732142Y-96251515D01*
X189922618Y-95921601D01*
X189928889Y-95903127D01*
X189918985Y-95866163D01*
X189885844Y-95847029D01*
X189848879Y-95856933D01*
X189836016Y-95871601D01*
X189670539Y-96158214D01*
X189021020Y-95783214D01*
X189002546Y-95776943D01*
X188965582Y-95786847D01*
X188946448Y-95819989D01*
X188839414Y-95819989D01*
X189163224Y-95259134D01*
X189270258Y-95259134D01*
X189280162Y-95296098D01*
X189294830Y-95308961D01*
X189987650Y-95708961D01*
X190006124Y-95715232D01*
X190043088Y-95705328D01*
X190055951Y-95690660D01*
X190151189Y-95525703D01*
X190153763Y-95518118D01*
X190156873Y-95510727D01*
X190181025Y-95392705D01*
X190181038Y-95390199D01*
X190181612Y-95389207D01*
X190181088Y-95381213D01*
X190181132Y-95373197D01*
X190180499Y-95372239D01*
X190180336Y-95369740D01*
X190152448Y-95265662D01*
X190148903Y-95258474D01*
X190145878Y-95251054D01*
X190098943Y-95179967D01*
X190095092Y-95176073D01*
X190091973Y-95171571D01*
X189979055Y-95062390D01*
X189973903Y-95059071D01*
X189969299Y-95055034D01*
X189870324Y-94997891D01*
X189864524Y-94995922D01*
X189859075Y-94993120D01*
X189708062Y-94949921D01*
X189702603Y-94949470D01*
X189697307Y-94948083D01*
X189612276Y-94942979D01*
X189604336Y-94944068D01*
X189596339Y-94944593D01*
X189492261Y-94972481D01*
X189490014Y-94973588D01*
X189488870Y-94973520D01*
X189481957Y-94977561D01*
X189474764Y-94981109D01*
X189474189Y-94982103D01*
X189472029Y-94983367D01*
X189381895Y-95063293D01*
X189377053Y-95069674D01*
X189371767Y-95075703D01*
X189276529Y-95240660D01*
X189270258Y-95259134D01*
X189163224Y-95259134D01*
X189563224Y-94566313D01*
X189670258Y-94566313D01*
X189670258Y-94566314D01*
X189680162Y-94603278D01*
X189694830Y-94616141D01*
X190387650Y-95016141D01*
X190406124Y-95022412D01*
X190443088Y-95012508D01*
X190462222Y-94979367D01*
X190452318Y-94942402D01*
X190437650Y-94929539D01*
X190151036Y-94764062D01*
X190208258Y-94664951D01*
X190645573Y-94626753D01*
X190664303Y-94621297D01*
X190688906Y-94591985D01*
X190685576Y-94553862D01*
X190656264Y-94529259D01*
X190636871Y-94527133D01*
X190269290Y-94559240D01*
X190278418Y-94543432D01*
X190279222Y-94541060D01*
X190280082Y-94540299D01*
X190282114Y-94532543D01*
X190284689Y-94524959D01*
X190284392Y-94523850D01*
X190285027Y-94521428D01*
X190290131Y-94436398D01*
X190289041Y-94428458D01*
X190288517Y-94420461D01*
X190274573Y-94368422D01*
X190271027Y-94361231D01*
X190268002Y-94353813D01*
X190221066Y-94282726D01*
X190219304Y-94280945D01*
X190219008Y-94279838D01*
X190212987Y-94274558D01*
X190207348Y-94268856D01*
X190206223Y-94268625D01*
X190204341Y-94266975D01*
X190105367Y-94209832D01*
X190102995Y-94209027D01*
X190102234Y-94208168D01*
X190094478Y-94206135D01*
X190086894Y-94203561D01*
X190085785Y-94203857D01*
X190083363Y-94203223D01*
X189998333Y-94198119D01*
X189990393Y-94199208D01*
X189982396Y-94199733D01*
X189930357Y-94213677D01*
X189923166Y-94217222D01*
X189915748Y-94220248D01*
X189844661Y-94267184D01*
X189842880Y-94268945D01*
X189841773Y-94269242D01*
X189836493Y-94275262D01*
X189830791Y-94280902D01*
X189830560Y-94282026D01*
X189828910Y-94283909D01*
X189676529Y-94547840D01*
X189670258Y-94566313D01*
X189563224Y-94566313D01*
X189897565Y-93987217D01*
X190830948Y-94526106D01*
G37*
G04 #@! TO.C,LDR1*
D11*
X189893171Y-97167339D02*
X191418171Y-94525962D01*
X193617081Y-99317341D02*
X195142081Y-96675962D01*
X191467925Y-94503288D02*
G75*
G02*
X195142081Y-96675962I1062201J-2396712D01*
G01*
X193641408Y-99306253D02*
G75*
G02*
X189893171Y-97167339I-1111282J2406253D01*
G01*
G04 #@! TO.C,BT1*
X171439999Y-85390000D02*
X177559999Y-85389999D01*
X171439999Y-91610000D02*
X172359999Y-91610000D01*
X171439999Y-93210000D02*
X171439999Y-85390000D01*
X172359999Y-91610000D02*
X172359999Y-93210000D01*
X172359999Y-93210000D02*
X171439999Y-93210000D01*
X172639999Y-91610000D02*
X172359999Y-91610000D01*
X172639999Y-91610000D02*
X172639999Y-92825000D01*
X172699999Y-87650000D02*
X172699999Y-85389999D01*
X173199999Y-87650000D02*
X173199999Y-85390000D01*
X173999999Y-85389999D02*
X173999999Y-89750000D01*
X173999999Y-89750000D02*
X174999999Y-89750000D01*
X174999999Y-89750000D02*
X174999999Y-85390000D01*
X176639999Y-91610000D02*
X176359998Y-91610000D01*
X176639999Y-93210000D02*
X176639999Y-91610000D01*
X177559999Y-85389999D02*
X177559999Y-93209999D01*
X177559999Y-91610001D02*
X176639999Y-91610000D01*
X177559999Y-93209999D02*
X176639999Y-93210000D01*
X173199999Y-89250000D02*
X172199999Y-89250000D01*
X172199999Y-87650000D01*
X173199999Y-87650000D01*
X173199999Y-89250000D01*
X176799998Y-89250000D02*
X175800000Y-89250000D01*
X175799999Y-87650000D01*
X176799999Y-87650000D01*
X176799998Y-89250000D01*
G04 #@! TD*
%LPC*%
D12*
G04 #@! TO.C,J3*
X148100000Y-92250000D03*
D13*
X150100000Y-92250000D03*
X152100000Y-92250000D03*
G04 #@! TD*
D14*
G04 #@! TO.C,U5*
X159250000Y-89925000D03*
X159250000Y-91425000D03*
X159750000Y-90675000D03*
X160250000Y-89925000D03*
X160250000Y-91425000D03*
G04 #@! TD*
D15*
G04 #@! TO.C,H1*
X170700000Y-82100000D03*
G04 #@! TD*
D16*
G04 #@! TO.C,J1*
X181595000Y-86390000D03*
X181595000Y-80610000D03*
D17*
X181095000Y-87820000D03*
D18*
X185275000Y-87820000D03*
D17*
X181095000Y-79180000D03*
D18*
X185275000Y-79180000D03*
G04 #@! TD*
D19*
G04 #@! TO.C,J2*
X175500000Y-75000000D03*
D13*
X173500000Y-75000000D03*
G04 #@! TD*
D20*
G04 #@! TO.C,LDR1*
X191680126Y-98372243D03*
X193380126Y-95427757D03*
G04 #@! TD*
D12*
G04 #@! TO.C,BT1*
X173499999Y-91750000D03*
D13*
X175500000Y-91750000D03*
G04 #@! TD*
%LPD*%
M02*
