M48
; DRILL file KiCad 10.0.4-10.0.4~ubuntu24.04.1 date 2026-07-27T12:19:18
; FORMAT={-:-/ absolute / metric / decimal}
; #@! TF.CreationDate,2026-07-27T12:19:18+01:00
; #@! TF.GenerationSoftware,Kicad,Pcbnew,10.0.4-10.0.4~ubuntu24.04.1
; #@! TF.FileFunction,Plated,1,4,PTH
FMAT,2
METRIC
; #@! TA.AperFunction,Plated,PTH,ViaDrill
T1C0.150
; #@! TA.AperFunction,Plated,PTH,ComponentDrill
T2C0.300
; #@! TA.AperFunction,Plated,PTH,ComponentDrill
T3C0.600
; #@! TA.AperFunction,Plated,PTH,ComponentDrill
T4C0.750
; #@! TA.AperFunction,Plated,PTH,ComponentDrill
T5C0.800
%
G90
G05
T1
X142.7Y-76.1
X143.15Y-79.1
X143.15Y-85.8
X143.2Y-80.2
X143.2Y-84.5
X143.2Y-87.7
X143.2Y-90.6
X143.4Y-75.4
X143.4Y-88.9
X143.45Y-76.75
X143.65Y-82.0
X143.7Y-74.6
X143.75Y-80.8
X143.8Y-83.3
X143.9Y-86.7
X143.9Y-91.1
X143.9Y-93.4
X143.95Y-71.85
X143.95Y-79.45
X143.95Y-84.25
X144.0Y-77.3
X144.0Y-80.3
X144.0Y-81.3
X144.0Y-89.6
X144.0Y-92.2
X144.0Y-94.9
X144.05Y-76.0
X144.1Y-85.4
X144.15Y-88.2
X144.2Y-73.0
X144.25Y-82.65
X144.35Y-74.0
X144.6Y-83.4
X144.65Y-74.95
X144.85Y-72.4
X144.9Y-94.4
X145.0Y-73.55
X145.0Y-93.4
X145.1Y-76.6
X145.1Y-82.65
X145.3Y-95.2
X145.4Y-71.7
X145.5Y-75.6
X146.1Y-76.6
X146.3Y-94.7
X146.4Y-86.4
X146.4Y-90.4
X146.5Y-87.8
X146.5Y-91.7
X146.7Y-79.7
X146.8Y-80.2
X147.0Y-71.8
X147.0Y-87.1
X147.275Y-88.225
X147.4Y-75.6
X147.8Y-90.5
X147.85Y-72.45
X147.85Y-73.6
X147.85Y-74.65
X147.9Y-86.4
X147.9Y-87.8
X148.4Y-75.6
X149.4Y-90.7
X149.5Y-83.525
X149.6Y-75.6
X149.9Y-89.7
X150.6Y-86.1
X150.6Y-88.65
X150.7Y-80.0
X150.8Y-84.6
X151.85Y-84.1
X152.35Y-88.2
X152.8Y-83.8
X153.0Y-72.75
X153.4Y-71.7
X154.2Y-74.3
X154.2Y-80.2
X154.45Y-77.1
X154.6Y-73.1
X154.75Y-91.5
X154.775Y-82.625
X154.8Y-83.575
X154.9Y-79.9
X155.0Y-78.15
X155.1Y-81.5
X155.15Y-88.95
X155.2Y-71.9
X155.2Y-90.1
X155.295Y-82.2
X155.75Y-93.45
X155.8Y-73.9
X156.0Y-81.1
X156.1Y-72.8
X156.2Y-79.9
X156.2Y-87.6
X156.4Y-86.4
X156.7Y-79.4
X157.1Y-74.2
X157.365Y-81.8
X157.7Y-71.9
X157.7Y-87.0
X157.8Y-73.1
X158.0Y-80.7
X158.0Y-88.0
X158.2Y-79.6
X158.7Y-81.8
X158.7Y-86.4
X158.8Y-74.4
X158.9Y-82.8
X159.1Y-80.4
X159.1Y-87.1
X159.2Y-71.8
X159.35Y-93.3
X159.6Y-73.1
X159.6Y-87.7
X159.7Y-79.3
X159.7Y-81.7
X160.1Y-80.9
X160.1Y-93.3
X160.3Y-86.4
X160.5Y-74.2
X160.7Y-71.8
X160.7Y-87.0
X161.0Y-88.0
X161.3Y-73.0
X161.4Y-81.8
X161.5Y-85.6
X161.9Y-75.0
X162.1Y-73.5
X162.2Y-77.3
X162.5Y-86.0
X162.5Y-88.0
X162.5Y-93.3
X162.8Y-79.2
X162.9Y-71.9
X163.0Y-83.65
X163.0Y-84.6
X163.25Y-76.3
X163.5Y-73.6
X163.5Y-87.95
X163.85Y-74.85
X164.1Y-71.7
X164.1Y-82.7
X164.2Y-80.2
X164.3Y-78.0
X164.8Y-76.3
X165.3Y-73.0
X165.4Y-79.1
X165.6Y-76.05
X166.1Y-77.7
X166.1Y-80.4
X167.6Y-78.7
X167.9Y-80.9
X168.2Y-77.4
X169.05Y-72.6
X169.2Y-73.5
X169.7Y-76.2
X169.9Y-72.0
X170.0Y-79.2
X170.2Y-73.1
X170.6Y-74.1
X170.65Y-86.7
X170.7Y-77.3
X171.4Y-72.8
X172.0Y-73.9
X172.1Y-72.1
X173.7Y-84.7
X173.9Y-73.3
X174.4Y-72.0
X174.65Y-84.65
X175.5Y-73.3
X175.6Y-72.0
X175.9Y-89.3
X176.5Y-76.9
X176.7Y-81.7
X176.7Y-87.65
X176.8Y-73.8
X176.9Y-75.4
X177.7Y-74.7
X177.8Y-72.4
X177.8Y-73.5
X177.8Y-89.75
X177.8Y-91.15
X177.8Y-92.6
X178.1Y-77.2
X178.65Y-86.75
X178.8Y-76.5
X178.8Y-78.1
X178.8Y-87.95
X178.95Y-80.3
X179.8Y-76.8
X180.0Y-74.8
X180.3Y-73.0
X180.9Y-77.8
X181.0Y-76.3
X181.2Y-73.6
X181.6Y-75.2
X182.1Y-72.4
X182.3Y-76.4
X182.5Y-86.8
X182.9Y-80.5
X183.3Y-85.8
X183.5Y-74.4
X183.5Y-75.3
X183.6Y-77.3
X183.6Y-80.1
X183.7Y-83.1
X183.9Y-81.6
X183.9Y-84.5
X184.3Y-89.1
X184.5Y-86.1
X184.7Y-76.1
X184.7Y-83.8
X184.8Y-81.9
X185.5Y-77.3
X185.5Y-81.1
X185.8Y-89.1
X186.0Y-83.0
X186.1Y-85.9
X189.708Y-96.967
X191.4Y-94.025
X191.832Y-94.788
T2
X159.25Y-89.925
X159.25Y-91.425
X159.75Y-90.675
X160.25Y-89.925
X160.25Y-91.425
T4
X148.1Y-92.25
X150.1Y-92.25
X152.1Y-92.25
X173.5Y-91.75
X173.5Y-75.0
X175.5Y-75.0
X175.5Y-91.75
T5
X191.68Y-98.372
X193.38Y-95.428
T3
G00X180.545Y-79.18
M15
G01X181.645Y-79.18
M16
G05
G00X180.545Y-87.82
M15
G01X181.645Y-87.82
M16
G05
G00X184.875Y-79.18
M15
G01X185.675Y-79.18
M16
G05
G00X184.875Y-87.82
M15
G01X185.675Y-87.82
M16
G05
M30
