G04 #@! TF.GenerationSoftware,KiCad,Pcbnew,10.0.4-10.0.4~ubuntu24.04.1*
G04 #@! TF.CreationDate,2026-07-27T12:19:18+01:00*
G04 #@! TF.ProjectId,ESP32-C3-Low-Power-IoT-Plant-Node,45535033-322d-4433-932d-4c6f772d506f,1.0*
G04 #@! TF.SameCoordinates,Original*
G04 #@! TF.FileFunction,Profile,NP*
%FSLAX46Y46*%
G04 Gerber Fmt 4.6, Leading zero omitted, Abs format (unit mm)*
G04 Created by KiCad (PCBNEW 10.0.4-10.0.4~ubuntu24.04.1) date 2026-07-27 12:19:18*
%MOMM*%
%LPD*%
G01*
G04 APERTURE LIST*
G04 #@! TA.AperFunction,Profile*
%ADD10C,0.050000*%
G04 #@! TD*
G04 APERTURE END LIST*
D10*
X136707107Y-76000000D02*
G75*
G02*
X137707107Y-75000007I999993J0D01*
G01*
X136707107Y-90000000D02*
X136707107Y-76000000D01*
X137707107Y-75000000D02*
X142000000Y-75000000D01*
X137707107Y-91000000D02*
G75*
G02*
X136707100Y-90000000I-7J1000000D01*
G01*
X137707107Y-91000000D02*
X142000000Y-91000000D01*
X142000000Y-91000000D02*
G75*
G02*
X143000000Y-92000000I0J-1000000D01*
G01*
X143000000Y-72000000D02*
G75*
G02*
X144000000Y-71000000I1000000J0D01*
G01*
X143000000Y-74000000D02*
G75*
G02*
X142000000Y-75000000I-1000000J0D01*
G01*
X143000000Y-74000000D02*
X143000000Y-72000000D01*
X143000000Y-95000000D02*
X143000000Y-92000000D01*
X144000000Y-71000000D02*
X183085000Y-71000000D01*
X144000000Y-96000000D02*
G75*
G02*
X143000000Y-95000000I0J1000000D01*
G01*
X183111828Y-96015490D02*
X144000000Y-96000000D01*
X183111828Y-96015490D02*
X183364663Y-95642220D01*
X186823861Y-89556486D02*
X195683974Y-94668909D01*
X187000000Y-77750000D02*
X183085000Y-71000000D01*
X187000000Y-77750000D02*
X187000000Y-89250000D01*
X187000000Y-89250000D02*
X186823861Y-89556486D01*
X192183974Y-100731087D02*
X183364663Y-95642220D01*
X193550000Y-100365063D02*
G75*
G02*
X192183984Y-100731069I-866000J499963D01*
G01*
X195683974Y-94668909D02*
G75*
G02*
X196049966Y-96034917I-499974J-865991D01*
G01*
X196050000Y-96034936D02*
X193550000Y-100365063D01*
M02*
