%TF.GenerationSoftware,KiCad,Pcbnew,10.0.4-10.0.4~ubuntu24.04.1*%
%TF.CreationDate,2026-07-27T12:19:18+01:00*%
%TF.ProjectId,ESP32-C3-Low-Power-IoT-Plant-Node,45535033-322d-4433-932d-4c6f772d506f,1.0*%
%TF.SameCoordinates,Original*%
%TF.FileFunction,Drillmap*%
%TF.FilePolarity,Positive*%
%FSLAX45Y45*%
G04 Gerber Fmt 4.5, Leading zero omitted, Abs format (unit mm)*
G04 Created by KiCad (PCBNEW 10.0.4-10.0.4~ubuntu24.04.1) date 2026-07-27 12:19:18*
%MOMM*%
%LPD*%
G01*
G04 APERTURE LIST*
%ADD10C,0.050000*%
%ADD11C,0.200000*%
%ADD12C,0.100000*%
G04 APERTURE END LIST*
D10*
X13670711Y-7600000D02*
G75*
G02*
X13770711Y-7500001I99999J0D01*
G01*
X13670711Y-9000000D02*
X13670711Y-7600000D01*
X13770711Y-7500000D02*
X14200000Y-7500000D01*
X13770711Y-9100000D02*
G75*
G02*
X13670710Y-9000000I-1J100000D01*
G01*
X13770711Y-9100000D02*
X14200000Y-9100000D01*
X14200000Y-9100000D02*
G75*
G02*
X14300000Y-9200000I0J-100000D01*
G01*
X14300000Y-7200000D02*
G75*
G02*
X14400000Y-7100000I100000J0D01*
G01*
X14300000Y-7400000D02*
G75*
G02*
X14200000Y-7500000I-100000J0D01*
G01*
X14300000Y-7400000D02*
X14300000Y-7200000D01*
X14300000Y-9500000D02*
X14300000Y-9200000D01*
X14400000Y-7100000D02*
X18308500Y-7100000D01*
X14400000Y-9600000D02*
G75*
G02*
X14300000Y-9500000I0J100000D01*
G01*
X18311183Y-9601549D02*
X14400000Y-9600000D01*
X18311183Y-9601549D02*
X18336466Y-9564222D01*
X18682386Y-8955649D02*
X19568397Y-9466891D01*
X18700000Y-7775000D02*
X18308500Y-7100000D01*
X18700000Y-7775000D02*
X18700000Y-8925000D01*
X18700000Y-8925000D02*
X18682386Y-8955649D01*
X19218397Y-10073109D02*
X18336466Y-9564222D01*
X19355000Y-10036506D02*
G75*
G02*
X19218398Y-10073107I-86600J49996D01*
G01*
X19568397Y-9466891D02*
G75*
G02*
X19604997Y-9603492I-49997J-86599D01*
G01*
X19605000Y-9603494D02*
X19355000Y-10036506D01*
D11*
D12*
X14262500Y-7602500D02*
X14277500Y-7617500D01*
X14277500Y-7602500D02*
X14262500Y-7617500D01*
X14307500Y-7902500D02*
X14322500Y-7917500D01*
X14322500Y-7902500D02*
X14307500Y-7917500D01*
X14307500Y-8572500D02*
X14322500Y-8587500D01*
X14322500Y-8572500D02*
X14307500Y-8587500D01*
X14312500Y-8012500D02*
X14327500Y-8027500D01*
X14327500Y-8012500D02*
X14312500Y-8027500D01*
X14312500Y-8442500D02*
X14327500Y-8457500D01*
X14327500Y-8442500D02*
X14312500Y-8457500D01*
X14312500Y-8762500D02*
X14327500Y-8777500D01*
X14327500Y-8762500D02*
X14312500Y-8777500D01*
X14312500Y-9052500D02*
X14327500Y-9067500D01*
X14327500Y-9052500D02*
X14312500Y-9067500D01*
X14332500Y-7532500D02*
X14347500Y-7547500D01*
X14347500Y-7532500D02*
X14332500Y-7547500D01*
X14332500Y-8882500D02*
X14347500Y-8897500D01*
X14347500Y-8882500D02*
X14332500Y-8897500D01*
X14337500Y-7667500D02*
X14352500Y-7682500D01*
X14352500Y-7667500D02*
X14337500Y-7682500D01*
X14357500Y-8192500D02*
X14372500Y-8207500D01*
X14372500Y-8192500D02*
X14357500Y-8207500D01*
X14362500Y-7452500D02*
X14377500Y-7467500D01*
X14377500Y-7452500D02*
X14362500Y-7467500D01*
X14367500Y-8072500D02*
X14382500Y-8087500D01*
X14382500Y-8072500D02*
X14367500Y-8087500D01*
X14372500Y-8322500D02*
X14387500Y-8337500D01*
X14387500Y-8322500D02*
X14372500Y-8337500D01*
X14382500Y-8662500D02*
X14397500Y-8677500D01*
X14397500Y-8662500D02*
X14382500Y-8677500D01*
X14382500Y-9102500D02*
X14397500Y-9117500D01*
X14397500Y-9102500D02*
X14382500Y-9117500D01*
X14382500Y-9332500D02*
X14397500Y-9347500D01*
X14397500Y-9332500D02*
X14382500Y-9347500D01*
X14387500Y-7177500D02*
X14402500Y-7192500D01*
X14402500Y-7177500D02*
X14387500Y-7192500D01*
X14387500Y-7937500D02*
X14402500Y-7952500D01*
X14402500Y-7937500D02*
X14387500Y-7952500D01*
X14387500Y-8417500D02*
X14402500Y-8432500D01*
X14402500Y-8417500D02*
X14387500Y-8432500D01*
X14392500Y-7722500D02*
X14407500Y-7737500D01*
X14407500Y-7722500D02*
X14392500Y-7737500D01*
X14392500Y-8022500D02*
X14407500Y-8037500D01*
X14407500Y-8022500D02*
X14392500Y-8037500D01*
X14392500Y-8122500D02*
X14407500Y-8137500D01*
X14407500Y-8122500D02*
X14392500Y-8137500D01*
X14392500Y-8952500D02*
X14407500Y-8967500D01*
X14407500Y-8952500D02*
X14392500Y-8967500D01*
X14392500Y-9212500D02*
X14407500Y-9227500D01*
X14407500Y-9212500D02*
X14392500Y-9227500D01*
X14392500Y-9482500D02*
X14407500Y-9497500D01*
X14407500Y-9482500D02*
X14392500Y-9497500D01*
X14397500Y-7592500D02*
X14412500Y-7607500D01*
X14412500Y-7592500D02*
X14397500Y-7607500D01*
X14402500Y-8532500D02*
X14417500Y-8547500D01*
X14417500Y-8532500D02*
X14402500Y-8547500D01*
X14407500Y-8812500D02*
X14422500Y-8827500D01*
X14422500Y-8812500D02*
X14407500Y-8827500D01*
X14412500Y-7292500D02*
X14427500Y-7307500D01*
X14427500Y-7292500D02*
X14412500Y-7307500D01*
X14417500Y-8257500D02*
X14432500Y-8272500D01*
X14432500Y-8257500D02*
X14417500Y-8272500D01*
X14427500Y-7392500D02*
X14442500Y-7407500D01*
X14442500Y-7392500D02*
X14427500Y-7407500D01*
X14452500Y-8332500D02*
X14467500Y-8347500D01*
X14467500Y-8332500D02*
X14452500Y-8347500D01*
X14457500Y-7487500D02*
X14472500Y-7502500D01*
X14472500Y-7487500D02*
X14457500Y-7502500D01*
X14477500Y-7232500D02*
X14492500Y-7247500D01*
X14492500Y-7232500D02*
X14477500Y-7247500D01*
X14482500Y-9432500D02*
X14497500Y-9447500D01*
X14497500Y-9432500D02*
X14482500Y-9447500D01*
X14492500Y-7347500D02*
X14507500Y-7362500D01*
X14507500Y-7347500D02*
X14492500Y-7362500D01*
X14492500Y-9332500D02*
X14507500Y-9347500D01*
X14507500Y-9332500D02*
X14492500Y-9347500D01*
X14502500Y-7652500D02*
X14517500Y-7667500D01*
X14517500Y-7652500D02*
X14502500Y-7667500D01*
X14502500Y-8257500D02*
X14517500Y-8272500D01*
X14517500Y-8257500D02*
X14502500Y-8272500D01*
X14522500Y-9512500D02*
X14537500Y-9527500D01*
X14537500Y-9512500D02*
X14522500Y-9527500D01*
X14532500Y-7162500D02*
X14547500Y-7177500D01*
X14547500Y-7162500D02*
X14532500Y-7177500D01*
X14542500Y-7552500D02*
X14557500Y-7567500D01*
X14557500Y-7552500D02*
X14542500Y-7567500D01*
X14602500Y-7652500D02*
X14617500Y-7667500D01*
X14617500Y-7652500D02*
X14602500Y-7667500D01*
X14622500Y-9462500D02*
X14637500Y-9477500D01*
X14637500Y-9462500D02*
X14622500Y-9477500D01*
X14632500Y-8632500D02*
X14647500Y-8647500D01*
X14647500Y-8632500D02*
X14632500Y-8647500D01*
X14632500Y-9032500D02*
X14647500Y-9047500D01*
X14647500Y-9032500D02*
X14632500Y-9047500D01*
X14642500Y-8772500D02*
X14657500Y-8787500D01*
X14657500Y-8772500D02*
X14642500Y-8787500D01*
X14642500Y-9162500D02*
X14657500Y-9177500D01*
X14657500Y-9162500D02*
X14642500Y-9177500D01*
X14662500Y-7962500D02*
X14677500Y-7977500D01*
X14677500Y-7962500D02*
X14662500Y-7977500D01*
X14672500Y-8012500D02*
X14687500Y-8027500D01*
X14687500Y-8012500D02*
X14672500Y-8027500D01*
X14692500Y-7172500D02*
X14707500Y-7187500D01*
X14707500Y-7172500D02*
X14692500Y-7187500D01*
X14692500Y-8702500D02*
X14707500Y-8717500D01*
X14707500Y-8702500D02*
X14692500Y-8717500D01*
X14720000Y-8815000D02*
X14735000Y-8830000D01*
X14735000Y-8815000D02*
X14720000Y-8830000D01*
X14732500Y-7552500D02*
X14747500Y-7567500D01*
X14747500Y-7552500D02*
X14732500Y-7567500D01*
X14772500Y-9042500D02*
X14787500Y-9057500D01*
X14787500Y-9042500D02*
X14772500Y-9057500D01*
X14777500Y-7237500D02*
X14792500Y-7252500D01*
X14792500Y-7237500D02*
X14777500Y-7252500D01*
X14777500Y-7352500D02*
X14792500Y-7367500D01*
X14792500Y-7352500D02*
X14777500Y-7367500D01*
X14777500Y-7457500D02*
X14792500Y-7472500D01*
X14792500Y-7457500D02*
X14777500Y-7472500D01*
X14782500Y-8632500D02*
X14797500Y-8647500D01*
X14797500Y-8632500D02*
X14782500Y-8647500D01*
X14782500Y-8772500D02*
X14797500Y-8787500D01*
X14797500Y-8772500D02*
X14782500Y-8787500D01*
X14832500Y-7552500D02*
X14847500Y-7567500D01*
X14847500Y-7552500D02*
X14832500Y-7567500D01*
X14932500Y-9062500D02*
X14947500Y-9077500D01*
X14947500Y-9062500D02*
X14932500Y-9077500D01*
X14942500Y-8345000D02*
X14957500Y-8360000D01*
X14957500Y-8345000D02*
X14942500Y-8360000D01*
X14952500Y-7552500D02*
X14967500Y-7567500D01*
X14967500Y-7552500D02*
X14952500Y-7567500D01*
X14982500Y-8962500D02*
X14997500Y-8977500D01*
X14997500Y-8962500D02*
X14982500Y-8977500D01*
X15052500Y-8602500D02*
X15067500Y-8617500D01*
X15067500Y-8602500D02*
X15052500Y-8617500D01*
X15052500Y-8857500D02*
X15067500Y-8872500D01*
X15067500Y-8857500D02*
X15052500Y-8872500D01*
X15062500Y-7992500D02*
X15077500Y-8007500D01*
X15077500Y-7992500D02*
X15062500Y-8007500D01*
X15072500Y-8452500D02*
X15087500Y-8467500D01*
X15087500Y-8452500D02*
X15072500Y-8467500D01*
X15177500Y-8402500D02*
X15192500Y-8417500D01*
X15192500Y-8402500D02*
X15177500Y-8417500D01*
X15227500Y-8812500D02*
X15242500Y-8827500D01*
X15242500Y-8812500D02*
X15227500Y-8827500D01*
X15272500Y-8372500D02*
X15287500Y-8387500D01*
X15287500Y-8372500D02*
X15272500Y-8387500D01*
X15292500Y-7267500D02*
X15307500Y-7282500D01*
X15307500Y-7267500D02*
X15292500Y-7282500D01*
X15332500Y-7162500D02*
X15347500Y-7177500D01*
X15347500Y-7162500D02*
X15332500Y-7177500D01*
X15412500Y-7422500D02*
X15427500Y-7437500D01*
X15427500Y-7422500D02*
X15412500Y-7437500D01*
X15412500Y-8012500D02*
X15427500Y-8027500D01*
X15427500Y-8012500D02*
X15412500Y-8027500D01*
X15437500Y-7702500D02*
X15452500Y-7717500D01*
X15452500Y-7702500D02*
X15437500Y-7717500D01*
X15452500Y-7302500D02*
X15467500Y-7317500D01*
X15467500Y-7302500D02*
X15452500Y-7317500D01*
X15467500Y-9142500D02*
X15482500Y-9157500D01*
X15482500Y-9142500D02*
X15467500Y-9157500D01*
X15470000Y-8255000D02*
X15485000Y-8270000D01*
X15485000Y-8255000D02*
X15470000Y-8270000D01*
X15472500Y-8350000D02*
X15487500Y-8365000D01*
X15487500Y-8350000D02*
X15472500Y-8365000D01*
X15482500Y-7982500D02*
X15497500Y-7997500D01*
X15497500Y-7982500D02*
X15482500Y-7997500D01*
X15492500Y-7807500D02*
X15507500Y-7822500D01*
X15507500Y-7807500D02*
X15492500Y-7822500D01*
X15502500Y-8142500D02*
X15517500Y-8157500D01*
X15517500Y-8142500D02*
X15502500Y-8157500D01*
X15507500Y-8887500D02*
X15522500Y-8902500D01*
X15522500Y-8887500D02*
X15507500Y-8902500D01*
X15512500Y-7182500D02*
X15527500Y-7197500D01*
X15527500Y-7182500D02*
X15512500Y-7197500D01*
X15512500Y-9002500D02*
X15527500Y-9017500D01*
X15527500Y-9002500D02*
X15512500Y-9017500D01*
X15522000Y-8212500D02*
X15537000Y-8227500D01*
X15537000Y-8212500D02*
X15522000Y-8227500D01*
X15567500Y-9337500D02*
X15582500Y-9352500D01*
X15582500Y-9337500D02*
X15567500Y-9352500D01*
X15572500Y-7382500D02*
X15587500Y-7397500D01*
X15587500Y-7382500D02*
X15572500Y-7397500D01*
X15592500Y-8102500D02*
X15607500Y-8117500D01*
X15607500Y-8102500D02*
X15592500Y-8117500D01*
X15602500Y-7272500D02*
X15617500Y-7287500D01*
X15617500Y-7272500D02*
X15602500Y-7287500D01*
X15612500Y-7982500D02*
X15627500Y-7997500D01*
X15627500Y-7982500D02*
X15612500Y-7997500D01*
X15612500Y-8752500D02*
X15627500Y-8767500D01*
X15627500Y-8752500D02*
X15612500Y-8767500D01*
X15632500Y-8632500D02*
X15647500Y-8647500D01*
X15647500Y-8632500D02*
X15632500Y-8647500D01*
X15662500Y-7932500D02*
X15677500Y-7947500D01*
X15677500Y-7932500D02*
X15662500Y-7947500D01*
X15702500Y-7412500D02*
X15717500Y-7427500D01*
X15717500Y-7412500D02*
X15702500Y-7427500D01*
X15729000Y-8172500D02*
X15744000Y-8187500D01*
X15744000Y-8172500D02*
X15729000Y-8187500D01*
X15762500Y-7182500D02*
X15777500Y-7197500D01*
X15777500Y-7182500D02*
X15762500Y-7197500D01*
X15762500Y-8692500D02*
X15777500Y-8707500D01*
X15777500Y-8692500D02*
X15762500Y-8707500D01*
X15772500Y-7302500D02*
X15787500Y-7317500D01*
X15787500Y-7302500D02*
X15772500Y-7317500D01*
X15792500Y-8062500D02*
X15807500Y-8077500D01*
X15807500Y-8062500D02*
X15792500Y-8077500D01*
X15792500Y-8792500D02*
X15807500Y-8807500D01*
X15807500Y-8792500D02*
X15792500Y-8807500D01*
X15812500Y-7952500D02*
X15827500Y-7967500D01*
X15827500Y-7952500D02*
X15812500Y-7967500D01*
X15862500Y-8172500D02*
X15877500Y-8187500D01*
X15877500Y-8172500D02*
X15862500Y-8187500D01*
X15862500Y-8632500D02*
X15877500Y-8647500D01*
X15877500Y-8632500D02*
X15862500Y-8647500D01*
X15872500Y-7432500D02*
X15887500Y-7447500D01*
X15887500Y-7432500D02*
X15872500Y-7447500D01*
X15882500Y-8272500D02*
X15897500Y-8287500D01*
X15897500Y-8272500D02*
X15882500Y-8287500D01*
X15902500Y-8032500D02*
X15917500Y-8047500D01*
X15917500Y-8032500D02*
X15902500Y-8047500D01*
X15902500Y-8702500D02*
X15917500Y-8717500D01*
X15917500Y-8702500D02*
X15902500Y-8717500D01*
X15912500Y-7172500D02*
X15927500Y-7187500D01*
X15927500Y-7172500D02*
X15912500Y-7187500D01*
X15927500Y-9322500D02*
X15942500Y-9337500D01*
X15942500Y-9322500D02*
X15927500Y-9337500D01*
X15952500Y-7302500D02*
X15967500Y-7317500D01*
X15967500Y-7302500D02*
X15952500Y-7317500D01*
X15952500Y-8762500D02*
X15967500Y-8777500D01*
X15967500Y-8762500D02*
X15952500Y-8777500D01*
X15962500Y-7922500D02*
X15977500Y-7937500D01*
X15977500Y-7922500D02*
X15962500Y-7937500D01*
X15962500Y-8162500D02*
X15977500Y-8177500D01*
X15977500Y-8162500D02*
X15962500Y-8177500D01*
X16002500Y-8082500D02*
X16017500Y-8097500D01*
X16017500Y-8082500D02*
X16002500Y-8097500D01*
X16002500Y-9322500D02*
X16017500Y-9337500D01*
X16017500Y-9322500D02*
X16002500Y-9337500D01*
X16022500Y-8632500D02*
X16037500Y-8647500D01*
X16037500Y-8632500D02*
X16022500Y-8647500D01*
X16042500Y-7412500D02*
X16057500Y-7427500D01*
X16057500Y-7412500D02*
X16042500Y-7427500D01*
X16062500Y-7172500D02*
X16077500Y-7187500D01*
X16077500Y-7172500D02*
X16062500Y-7187500D01*
X16062500Y-8692500D02*
X16077500Y-8707500D01*
X16077500Y-8692500D02*
X16062500Y-8707500D01*
X16092500Y-8792500D02*
X16107500Y-8807500D01*
X16107500Y-8792500D02*
X16092500Y-8807500D01*
X16122500Y-7292500D02*
X16137500Y-7307500D01*
X16137500Y-7292500D02*
X16122500Y-7307500D01*
X16132500Y-8172500D02*
X16147500Y-8187500D01*
X16147500Y-8172500D02*
X16132500Y-8187500D01*
X16142500Y-8552500D02*
X16157500Y-8567500D01*
X16157500Y-8552500D02*
X16142500Y-8567500D01*
X16182500Y-7492500D02*
X16197500Y-7507500D01*
X16197500Y-7492500D02*
X16182500Y-7507500D01*
X16202500Y-7342500D02*
X16217500Y-7357500D01*
X16217500Y-7342500D02*
X16202500Y-7357500D01*
X16212500Y-7722500D02*
X16227500Y-7737500D01*
X16227500Y-7722500D02*
X16212500Y-7737500D01*
X16242500Y-8592500D02*
X16257500Y-8607500D01*
X16257500Y-8592500D02*
X16242500Y-8607500D01*
X16242500Y-8792500D02*
X16257500Y-8807500D01*
X16257500Y-8792500D02*
X16242500Y-8807500D01*
X16242500Y-9322500D02*
X16257500Y-9337500D01*
X16257500Y-9322500D02*
X16242500Y-9337500D01*
X16272500Y-7912500D02*
X16287500Y-7927500D01*
X16287500Y-7912500D02*
X16272500Y-7927500D01*
X16282500Y-7182500D02*
X16297500Y-7197500D01*
X16297500Y-7182500D02*
X16282500Y-7197500D01*
X16292500Y-8357500D02*
X16307500Y-8372500D01*
X16307500Y-8357500D02*
X16292500Y-8372500D01*
X16292500Y-8452500D02*
X16307500Y-8467500D01*
X16307500Y-8452500D02*
X16292500Y-8467500D01*
X16317500Y-7622500D02*
X16332500Y-7637500D01*
X16332500Y-7622500D02*
X16317500Y-7637500D01*
X16342500Y-7352500D02*
X16357500Y-7367500D01*
X16357500Y-7352500D02*
X16342500Y-7367500D01*
X16342500Y-8787500D02*
X16357500Y-8802500D01*
X16357500Y-8787500D02*
X16342500Y-8802500D01*
X16377500Y-7477500D02*
X16392500Y-7492500D01*
X16392500Y-7477500D02*
X16377500Y-7492500D01*
X16402500Y-7162500D02*
X16417500Y-7177500D01*
X16417500Y-7162500D02*
X16402500Y-7177500D01*
X16402500Y-8262500D02*
X16417500Y-8277500D01*
X16417500Y-8262500D02*
X16402500Y-8277500D01*
X16412500Y-8012500D02*
X16427500Y-8027500D01*
X16427500Y-8012500D02*
X16412500Y-8027500D01*
X16422500Y-7792500D02*
X16437500Y-7807500D01*
X16437500Y-7792500D02*
X16422500Y-7807500D01*
X16472500Y-7622500D02*
X16487500Y-7637500D01*
X16487500Y-7622500D02*
X16472500Y-7637500D01*
X16522500Y-7292500D02*
X16537500Y-7307500D01*
X16537500Y-7292500D02*
X16522500Y-7307500D01*
X16532500Y-7902500D02*
X16547500Y-7917500D01*
X16547500Y-7902500D02*
X16532500Y-7917500D01*
X16552500Y-7597500D02*
X16567500Y-7612500D01*
X16567500Y-7597500D02*
X16552500Y-7612500D01*
X16602500Y-7762500D02*
X16617500Y-7777500D01*
X16617500Y-7762500D02*
X16602500Y-7777500D01*
X16602500Y-8032500D02*
X16617500Y-8047500D01*
X16617500Y-8032500D02*
X16602500Y-8047500D01*
X16752500Y-7862500D02*
X16767500Y-7877500D01*
X16767500Y-7862500D02*
X16752500Y-7877500D01*
X16782500Y-8082500D02*
X16797500Y-8097500D01*
X16797500Y-8082500D02*
X16782500Y-8097500D01*
X16812500Y-7732500D02*
X16827500Y-7747500D01*
X16827500Y-7732500D02*
X16812500Y-7747500D01*
X16897500Y-7252500D02*
X16912500Y-7267500D01*
X16912500Y-7252500D02*
X16897500Y-7267500D01*
X16912500Y-7342500D02*
X16927500Y-7357500D01*
X16927500Y-7342500D02*
X16912500Y-7357500D01*
X16962500Y-7612500D02*
X16977500Y-7627500D01*
X16977500Y-7612500D02*
X16962500Y-7627500D01*
X16982500Y-7192500D02*
X16997500Y-7207500D01*
X16997500Y-7192500D02*
X16982500Y-7207500D01*
X16992500Y-7912500D02*
X17007500Y-7927500D01*
X17007500Y-7912500D02*
X16992500Y-7927500D01*
X17012500Y-7302500D02*
X17027500Y-7317500D01*
X17027500Y-7302500D02*
X17012500Y-7317500D01*
X17052500Y-7402500D02*
X17067500Y-7417500D01*
X17067500Y-7402500D02*
X17052500Y-7417500D01*
X17057500Y-8662500D02*
X17072500Y-8677500D01*
X17072500Y-8662500D02*
X17057500Y-8677500D01*
X17062500Y-7722500D02*
X17077500Y-7737500D01*
X17077500Y-7722500D02*
X17062500Y-7737500D01*
X17132500Y-7272500D02*
X17147500Y-7287500D01*
X17147500Y-7272500D02*
X17132500Y-7287500D01*
X17192500Y-7382500D02*
X17207500Y-7397500D01*
X17207500Y-7382500D02*
X17192500Y-7397500D01*
X17202500Y-7202500D02*
X17217500Y-7217500D01*
X17217500Y-7202500D02*
X17202500Y-7217500D01*
X17362500Y-8462500D02*
X17377500Y-8477500D01*
X17377500Y-8462500D02*
X17362500Y-8477500D01*
X17382500Y-7322500D02*
X17397500Y-7337500D01*
X17397500Y-7322500D02*
X17382500Y-7337500D01*
X17432500Y-7192500D02*
X17447500Y-7207500D01*
X17447500Y-7192500D02*
X17432500Y-7207500D01*
X17457500Y-8457500D02*
X17472500Y-8472500D01*
X17472500Y-8457500D02*
X17457500Y-8472500D01*
X17542500Y-7322500D02*
X17557500Y-7337500D01*
X17557500Y-7322500D02*
X17542500Y-7337500D01*
X17552500Y-7192500D02*
X17567500Y-7207500D01*
X17567500Y-7192500D02*
X17552500Y-7207500D01*
X17582500Y-8922500D02*
X17597500Y-8937500D01*
X17597500Y-8922500D02*
X17582500Y-8937500D01*
X17642500Y-7682500D02*
X17657500Y-7697500D01*
X17657500Y-7682500D02*
X17642500Y-7697500D01*
X17662500Y-8162500D02*
X17677500Y-8177500D01*
X17677500Y-8162500D02*
X17662500Y-8177500D01*
X17662500Y-8757500D02*
X17677500Y-8772500D01*
X17677500Y-8757500D02*
X17662500Y-8772500D01*
X17672500Y-7372500D02*
X17687500Y-7387500D01*
X17687500Y-7372500D02*
X17672500Y-7387500D01*
X17682500Y-7532500D02*
X17697500Y-7547500D01*
X17697500Y-7532500D02*
X17682500Y-7547500D01*
X17762500Y-7462500D02*
X17777500Y-7477500D01*
X17777500Y-7462500D02*
X17762500Y-7477500D01*
X17772500Y-7232500D02*
X17787500Y-7247500D01*
X17787500Y-7232500D02*
X17772500Y-7247500D01*
X17772500Y-7342500D02*
X17787500Y-7357500D01*
X17787500Y-7342500D02*
X17772500Y-7357500D01*
X17772500Y-8967500D02*
X17787500Y-8982500D01*
X17787500Y-8967500D02*
X17772500Y-8982500D01*
X17772500Y-9107500D02*
X17787500Y-9122500D01*
X17787500Y-9107500D02*
X17772500Y-9122500D01*
X17772500Y-9252500D02*
X17787500Y-9267500D01*
X17787500Y-9252500D02*
X17772500Y-9267500D01*
X17802500Y-7712500D02*
X17817500Y-7727500D01*
X17817500Y-7712500D02*
X17802500Y-7727500D01*
X17857500Y-8667500D02*
X17872500Y-8682500D01*
X17872500Y-8667500D02*
X17857500Y-8682500D01*
X17872500Y-7642500D02*
X17887500Y-7657500D01*
X17887500Y-7642500D02*
X17872500Y-7657500D01*
X17872500Y-7802500D02*
X17887500Y-7817500D01*
X17887500Y-7802500D02*
X17872500Y-7817500D01*
X17872500Y-8787500D02*
X17887500Y-8802500D01*
X17887500Y-8787500D02*
X17872500Y-8802500D01*
X17887500Y-8022500D02*
X17902500Y-8037500D01*
X17902500Y-8022500D02*
X17887500Y-8037500D01*
X17972500Y-7672500D02*
X17987500Y-7687500D01*
X17987500Y-7672500D02*
X17972500Y-7687500D01*
X17992500Y-7472500D02*
X18007500Y-7487500D01*
X18007500Y-7472500D02*
X17992500Y-7487500D01*
X18022500Y-7292500D02*
X18037500Y-7307500D01*
X18037500Y-7292500D02*
X18022500Y-7307500D01*
X18082500Y-7772500D02*
X18097500Y-7787500D01*
X18097500Y-7772500D02*
X18082500Y-7787500D01*
X18092500Y-7622500D02*
X18107500Y-7637500D01*
X18107500Y-7622500D02*
X18092500Y-7637500D01*
X18112500Y-7352500D02*
X18127500Y-7367500D01*
X18127500Y-7352500D02*
X18112500Y-7367500D01*
X18152500Y-7512500D02*
X18167500Y-7527500D01*
X18167500Y-7512500D02*
X18152500Y-7527500D01*
X18202500Y-7232500D02*
X18217500Y-7247500D01*
X18217500Y-7232500D02*
X18202500Y-7247500D01*
X18222500Y-7632500D02*
X18237500Y-7647500D01*
X18237500Y-7632500D02*
X18222500Y-7647500D01*
X18242500Y-8672500D02*
X18257500Y-8687500D01*
X18257500Y-8672500D02*
X18242500Y-8687500D01*
X18282500Y-8042500D02*
X18297500Y-8057500D01*
X18297500Y-8042500D02*
X18282500Y-8057500D01*
X18322500Y-8572500D02*
X18337500Y-8587500D01*
X18337500Y-8572500D02*
X18322500Y-8587500D01*
X18342500Y-7432500D02*
X18357500Y-7447500D01*
X18357500Y-7432500D02*
X18342500Y-7447500D01*
X18342500Y-7522500D02*
X18357500Y-7537500D01*
X18357500Y-7522500D02*
X18342500Y-7537500D01*
X18352500Y-7722500D02*
X18367500Y-7737500D01*
X18367500Y-7722500D02*
X18352500Y-7737500D01*
X18352500Y-8002500D02*
X18367500Y-8017500D01*
X18367500Y-8002500D02*
X18352500Y-8017500D01*
X18362500Y-8302500D02*
X18377500Y-8317500D01*
X18377500Y-8302500D02*
X18362500Y-8317500D01*
X18382500Y-8152500D02*
X18397500Y-8167500D01*
X18397500Y-8152500D02*
X18382500Y-8167500D01*
X18382500Y-8442500D02*
X18397500Y-8457500D01*
X18397500Y-8442500D02*
X18382500Y-8457500D01*
X18422500Y-8902500D02*
X18437500Y-8917500D01*
X18437500Y-8902500D02*
X18422500Y-8917500D01*
X18442500Y-8602500D02*
X18457500Y-8617500D01*
X18457500Y-8602500D02*
X18442500Y-8617500D01*
X18462500Y-7602500D02*
X18477500Y-7617500D01*
X18477500Y-7602500D02*
X18462500Y-7617500D01*
X18462500Y-8372500D02*
X18477500Y-8387500D01*
X18477500Y-8372500D02*
X18462500Y-8387500D01*
X18472500Y-8182500D02*
X18487500Y-8197500D01*
X18487500Y-8182500D02*
X18472500Y-8197500D01*
X18542500Y-7722500D02*
X18557500Y-7737500D01*
X18557500Y-7722500D02*
X18542500Y-7737500D01*
X18542500Y-8102500D02*
X18557500Y-8117500D01*
X18557500Y-8102500D02*
X18542500Y-8117500D01*
X18572500Y-8902500D02*
X18587500Y-8917500D01*
X18587500Y-8902500D02*
X18572500Y-8917500D01*
X18592500Y-8292500D02*
X18607500Y-8307500D01*
X18607500Y-8292500D02*
X18592500Y-8307500D01*
X18602500Y-8582500D02*
X18617500Y-8597500D01*
X18617500Y-8582500D02*
X18602500Y-8597500D01*
X18963253Y-9689234D02*
X18978253Y-9704234D01*
X18978253Y-9689234D02*
X18963253Y-9704234D01*
X19132500Y-9394987D02*
X19147500Y-9409987D01*
X19147500Y-9394987D02*
X19132500Y-9409987D01*
X19175705Y-9471256D02*
X19190705Y-9486256D01*
X19190705Y-9471256D02*
X19175705Y-9486256D01*
X15940000Y-8992500D02*
G75*
G02*
X15910000Y-8992500I-15000J0D01*
G01*
X15910000Y-8992500D02*
G75*
G02*
X15940000Y-8992500I15000J0D01*
G01*
X15940000Y-9142500D02*
G75*
G02*
X15910000Y-9142500I-15000J0D01*
G01*
X15910000Y-9142500D02*
G75*
G02*
X15940000Y-9142500I15000J0D01*
G01*
X15990000Y-9067500D02*
G75*
G02*
X15960000Y-9067500I-15000J0D01*
G01*
X15960000Y-9067500D02*
G75*
G02*
X15990000Y-9067500I15000J0D01*
G01*
X16040000Y-8992500D02*
G75*
G02*
X16010000Y-8992500I-15000J0D01*
G01*
X16010000Y-8992500D02*
G75*
G02*
X16040000Y-8992500I15000J0D01*
G01*
X16040000Y-9142500D02*
G75*
G02*
X16010000Y-9142500I-15000J0D01*
G01*
X16010000Y-9142500D02*
G75*
G02*
X16040000Y-9142500I15000J0D01*
G01*
X18109500Y-7888000D02*
X18109500Y-7948000D01*
X18079500Y-7918000D02*
X18139500Y-7918000D01*
X18054500Y-7948000D02*
X18164500Y-7948000D01*
X18164500Y-7888000D02*
G75*
G02*
X18164500Y-7948000I0J-30000D01*
G01*
X18164500Y-7888000D02*
X18054500Y-7888000D01*
X18054500Y-7888000D02*
G75*
G03*
X18054500Y-7948000I0J-30000D01*
G01*
X18109500Y-8752000D02*
X18109500Y-8812000D01*
X18079500Y-8782000D02*
X18139500Y-8782000D01*
X18054500Y-8812000D02*
X18164500Y-8812000D01*
X18164500Y-8752000D02*
G75*
G02*
X18164500Y-8812000I0J-30000D01*
G01*
X18164500Y-8752000D02*
X18054500Y-8752000D01*
X18054500Y-8752000D02*
G75*
G03*
X18054500Y-8812000I0J-30000D01*
G01*
X18527500Y-7888000D02*
X18527500Y-7948000D01*
X18497500Y-7918000D02*
X18557500Y-7918000D01*
X18487500Y-7948000D02*
X18567500Y-7948000D01*
X18567500Y-7888000D02*
G75*
G02*
X18567500Y-7948000I0J-30000D01*
G01*
X18567500Y-7888000D02*
X18487500Y-7888000D01*
X18487500Y-7888000D02*
G75*
G03*
X18487500Y-7948000I0J-30000D01*
G01*
X18527500Y-8752000D02*
X18527500Y-8812000D01*
X18497500Y-8782000D02*
X18557500Y-8782000D01*
X18487500Y-8812000D02*
X18567500Y-8812000D01*
X18567500Y-8752000D02*
G75*
G02*
X18567500Y-8812000I0J-30000D01*
G01*
X18567500Y-8752000D02*
X18487500Y-8752000D01*
X18487500Y-8752000D02*
G75*
G03*
X18487500Y-8812000I0J-30000D01*
G01*
X14836517Y-9251517D02*
X14836517Y-9198483D01*
X14783483Y-9198483D01*
X14783483Y-9251517D01*
X14836517Y-9251517D01*
X15036517Y-9251517D02*
X15036517Y-9198483D01*
X14983483Y-9198483D01*
X14983483Y-9251517D01*
X15036517Y-9251517D01*
X15236517Y-9251517D02*
X15236517Y-9198483D01*
X15183483Y-9198483D01*
X15183483Y-9251517D01*
X15236517Y-9251517D01*
X17376517Y-9201517D02*
X17376517Y-9148483D01*
X17323483Y-9148483D01*
X17323483Y-9201517D01*
X17376517Y-9201517D01*
X17376517Y-7526517D02*
X17376517Y-7473483D01*
X17323483Y-7473483D01*
X17323483Y-7526517D01*
X17376517Y-7526517D01*
X17576517Y-7526517D02*
X17576517Y-7473483D01*
X17523483Y-7473483D01*
X17523483Y-7526517D01*
X17576517Y-7526517D01*
X17576517Y-9201517D02*
X17576517Y-9148483D01*
X17523483Y-9148483D01*
X17523483Y-9201517D01*
X17576517Y-9201517D01*
X19168013Y-9877224D02*
X19208013Y-9837224D01*
X19168013Y-9797224D01*
X19128013Y-9837224D01*
X19168013Y-9877224D01*
X19338013Y-9582776D02*
X19378013Y-9542776D01*
X19338013Y-9502776D01*
X19298013Y-9542776D01*
X19338013Y-9582776D01*
D11*
X13928987Y-10400490D02*
X13928987Y-10200490D01*
X13928987Y-10200490D02*
X13976606Y-10200490D01*
X13976606Y-10200490D02*
X14005178Y-10210014D01*
X14005178Y-10210014D02*
X14024226Y-10229061D01*
X14024226Y-10229061D02*
X14033749Y-10248109D01*
X14033749Y-10248109D02*
X14043273Y-10286204D01*
X14043273Y-10286204D02*
X14043273Y-10314775D01*
X14043273Y-10314775D02*
X14033749Y-10352871D01*
X14033749Y-10352871D02*
X14024226Y-10371918D01*
X14024226Y-10371918D02*
X14005178Y-10390966D01*
X14005178Y-10390966D02*
X13976606Y-10400490D01*
X13976606Y-10400490D02*
X13928987Y-10400490D01*
X14128987Y-10400490D02*
X14128987Y-10267156D01*
X14128987Y-10305252D02*
X14138511Y-10286204D01*
X14138511Y-10286204D02*
X14148035Y-10276680D01*
X14148035Y-10276680D02*
X14167083Y-10267156D01*
X14167083Y-10267156D02*
X14186130Y-10267156D01*
X14252797Y-10400490D02*
X14252797Y-10267156D01*
X14252797Y-10200490D02*
X14243273Y-10210014D01*
X14243273Y-10210014D02*
X14252797Y-10219537D01*
X14252797Y-10219537D02*
X14262321Y-10210014D01*
X14262321Y-10210014D02*
X14252797Y-10200490D01*
X14252797Y-10200490D02*
X14252797Y-10219537D01*
X14376606Y-10400490D02*
X14357559Y-10390966D01*
X14357559Y-10390966D02*
X14348035Y-10371918D01*
X14348035Y-10371918D02*
X14348035Y-10200490D01*
X14481368Y-10400490D02*
X14462321Y-10390966D01*
X14462321Y-10390966D02*
X14452797Y-10371918D01*
X14452797Y-10371918D02*
X14452797Y-10200490D01*
X14709940Y-10400490D02*
X14709940Y-10200490D01*
X14709940Y-10200490D02*
X14776607Y-10343347D01*
X14776607Y-10343347D02*
X14843273Y-10200490D01*
X14843273Y-10200490D02*
X14843273Y-10400490D01*
X15024226Y-10400490D02*
X15024226Y-10295728D01*
X15024226Y-10295728D02*
X15014702Y-10276680D01*
X15014702Y-10276680D02*
X14995654Y-10267156D01*
X14995654Y-10267156D02*
X14957559Y-10267156D01*
X14957559Y-10267156D02*
X14938511Y-10276680D01*
X15024226Y-10390966D02*
X15005178Y-10400490D01*
X15005178Y-10400490D02*
X14957559Y-10400490D01*
X14957559Y-10400490D02*
X14938511Y-10390966D01*
X14938511Y-10390966D02*
X14928987Y-10371918D01*
X14928987Y-10371918D02*
X14928987Y-10352871D01*
X14928987Y-10352871D02*
X14938511Y-10333823D01*
X14938511Y-10333823D02*
X14957559Y-10324299D01*
X14957559Y-10324299D02*
X15005178Y-10324299D01*
X15005178Y-10324299D02*
X15024226Y-10314775D01*
X15119464Y-10267156D02*
X15119464Y-10467156D01*
X15119464Y-10276680D02*
X15138511Y-10267156D01*
X15138511Y-10267156D02*
X15176607Y-10267156D01*
X15176607Y-10267156D02*
X15195654Y-10276680D01*
X15195654Y-10276680D02*
X15205178Y-10286204D01*
X15205178Y-10286204D02*
X15214702Y-10305252D01*
X15214702Y-10305252D02*
X15214702Y-10362394D01*
X15214702Y-10362394D02*
X15205178Y-10381442D01*
X15205178Y-10381442D02*
X15195654Y-10390966D01*
X15195654Y-10390966D02*
X15176607Y-10400490D01*
X15176607Y-10400490D02*
X15138511Y-10400490D01*
X15138511Y-10400490D02*
X15119464Y-10390966D01*
X15300416Y-10381442D02*
X15309940Y-10390966D01*
X15309940Y-10390966D02*
X15300416Y-10400490D01*
X15300416Y-10400490D02*
X15290892Y-10390966D01*
X15290892Y-10390966D02*
X15300416Y-10381442D01*
X15300416Y-10381442D02*
X15300416Y-10400490D01*
X15300416Y-10276680D02*
X15309940Y-10286204D01*
X15309940Y-10286204D02*
X15300416Y-10295728D01*
X15300416Y-10295728D02*
X15290892Y-10286204D01*
X15290892Y-10286204D02*
X15300416Y-10276680D01*
X15300416Y-10276680D02*
X15300416Y-10295728D01*
D12*
X13653211Y-10721506D02*
X13668211Y-10736506D01*
X13668211Y-10721506D02*
X13653211Y-10736506D01*
D11*
X13967083Y-10620490D02*
X13986130Y-10620490D01*
X13986130Y-10620490D02*
X14005178Y-10630014D01*
X14005178Y-10630014D02*
X14014702Y-10639537D01*
X14014702Y-10639537D02*
X14024226Y-10658585D01*
X14024226Y-10658585D02*
X14033749Y-10696680D01*
X14033749Y-10696680D02*
X14033749Y-10744299D01*
X14033749Y-10744299D02*
X14024226Y-10782394D01*
X14024226Y-10782394D02*
X14014702Y-10801442D01*
X14014702Y-10801442D02*
X14005178Y-10810966D01*
X14005178Y-10810966D02*
X13986130Y-10820490D01*
X13986130Y-10820490D02*
X13967083Y-10820490D01*
X13967083Y-10820490D02*
X13948035Y-10810966D01*
X13948035Y-10810966D02*
X13938511Y-10801442D01*
X13938511Y-10801442D02*
X13928987Y-10782394D01*
X13928987Y-10782394D02*
X13919464Y-10744299D01*
X13919464Y-10744299D02*
X13919464Y-10696680D01*
X13919464Y-10696680D02*
X13928987Y-10658585D01*
X13928987Y-10658585D02*
X13938511Y-10639537D01*
X13938511Y-10639537D02*
X13948035Y-10630014D01*
X13948035Y-10630014D02*
X13967083Y-10620490D01*
X14119464Y-10801442D02*
X14128987Y-10810966D01*
X14128987Y-10810966D02*
X14119464Y-10820490D01*
X14119464Y-10820490D02*
X14109940Y-10810966D01*
X14109940Y-10810966D02*
X14119464Y-10801442D01*
X14119464Y-10801442D02*
X14119464Y-10820490D01*
X14319464Y-10820490D02*
X14205178Y-10820490D01*
X14262321Y-10820490D02*
X14262321Y-10620490D01*
X14262321Y-10620490D02*
X14243273Y-10649061D01*
X14243273Y-10649061D02*
X14224226Y-10668109D01*
X14224226Y-10668109D02*
X14205178Y-10677633D01*
X14500416Y-10620490D02*
X14405178Y-10620490D01*
X14405178Y-10620490D02*
X14395654Y-10715728D01*
X14395654Y-10715728D02*
X14405178Y-10706204D01*
X14405178Y-10706204D02*
X14424226Y-10696680D01*
X14424226Y-10696680D02*
X14471845Y-10696680D01*
X14471845Y-10696680D02*
X14490892Y-10706204D01*
X14490892Y-10706204D02*
X14500416Y-10715728D01*
X14500416Y-10715728D02*
X14509940Y-10734775D01*
X14509940Y-10734775D02*
X14509940Y-10782394D01*
X14509940Y-10782394D02*
X14500416Y-10801442D01*
X14500416Y-10801442D02*
X14490892Y-10810966D01*
X14490892Y-10810966D02*
X14471845Y-10820490D01*
X14471845Y-10820490D02*
X14424226Y-10820490D01*
X14424226Y-10820490D02*
X14405178Y-10810966D01*
X14405178Y-10810966D02*
X14395654Y-10801442D01*
X14633749Y-10620490D02*
X14652797Y-10620490D01*
X14652797Y-10620490D02*
X14671845Y-10630014D01*
X14671845Y-10630014D02*
X14681368Y-10639537D01*
X14681368Y-10639537D02*
X14690892Y-10658585D01*
X14690892Y-10658585D02*
X14700416Y-10696680D01*
X14700416Y-10696680D02*
X14700416Y-10744299D01*
X14700416Y-10744299D02*
X14690892Y-10782394D01*
X14690892Y-10782394D02*
X14681368Y-10801442D01*
X14681368Y-10801442D02*
X14671845Y-10810966D01*
X14671845Y-10810966D02*
X14652797Y-10820490D01*
X14652797Y-10820490D02*
X14633749Y-10820490D01*
X14633749Y-10820490D02*
X14614702Y-10810966D01*
X14614702Y-10810966D02*
X14605178Y-10801442D01*
X14605178Y-10801442D02*
X14595654Y-10782394D01*
X14595654Y-10782394D02*
X14586130Y-10744299D01*
X14586130Y-10744299D02*
X14586130Y-10696680D01*
X14586130Y-10696680D02*
X14595654Y-10658585D01*
X14595654Y-10658585D02*
X14605178Y-10639537D01*
X14605178Y-10639537D02*
X14614702Y-10630014D01*
X14614702Y-10630014D02*
X14633749Y-10620490D01*
X14786130Y-10820490D02*
X14786130Y-10687156D01*
X14786130Y-10706204D02*
X14795654Y-10696680D01*
X14795654Y-10696680D02*
X14814702Y-10687156D01*
X14814702Y-10687156D02*
X14843273Y-10687156D01*
X14843273Y-10687156D02*
X14862321Y-10696680D01*
X14862321Y-10696680D02*
X14871845Y-10715728D01*
X14871845Y-10715728D02*
X14871845Y-10820490D01*
X14871845Y-10715728D02*
X14881368Y-10696680D01*
X14881368Y-10696680D02*
X14900416Y-10687156D01*
X14900416Y-10687156D02*
X14928987Y-10687156D01*
X14928987Y-10687156D02*
X14948035Y-10696680D01*
X14948035Y-10696680D02*
X14957559Y-10715728D01*
X14957559Y-10715728D02*
X14957559Y-10820490D01*
X15052797Y-10820490D02*
X15052797Y-10687156D01*
X15052797Y-10706204D02*
X15062321Y-10696680D01*
X15062321Y-10696680D02*
X15081368Y-10687156D01*
X15081368Y-10687156D02*
X15109940Y-10687156D01*
X15109940Y-10687156D02*
X15128988Y-10696680D01*
X15128988Y-10696680D02*
X15138511Y-10715728D01*
X15138511Y-10715728D02*
X15138511Y-10820490D01*
X15138511Y-10715728D02*
X15148035Y-10696680D01*
X15148035Y-10696680D02*
X15167083Y-10687156D01*
X15167083Y-10687156D02*
X15195654Y-10687156D01*
X15195654Y-10687156D02*
X15214702Y-10696680D01*
X15214702Y-10696680D02*
X15224226Y-10715728D01*
X15224226Y-10715728D02*
X15224226Y-10820490D01*
X15614702Y-10610966D02*
X15443273Y-10868109D01*
X15871845Y-10620490D02*
X15890892Y-10620490D01*
X15890892Y-10620490D02*
X15909940Y-10630014D01*
X15909940Y-10630014D02*
X15919464Y-10639537D01*
X15919464Y-10639537D02*
X15928988Y-10658585D01*
X15928988Y-10658585D02*
X15938511Y-10696680D01*
X15938511Y-10696680D02*
X15938511Y-10744299D01*
X15938511Y-10744299D02*
X15928988Y-10782394D01*
X15928988Y-10782394D02*
X15919464Y-10801442D01*
X15919464Y-10801442D02*
X15909940Y-10810966D01*
X15909940Y-10810966D02*
X15890892Y-10820490D01*
X15890892Y-10820490D02*
X15871845Y-10820490D01*
X15871845Y-10820490D02*
X15852797Y-10810966D01*
X15852797Y-10810966D02*
X15843273Y-10801442D01*
X15843273Y-10801442D02*
X15833750Y-10782394D01*
X15833750Y-10782394D02*
X15824226Y-10744299D01*
X15824226Y-10744299D02*
X15824226Y-10696680D01*
X15824226Y-10696680D02*
X15833750Y-10658585D01*
X15833750Y-10658585D02*
X15843273Y-10639537D01*
X15843273Y-10639537D02*
X15852797Y-10630014D01*
X15852797Y-10630014D02*
X15871845Y-10620490D01*
X16024226Y-10801442D02*
X16033750Y-10810966D01*
X16033750Y-10810966D02*
X16024226Y-10820490D01*
X16024226Y-10820490D02*
X16014702Y-10810966D01*
X16014702Y-10810966D02*
X16024226Y-10801442D01*
X16024226Y-10801442D02*
X16024226Y-10820490D01*
X16157559Y-10620490D02*
X16176607Y-10620490D01*
X16176607Y-10620490D02*
X16195654Y-10630014D01*
X16195654Y-10630014D02*
X16205178Y-10639537D01*
X16205178Y-10639537D02*
X16214702Y-10658585D01*
X16214702Y-10658585D02*
X16224226Y-10696680D01*
X16224226Y-10696680D02*
X16224226Y-10744299D01*
X16224226Y-10744299D02*
X16214702Y-10782394D01*
X16214702Y-10782394D02*
X16205178Y-10801442D01*
X16205178Y-10801442D02*
X16195654Y-10810966D01*
X16195654Y-10810966D02*
X16176607Y-10820490D01*
X16176607Y-10820490D02*
X16157559Y-10820490D01*
X16157559Y-10820490D02*
X16138511Y-10810966D01*
X16138511Y-10810966D02*
X16128988Y-10801442D01*
X16128988Y-10801442D02*
X16119464Y-10782394D01*
X16119464Y-10782394D02*
X16109940Y-10744299D01*
X16109940Y-10744299D02*
X16109940Y-10696680D01*
X16109940Y-10696680D02*
X16119464Y-10658585D01*
X16119464Y-10658585D02*
X16128988Y-10639537D01*
X16128988Y-10639537D02*
X16138511Y-10630014D01*
X16138511Y-10630014D02*
X16157559Y-10620490D01*
X16348035Y-10620490D02*
X16367083Y-10620490D01*
X16367083Y-10620490D02*
X16386131Y-10630014D01*
X16386131Y-10630014D02*
X16395654Y-10639537D01*
X16395654Y-10639537D02*
X16405178Y-10658585D01*
X16405178Y-10658585D02*
X16414702Y-10696680D01*
X16414702Y-10696680D02*
X16414702Y-10744299D01*
X16414702Y-10744299D02*
X16405178Y-10782394D01*
X16405178Y-10782394D02*
X16395654Y-10801442D01*
X16395654Y-10801442D02*
X16386131Y-10810966D01*
X16386131Y-10810966D02*
X16367083Y-10820490D01*
X16367083Y-10820490D02*
X16348035Y-10820490D01*
X16348035Y-10820490D02*
X16328988Y-10810966D01*
X16328988Y-10810966D02*
X16319464Y-10801442D01*
X16319464Y-10801442D02*
X16309940Y-10782394D01*
X16309940Y-10782394D02*
X16300416Y-10744299D01*
X16300416Y-10744299D02*
X16300416Y-10696680D01*
X16300416Y-10696680D02*
X16309940Y-10658585D01*
X16309940Y-10658585D02*
X16319464Y-10639537D01*
X16319464Y-10639537D02*
X16328988Y-10630014D01*
X16328988Y-10630014D02*
X16348035Y-10620490D01*
X16595654Y-10620490D02*
X16500416Y-10620490D01*
X16500416Y-10620490D02*
X16490892Y-10715728D01*
X16490892Y-10715728D02*
X16500416Y-10706204D01*
X16500416Y-10706204D02*
X16519464Y-10696680D01*
X16519464Y-10696680D02*
X16567083Y-10696680D01*
X16567083Y-10696680D02*
X16586131Y-10706204D01*
X16586131Y-10706204D02*
X16595654Y-10715728D01*
X16595654Y-10715728D02*
X16605178Y-10734775D01*
X16605178Y-10734775D02*
X16605178Y-10782394D01*
X16605178Y-10782394D02*
X16595654Y-10801442D01*
X16595654Y-10801442D02*
X16586131Y-10810966D01*
X16586131Y-10810966D02*
X16567083Y-10820490D01*
X16567083Y-10820490D02*
X16519464Y-10820490D01*
X16519464Y-10820490D02*
X16500416Y-10810966D01*
X16500416Y-10810966D02*
X16490892Y-10801442D01*
X16700416Y-10820490D02*
X16738511Y-10820490D01*
X16738511Y-10820490D02*
X16757559Y-10810966D01*
X16757559Y-10810966D02*
X16767083Y-10801442D01*
X16767083Y-10801442D02*
X16786131Y-10772871D01*
X16786131Y-10772871D02*
X16795654Y-10734775D01*
X16795654Y-10734775D02*
X16795654Y-10658585D01*
X16795654Y-10658585D02*
X16786131Y-10639537D01*
X16786131Y-10639537D02*
X16776607Y-10630014D01*
X16776607Y-10630014D02*
X16757559Y-10620490D01*
X16757559Y-10620490D02*
X16719464Y-10620490D01*
X16719464Y-10620490D02*
X16700416Y-10630014D01*
X16700416Y-10630014D02*
X16690892Y-10639537D01*
X16690892Y-10639537D02*
X16681369Y-10658585D01*
X16681369Y-10658585D02*
X16681369Y-10706204D01*
X16681369Y-10706204D02*
X16690892Y-10725252D01*
X16690892Y-10725252D02*
X16700416Y-10734775D01*
X16700416Y-10734775D02*
X16719464Y-10744299D01*
X16719464Y-10744299D02*
X16757559Y-10744299D01*
X16757559Y-10744299D02*
X16776607Y-10734775D01*
X16776607Y-10734775D02*
X16786131Y-10725252D01*
X16786131Y-10725252D02*
X16795654Y-10706204D01*
X16871845Y-10620490D02*
X16871845Y-10658585D01*
X16948035Y-10620490D02*
X16948035Y-10658585D01*
X17243274Y-10896680D02*
X17233750Y-10887156D01*
X17233750Y-10887156D02*
X17214702Y-10858585D01*
X17214702Y-10858585D02*
X17205178Y-10839537D01*
X17205178Y-10839537D02*
X17195655Y-10810966D01*
X17195655Y-10810966D02*
X17186131Y-10763347D01*
X17186131Y-10763347D02*
X17186131Y-10725252D01*
X17186131Y-10725252D02*
X17195655Y-10677633D01*
X17195655Y-10677633D02*
X17205178Y-10649061D01*
X17205178Y-10649061D02*
X17214702Y-10630014D01*
X17214702Y-10630014D02*
X17233750Y-10601442D01*
X17233750Y-10601442D02*
X17243274Y-10591918D01*
X17309940Y-10639537D02*
X17319464Y-10630014D01*
X17319464Y-10630014D02*
X17338512Y-10620490D01*
X17338512Y-10620490D02*
X17386131Y-10620490D01*
X17386131Y-10620490D02*
X17405178Y-10630014D01*
X17405178Y-10630014D02*
X17414702Y-10639537D01*
X17414702Y-10639537D02*
X17424226Y-10658585D01*
X17424226Y-10658585D02*
X17424226Y-10677633D01*
X17424226Y-10677633D02*
X17414702Y-10706204D01*
X17414702Y-10706204D02*
X17300416Y-10820490D01*
X17300416Y-10820490D02*
X17424226Y-10820490D01*
X17500416Y-10639537D02*
X17509940Y-10630014D01*
X17509940Y-10630014D02*
X17528988Y-10620490D01*
X17528988Y-10620490D02*
X17576607Y-10620490D01*
X17576607Y-10620490D02*
X17595655Y-10630014D01*
X17595655Y-10630014D02*
X17605178Y-10639537D01*
X17605178Y-10639537D02*
X17614702Y-10658585D01*
X17614702Y-10658585D02*
X17614702Y-10677633D01*
X17614702Y-10677633D02*
X17605178Y-10706204D01*
X17605178Y-10706204D02*
X17490893Y-10820490D01*
X17490893Y-10820490D02*
X17614702Y-10820490D01*
X17690893Y-10639537D02*
X17700416Y-10630014D01*
X17700416Y-10630014D02*
X17719464Y-10620490D01*
X17719464Y-10620490D02*
X17767083Y-10620490D01*
X17767083Y-10620490D02*
X17786131Y-10630014D01*
X17786131Y-10630014D02*
X17795655Y-10639537D01*
X17795655Y-10639537D02*
X17805178Y-10658585D01*
X17805178Y-10658585D02*
X17805178Y-10677633D01*
X17805178Y-10677633D02*
X17795655Y-10706204D01*
X17795655Y-10706204D02*
X17681369Y-10820490D01*
X17681369Y-10820490D02*
X17805178Y-10820490D01*
X18043274Y-10820490D02*
X18043274Y-10620490D01*
X18128988Y-10820490D02*
X18128988Y-10715728D01*
X18128988Y-10715728D02*
X18119464Y-10696680D01*
X18119464Y-10696680D02*
X18100417Y-10687156D01*
X18100417Y-10687156D02*
X18071845Y-10687156D01*
X18071845Y-10687156D02*
X18052797Y-10696680D01*
X18052797Y-10696680D02*
X18043274Y-10706204D01*
X18252797Y-10820490D02*
X18233750Y-10810966D01*
X18233750Y-10810966D02*
X18224226Y-10801442D01*
X18224226Y-10801442D02*
X18214702Y-10782394D01*
X18214702Y-10782394D02*
X18214702Y-10725252D01*
X18214702Y-10725252D02*
X18224226Y-10706204D01*
X18224226Y-10706204D02*
X18233750Y-10696680D01*
X18233750Y-10696680D02*
X18252797Y-10687156D01*
X18252797Y-10687156D02*
X18281369Y-10687156D01*
X18281369Y-10687156D02*
X18300417Y-10696680D01*
X18300417Y-10696680D02*
X18309940Y-10706204D01*
X18309940Y-10706204D02*
X18319464Y-10725252D01*
X18319464Y-10725252D02*
X18319464Y-10782394D01*
X18319464Y-10782394D02*
X18309940Y-10801442D01*
X18309940Y-10801442D02*
X18300417Y-10810966D01*
X18300417Y-10810966D02*
X18281369Y-10820490D01*
X18281369Y-10820490D02*
X18252797Y-10820490D01*
X18433750Y-10820490D02*
X18414702Y-10810966D01*
X18414702Y-10810966D02*
X18405178Y-10791918D01*
X18405178Y-10791918D02*
X18405178Y-10620490D01*
X18586131Y-10810966D02*
X18567083Y-10820490D01*
X18567083Y-10820490D02*
X18528988Y-10820490D01*
X18528988Y-10820490D02*
X18509940Y-10810966D01*
X18509940Y-10810966D02*
X18500417Y-10791918D01*
X18500417Y-10791918D02*
X18500417Y-10715728D01*
X18500417Y-10715728D02*
X18509940Y-10696680D01*
X18509940Y-10696680D02*
X18528988Y-10687156D01*
X18528988Y-10687156D02*
X18567083Y-10687156D01*
X18567083Y-10687156D02*
X18586131Y-10696680D01*
X18586131Y-10696680D02*
X18595655Y-10715728D01*
X18595655Y-10715728D02*
X18595655Y-10734775D01*
X18595655Y-10734775D02*
X18500417Y-10753823D01*
X18671845Y-10810966D02*
X18690893Y-10820490D01*
X18690893Y-10820490D02*
X18728988Y-10820490D01*
X18728988Y-10820490D02*
X18748036Y-10810966D01*
X18748036Y-10810966D02*
X18757559Y-10791918D01*
X18757559Y-10791918D02*
X18757559Y-10782394D01*
X18757559Y-10782394D02*
X18748036Y-10763347D01*
X18748036Y-10763347D02*
X18728988Y-10753823D01*
X18728988Y-10753823D02*
X18700417Y-10753823D01*
X18700417Y-10753823D02*
X18681369Y-10744299D01*
X18681369Y-10744299D02*
X18671845Y-10725252D01*
X18671845Y-10725252D02*
X18671845Y-10715728D01*
X18671845Y-10715728D02*
X18681369Y-10696680D01*
X18681369Y-10696680D02*
X18700417Y-10687156D01*
X18700417Y-10687156D02*
X18728988Y-10687156D01*
X18728988Y-10687156D02*
X18748036Y-10696680D01*
X18824226Y-10896680D02*
X18833750Y-10887156D01*
X18833750Y-10887156D02*
X18852798Y-10858585D01*
X18852798Y-10858585D02*
X18862321Y-10839537D01*
X18862321Y-10839537D02*
X18871845Y-10810966D01*
X18871845Y-10810966D02*
X18881369Y-10763347D01*
X18881369Y-10763347D02*
X18881369Y-10725252D01*
X18881369Y-10725252D02*
X18871845Y-10677633D01*
X18871845Y-10677633D02*
X18862321Y-10649061D01*
X18862321Y-10649061D02*
X18852798Y-10630014D01*
X18852798Y-10630014D02*
X18833750Y-10601442D01*
X18833750Y-10601442D02*
X18824226Y-10591918D01*
D12*
X13668211Y-10993006D02*
G75*
G02*
X13638211Y-10993006I-15000J0D01*
G01*
X13638211Y-10993006D02*
G75*
G02*
X13668211Y-10993006I15000J0D01*
G01*
D11*
X13967083Y-10884490D02*
X13986130Y-10884490D01*
X13986130Y-10884490D02*
X14005178Y-10894014D01*
X14005178Y-10894014D02*
X14014702Y-10903537D01*
X14014702Y-10903537D02*
X14024226Y-10922585D01*
X14024226Y-10922585D02*
X14033749Y-10960680D01*
X14033749Y-10960680D02*
X14033749Y-11008299D01*
X14033749Y-11008299D02*
X14024226Y-11046394D01*
X14024226Y-11046394D02*
X14014702Y-11065442D01*
X14014702Y-11065442D02*
X14005178Y-11074966D01*
X14005178Y-11074966D02*
X13986130Y-11084490D01*
X13986130Y-11084490D02*
X13967083Y-11084490D01*
X13967083Y-11084490D02*
X13948035Y-11074966D01*
X13948035Y-11074966D02*
X13938511Y-11065442D01*
X13938511Y-11065442D02*
X13928987Y-11046394D01*
X13928987Y-11046394D02*
X13919464Y-11008299D01*
X13919464Y-11008299D02*
X13919464Y-10960680D01*
X13919464Y-10960680D02*
X13928987Y-10922585D01*
X13928987Y-10922585D02*
X13938511Y-10903537D01*
X13938511Y-10903537D02*
X13948035Y-10894014D01*
X13948035Y-10894014D02*
X13967083Y-10884490D01*
X14119464Y-11065442D02*
X14128987Y-11074966D01*
X14128987Y-11074966D02*
X14119464Y-11084490D01*
X14119464Y-11084490D02*
X14109940Y-11074966D01*
X14109940Y-11074966D02*
X14119464Y-11065442D01*
X14119464Y-11065442D02*
X14119464Y-11084490D01*
X14195654Y-10884490D02*
X14319464Y-10884490D01*
X14319464Y-10884490D02*
X14252797Y-10960680D01*
X14252797Y-10960680D02*
X14281368Y-10960680D01*
X14281368Y-10960680D02*
X14300416Y-10970204D01*
X14300416Y-10970204D02*
X14309940Y-10979728D01*
X14309940Y-10979728D02*
X14319464Y-10998775D01*
X14319464Y-10998775D02*
X14319464Y-11046394D01*
X14319464Y-11046394D02*
X14309940Y-11065442D01*
X14309940Y-11065442D02*
X14300416Y-11074966D01*
X14300416Y-11074966D02*
X14281368Y-11084490D01*
X14281368Y-11084490D02*
X14224226Y-11084490D01*
X14224226Y-11084490D02*
X14205178Y-11074966D01*
X14205178Y-11074966D02*
X14195654Y-11065442D01*
X14443273Y-10884490D02*
X14462321Y-10884490D01*
X14462321Y-10884490D02*
X14481368Y-10894014D01*
X14481368Y-10894014D02*
X14490892Y-10903537D01*
X14490892Y-10903537D02*
X14500416Y-10922585D01*
X14500416Y-10922585D02*
X14509940Y-10960680D01*
X14509940Y-10960680D02*
X14509940Y-11008299D01*
X14509940Y-11008299D02*
X14500416Y-11046394D01*
X14500416Y-11046394D02*
X14490892Y-11065442D01*
X14490892Y-11065442D02*
X14481368Y-11074966D01*
X14481368Y-11074966D02*
X14462321Y-11084490D01*
X14462321Y-11084490D02*
X14443273Y-11084490D01*
X14443273Y-11084490D02*
X14424226Y-11074966D01*
X14424226Y-11074966D02*
X14414702Y-11065442D01*
X14414702Y-11065442D02*
X14405178Y-11046394D01*
X14405178Y-11046394D02*
X14395654Y-11008299D01*
X14395654Y-11008299D02*
X14395654Y-10960680D01*
X14395654Y-10960680D02*
X14405178Y-10922585D01*
X14405178Y-10922585D02*
X14414702Y-10903537D01*
X14414702Y-10903537D02*
X14424226Y-10894014D01*
X14424226Y-10894014D02*
X14443273Y-10884490D01*
X14633749Y-10884490D02*
X14652797Y-10884490D01*
X14652797Y-10884490D02*
X14671845Y-10894014D01*
X14671845Y-10894014D02*
X14681368Y-10903537D01*
X14681368Y-10903537D02*
X14690892Y-10922585D01*
X14690892Y-10922585D02*
X14700416Y-10960680D01*
X14700416Y-10960680D02*
X14700416Y-11008299D01*
X14700416Y-11008299D02*
X14690892Y-11046394D01*
X14690892Y-11046394D02*
X14681368Y-11065442D01*
X14681368Y-11065442D02*
X14671845Y-11074966D01*
X14671845Y-11074966D02*
X14652797Y-11084490D01*
X14652797Y-11084490D02*
X14633749Y-11084490D01*
X14633749Y-11084490D02*
X14614702Y-11074966D01*
X14614702Y-11074966D02*
X14605178Y-11065442D01*
X14605178Y-11065442D02*
X14595654Y-11046394D01*
X14595654Y-11046394D02*
X14586130Y-11008299D01*
X14586130Y-11008299D02*
X14586130Y-10960680D01*
X14586130Y-10960680D02*
X14595654Y-10922585D01*
X14595654Y-10922585D02*
X14605178Y-10903537D01*
X14605178Y-10903537D02*
X14614702Y-10894014D01*
X14614702Y-10894014D02*
X14633749Y-10884490D01*
X14786130Y-11084490D02*
X14786130Y-10951156D01*
X14786130Y-10970204D02*
X14795654Y-10960680D01*
X14795654Y-10960680D02*
X14814702Y-10951156D01*
X14814702Y-10951156D02*
X14843273Y-10951156D01*
X14843273Y-10951156D02*
X14862321Y-10960680D01*
X14862321Y-10960680D02*
X14871845Y-10979728D01*
X14871845Y-10979728D02*
X14871845Y-11084490D01*
X14871845Y-10979728D02*
X14881368Y-10960680D01*
X14881368Y-10960680D02*
X14900416Y-10951156D01*
X14900416Y-10951156D02*
X14928987Y-10951156D01*
X14928987Y-10951156D02*
X14948035Y-10960680D01*
X14948035Y-10960680D02*
X14957559Y-10979728D01*
X14957559Y-10979728D02*
X14957559Y-11084490D01*
X15052797Y-11084490D02*
X15052797Y-10951156D01*
X15052797Y-10970204D02*
X15062321Y-10960680D01*
X15062321Y-10960680D02*
X15081368Y-10951156D01*
X15081368Y-10951156D02*
X15109940Y-10951156D01*
X15109940Y-10951156D02*
X15128988Y-10960680D01*
X15128988Y-10960680D02*
X15138511Y-10979728D01*
X15138511Y-10979728D02*
X15138511Y-11084490D01*
X15138511Y-10979728D02*
X15148035Y-10960680D01*
X15148035Y-10960680D02*
X15167083Y-10951156D01*
X15167083Y-10951156D02*
X15195654Y-10951156D01*
X15195654Y-10951156D02*
X15214702Y-10960680D01*
X15214702Y-10960680D02*
X15224226Y-10979728D01*
X15224226Y-10979728D02*
X15224226Y-11084490D01*
X15614702Y-10874966D02*
X15443273Y-11132109D01*
X15871845Y-10884490D02*
X15890892Y-10884490D01*
X15890892Y-10884490D02*
X15909940Y-10894014D01*
X15909940Y-10894014D02*
X15919464Y-10903537D01*
X15919464Y-10903537D02*
X15928988Y-10922585D01*
X15928988Y-10922585D02*
X15938511Y-10960680D01*
X15938511Y-10960680D02*
X15938511Y-11008299D01*
X15938511Y-11008299D02*
X15928988Y-11046394D01*
X15928988Y-11046394D02*
X15919464Y-11065442D01*
X15919464Y-11065442D02*
X15909940Y-11074966D01*
X15909940Y-11074966D02*
X15890892Y-11084490D01*
X15890892Y-11084490D02*
X15871845Y-11084490D01*
X15871845Y-11084490D02*
X15852797Y-11074966D01*
X15852797Y-11074966D02*
X15843273Y-11065442D01*
X15843273Y-11065442D02*
X15833750Y-11046394D01*
X15833750Y-11046394D02*
X15824226Y-11008299D01*
X15824226Y-11008299D02*
X15824226Y-10960680D01*
X15824226Y-10960680D02*
X15833750Y-10922585D01*
X15833750Y-10922585D02*
X15843273Y-10903537D01*
X15843273Y-10903537D02*
X15852797Y-10894014D01*
X15852797Y-10894014D02*
X15871845Y-10884490D01*
X16024226Y-11065442D02*
X16033750Y-11074966D01*
X16033750Y-11074966D02*
X16024226Y-11084490D01*
X16024226Y-11084490D02*
X16014702Y-11074966D01*
X16014702Y-11074966D02*
X16024226Y-11065442D01*
X16024226Y-11065442D02*
X16024226Y-11084490D01*
X16157559Y-10884490D02*
X16176607Y-10884490D01*
X16176607Y-10884490D02*
X16195654Y-10894014D01*
X16195654Y-10894014D02*
X16205178Y-10903537D01*
X16205178Y-10903537D02*
X16214702Y-10922585D01*
X16214702Y-10922585D02*
X16224226Y-10960680D01*
X16224226Y-10960680D02*
X16224226Y-11008299D01*
X16224226Y-11008299D02*
X16214702Y-11046394D01*
X16214702Y-11046394D02*
X16205178Y-11065442D01*
X16205178Y-11065442D02*
X16195654Y-11074966D01*
X16195654Y-11074966D02*
X16176607Y-11084490D01*
X16176607Y-11084490D02*
X16157559Y-11084490D01*
X16157559Y-11084490D02*
X16138511Y-11074966D01*
X16138511Y-11074966D02*
X16128988Y-11065442D01*
X16128988Y-11065442D02*
X16119464Y-11046394D01*
X16119464Y-11046394D02*
X16109940Y-11008299D01*
X16109940Y-11008299D02*
X16109940Y-10960680D01*
X16109940Y-10960680D02*
X16119464Y-10922585D01*
X16119464Y-10922585D02*
X16128988Y-10903537D01*
X16128988Y-10903537D02*
X16138511Y-10894014D01*
X16138511Y-10894014D02*
X16157559Y-10884490D01*
X16414702Y-11084490D02*
X16300416Y-11084490D01*
X16357559Y-11084490D02*
X16357559Y-10884490D01*
X16357559Y-10884490D02*
X16338511Y-10913061D01*
X16338511Y-10913061D02*
X16319464Y-10932109D01*
X16319464Y-10932109D02*
X16300416Y-10941633D01*
X16605178Y-11084490D02*
X16490892Y-11084490D01*
X16548035Y-11084490D02*
X16548035Y-10884490D01*
X16548035Y-10884490D02*
X16528988Y-10913061D01*
X16528988Y-10913061D02*
X16509940Y-10932109D01*
X16509940Y-10932109D02*
X16490892Y-10941633D01*
X16719464Y-10970204D02*
X16700416Y-10960680D01*
X16700416Y-10960680D02*
X16690892Y-10951156D01*
X16690892Y-10951156D02*
X16681369Y-10932109D01*
X16681369Y-10932109D02*
X16681369Y-10922585D01*
X16681369Y-10922585D02*
X16690892Y-10903537D01*
X16690892Y-10903537D02*
X16700416Y-10894014D01*
X16700416Y-10894014D02*
X16719464Y-10884490D01*
X16719464Y-10884490D02*
X16757559Y-10884490D01*
X16757559Y-10884490D02*
X16776607Y-10894014D01*
X16776607Y-10894014D02*
X16786131Y-10903537D01*
X16786131Y-10903537D02*
X16795654Y-10922585D01*
X16795654Y-10922585D02*
X16795654Y-10932109D01*
X16795654Y-10932109D02*
X16786131Y-10951156D01*
X16786131Y-10951156D02*
X16776607Y-10960680D01*
X16776607Y-10960680D02*
X16757559Y-10970204D01*
X16757559Y-10970204D02*
X16719464Y-10970204D01*
X16719464Y-10970204D02*
X16700416Y-10979728D01*
X16700416Y-10979728D02*
X16690892Y-10989252D01*
X16690892Y-10989252D02*
X16681369Y-11008299D01*
X16681369Y-11008299D02*
X16681369Y-11046394D01*
X16681369Y-11046394D02*
X16690892Y-11065442D01*
X16690892Y-11065442D02*
X16700416Y-11074966D01*
X16700416Y-11074966D02*
X16719464Y-11084490D01*
X16719464Y-11084490D02*
X16757559Y-11084490D01*
X16757559Y-11084490D02*
X16776607Y-11074966D01*
X16776607Y-11074966D02*
X16786131Y-11065442D01*
X16786131Y-11065442D02*
X16795654Y-11046394D01*
X16795654Y-11046394D02*
X16795654Y-11008299D01*
X16795654Y-11008299D02*
X16786131Y-10989252D01*
X16786131Y-10989252D02*
X16776607Y-10979728D01*
X16776607Y-10979728D02*
X16757559Y-10970204D01*
X16871845Y-10884490D02*
X16871845Y-10922585D01*
X16948035Y-10884490D02*
X16948035Y-10922585D01*
X17243274Y-11160680D02*
X17233750Y-11151156D01*
X17233750Y-11151156D02*
X17214702Y-11122585D01*
X17214702Y-11122585D02*
X17205178Y-11103537D01*
X17205178Y-11103537D02*
X17195655Y-11074966D01*
X17195655Y-11074966D02*
X17186131Y-11027347D01*
X17186131Y-11027347D02*
X17186131Y-10989252D01*
X17186131Y-10989252D02*
X17195655Y-10941633D01*
X17195655Y-10941633D02*
X17205178Y-10913061D01*
X17205178Y-10913061D02*
X17214702Y-10894014D01*
X17214702Y-10894014D02*
X17233750Y-10865442D01*
X17233750Y-10865442D02*
X17243274Y-10855918D01*
X17414702Y-10884490D02*
X17319464Y-10884490D01*
X17319464Y-10884490D02*
X17309940Y-10979728D01*
X17309940Y-10979728D02*
X17319464Y-10970204D01*
X17319464Y-10970204D02*
X17338512Y-10960680D01*
X17338512Y-10960680D02*
X17386131Y-10960680D01*
X17386131Y-10960680D02*
X17405178Y-10970204D01*
X17405178Y-10970204D02*
X17414702Y-10979728D01*
X17414702Y-10979728D02*
X17424226Y-10998775D01*
X17424226Y-10998775D02*
X17424226Y-11046394D01*
X17424226Y-11046394D02*
X17414702Y-11065442D01*
X17414702Y-11065442D02*
X17405178Y-11074966D01*
X17405178Y-11074966D02*
X17386131Y-11084490D01*
X17386131Y-11084490D02*
X17338512Y-11084490D01*
X17338512Y-11084490D02*
X17319464Y-11074966D01*
X17319464Y-11074966D02*
X17309940Y-11065442D01*
X17662321Y-11084490D02*
X17662321Y-10884490D01*
X17748036Y-11084490D02*
X17748036Y-10979728D01*
X17748036Y-10979728D02*
X17738512Y-10960680D01*
X17738512Y-10960680D02*
X17719464Y-10951156D01*
X17719464Y-10951156D02*
X17690893Y-10951156D01*
X17690893Y-10951156D02*
X17671845Y-10960680D01*
X17671845Y-10960680D02*
X17662321Y-10970204D01*
X17871845Y-11084490D02*
X17852797Y-11074966D01*
X17852797Y-11074966D02*
X17843274Y-11065442D01*
X17843274Y-11065442D02*
X17833750Y-11046394D01*
X17833750Y-11046394D02*
X17833750Y-10989252D01*
X17833750Y-10989252D02*
X17843274Y-10970204D01*
X17843274Y-10970204D02*
X17852797Y-10960680D01*
X17852797Y-10960680D02*
X17871845Y-10951156D01*
X17871845Y-10951156D02*
X17900417Y-10951156D01*
X17900417Y-10951156D02*
X17919464Y-10960680D01*
X17919464Y-10960680D02*
X17928988Y-10970204D01*
X17928988Y-10970204D02*
X17938512Y-10989252D01*
X17938512Y-10989252D02*
X17938512Y-11046394D01*
X17938512Y-11046394D02*
X17928988Y-11065442D01*
X17928988Y-11065442D02*
X17919464Y-11074966D01*
X17919464Y-11074966D02*
X17900417Y-11084490D01*
X17900417Y-11084490D02*
X17871845Y-11084490D01*
X18052797Y-11084490D02*
X18033750Y-11074966D01*
X18033750Y-11074966D02*
X18024226Y-11055918D01*
X18024226Y-11055918D02*
X18024226Y-10884490D01*
X18205178Y-11074966D02*
X18186131Y-11084490D01*
X18186131Y-11084490D02*
X18148036Y-11084490D01*
X18148036Y-11084490D02*
X18128988Y-11074966D01*
X18128988Y-11074966D02*
X18119464Y-11055918D01*
X18119464Y-11055918D02*
X18119464Y-10979728D01*
X18119464Y-10979728D02*
X18128988Y-10960680D01*
X18128988Y-10960680D02*
X18148036Y-10951156D01*
X18148036Y-10951156D02*
X18186131Y-10951156D01*
X18186131Y-10951156D02*
X18205178Y-10960680D01*
X18205178Y-10960680D02*
X18214702Y-10979728D01*
X18214702Y-10979728D02*
X18214702Y-10998775D01*
X18214702Y-10998775D02*
X18119464Y-11017823D01*
X18290893Y-11074966D02*
X18309940Y-11084490D01*
X18309940Y-11084490D02*
X18348036Y-11084490D01*
X18348036Y-11084490D02*
X18367083Y-11074966D01*
X18367083Y-11074966D02*
X18376607Y-11055918D01*
X18376607Y-11055918D02*
X18376607Y-11046394D01*
X18376607Y-11046394D02*
X18367083Y-11027347D01*
X18367083Y-11027347D02*
X18348036Y-11017823D01*
X18348036Y-11017823D02*
X18319464Y-11017823D01*
X18319464Y-11017823D02*
X18300417Y-11008299D01*
X18300417Y-11008299D02*
X18290893Y-10989252D01*
X18290893Y-10989252D02*
X18290893Y-10979728D01*
X18290893Y-10979728D02*
X18300417Y-10960680D01*
X18300417Y-10960680D02*
X18319464Y-10951156D01*
X18319464Y-10951156D02*
X18348036Y-10951156D01*
X18348036Y-10951156D02*
X18367083Y-10960680D01*
X18443274Y-11160680D02*
X18452798Y-11151156D01*
X18452798Y-11151156D02*
X18471845Y-11122585D01*
X18471845Y-11122585D02*
X18481369Y-11103537D01*
X18481369Y-11103537D02*
X18490893Y-11074966D01*
X18490893Y-11074966D02*
X18500417Y-11027347D01*
X18500417Y-11027347D02*
X18500417Y-10989252D01*
X18500417Y-10989252D02*
X18490893Y-10941633D01*
X18490893Y-10941633D02*
X18481369Y-10913061D01*
X18481369Y-10913061D02*
X18471845Y-10894014D01*
X18471845Y-10894014D02*
X18452798Y-10865442D01*
X18452798Y-10865442D02*
X18443274Y-10855918D01*
D12*
X13638211Y-11227006D02*
X13638211Y-11287006D01*
X13608211Y-11257006D02*
X13668211Y-11257006D01*
D11*
X13967083Y-11148490D02*
X13986130Y-11148490D01*
X13986130Y-11148490D02*
X14005178Y-11158014D01*
X14005178Y-11158014D02*
X14014702Y-11167537D01*
X14014702Y-11167537D02*
X14024226Y-11186585D01*
X14024226Y-11186585D02*
X14033749Y-11224680D01*
X14033749Y-11224680D02*
X14033749Y-11272299D01*
X14033749Y-11272299D02*
X14024226Y-11310394D01*
X14024226Y-11310394D02*
X14014702Y-11329442D01*
X14014702Y-11329442D02*
X14005178Y-11338966D01*
X14005178Y-11338966D02*
X13986130Y-11348490D01*
X13986130Y-11348490D02*
X13967083Y-11348490D01*
X13967083Y-11348490D02*
X13948035Y-11338966D01*
X13948035Y-11338966D02*
X13938511Y-11329442D01*
X13938511Y-11329442D02*
X13928987Y-11310394D01*
X13928987Y-11310394D02*
X13919464Y-11272299D01*
X13919464Y-11272299D02*
X13919464Y-11224680D01*
X13919464Y-11224680D02*
X13928987Y-11186585D01*
X13928987Y-11186585D02*
X13938511Y-11167537D01*
X13938511Y-11167537D02*
X13948035Y-11158014D01*
X13948035Y-11158014D02*
X13967083Y-11148490D01*
X14119464Y-11329442D02*
X14128987Y-11338966D01*
X14128987Y-11338966D02*
X14119464Y-11348490D01*
X14119464Y-11348490D02*
X14109940Y-11338966D01*
X14109940Y-11338966D02*
X14119464Y-11329442D01*
X14119464Y-11329442D02*
X14119464Y-11348490D01*
X14300416Y-11148490D02*
X14262321Y-11148490D01*
X14262321Y-11148490D02*
X14243273Y-11158014D01*
X14243273Y-11158014D02*
X14233749Y-11167537D01*
X14233749Y-11167537D02*
X14214702Y-11196109D01*
X14214702Y-11196109D02*
X14205178Y-11234204D01*
X14205178Y-11234204D02*
X14205178Y-11310394D01*
X14205178Y-11310394D02*
X14214702Y-11329442D01*
X14214702Y-11329442D02*
X14224226Y-11338966D01*
X14224226Y-11338966D02*
X14243273Y-11348490D01*
X14243273Y-11348490D02*
X14281368Y-11348490D01*
X14281368Y-11348490D02*
X14300416Y-11338966D01*
X14300416Y-11338966D02*
X14309940Y-11329442D01*
X14309940Y-11329442D02*
X14319464Y-11310394D01*
X14319464Y-11310394D02*
X14319464Y-11262775D01*
X14319464Y-11262775D02*
X14309940Y-11243728D01*
X14309940Y-11243728D02*
X14300416Y-11234204D01*
X14300416Y-11234204D02*
X14281368Y-11224680D01*
X14281368Y-11224680D02*
X14243273Y-11224680D01*
X14243273Y-11224680D02*
X14224226Y-11234204D01*
X14224226Y-11234204D02*
X14214702Y-11243728D01*
X14214702Y-11243728D02*
X14205178Y-11262775D01*
X14443273Y-11148490D02*
X14462321Y-11148490D01*
X14462321Y-11148490D02*
X14481368Y-11158014D01*
X14481368Y-11158014D02*
X14490892Y-11167537D01*
X14490892Y-11167537D02*
X14500416Y-11186585D01*
X14500416Y-11186585D02*
X14509940Y-11224680D01*
X14509940Y-11224680D02*
X14509940Y-11272299D01*
X14509940Y-11272299D02*
X14500416Y-11310394D01*
X14500416Y-11310394D02*
X14490892Y-11329442D01*
X14490892Y-11329442D02*
X14481368Y-11338966D01*
X14481368Y-11338966D02*
X14462321Y-11348490D01*
X14462321Y-11348490D02*
X14443273Y-11348490D01*
X14443273Y-11348490D02*
X14424226Y-11338966D01*
X14424226Y-11338966D02*
X14414702Y-11329442D01*
X14414702Y-11329442D02*
X14405178Y-11310394D01*
X14405178Y-11310394D02*
X14395654Y-11272299D01*
X14395654Y-11272299D02*
X14395654Y-11224680D01*
X14395654Y-11224680D02*
X14405178Y-11186585D01*
X14405178Y-11186585D02*
X14414702Y-11167537D01*
X14414702Y-11167537D02*
X14424226Y-11158014D01*
X14424226Y-11158014D02*
X14443273Y-11148490D01*
X14633749Y-11148490D02*
X14652797Y-11148490D01*
X14652797Y-11148490D02*
X14671845Y-11158014D01*
X14671845Y-11158014D02*
X14681368Y-11167537D01*
X14681368Y-11167537D02*
X14690892Y-11186585D01*
X14690892Y-11186585D02*
X14700416Y-11224680D01*
X14700416Y-11224680D02*
X14700416Y-11272299D01*
X14700416Y-11272299D02*
X14690892Y-11310394D01*
X14690892Y-11310394D02*
X14681368Y-11329442D01*
X14681368Y-11329442D02*
X14671845Y-11338966D01*
X14671845Y-11338966D02*
X14652797Y-11348490D01*
X14652797Y-11348490D02*
X14633749Y-11348490D01*
X14633749Y-11348490D02*
X14614702Y-11338966D01*
X14614702Y-11338966D02*
X14605178Y-11329442D01*
X14605178Y-11329442D02*
X14595654Y-11310394D01*
X14595654Y-11310394D02*
X14586130Y-11272299D01*
X14586130Y-11272299D02*
X14586130Y-11224680D01*
X14586130Y-11224680D02*
X14595654Y-11186585D01*
X14595654Y-11186585D02*
X14605178Y-11167537D01*
X14605178Y-11167537D02*
X14614702Y-11158014D01*
X14614702Y-11158014D02*
X14633749Y-11148490D01*
X14786130Y-11348490D02*
X14786130Y-11215156D01*
X14786130Y-11234204D02*
X14795654Y-11224680D01*
X14795654Y-11224680D02*
X14814702Y-11215156D01*
X14814702Y-11215156D02*
X14843273Y-11215156D01*
X14843273Y-11215156D02*
X14862321Y-11224680D01*
X14862321Y-11224680D02*
X14871845Y-11243728D01*
X14871845Y-11243728D02*
X14871845Y-11348490D01*
X14871845Y-11243728D02*
X14881368Y-11224680D01*
X14881368Y-11224680D02*
X14900416Y-11215156D01*
X14900416Y-11215156D02*
X14928987Y-11215156D01*
X14928987Y-11215156D02*
X14948035Y-11224680D01*
X14948035Y-11224680D02*
X14957559Y-11243728D01*
X14957559Y-11243728D02*
X14957559Y-11348490D01*
X15052797Y-11348490D02*
X15052797Y-11215156D01*
X15052797Y-11234204D02*
X15062321Y-11224680D01*
X15062321Y-11224680D02*
X15081368Y-11215156D01*
X15081368Y-11215156D02*
X15109940Y-11215156D01*
X15109940Y-11215156D02*
X15128988Y-11224680D01*
X15128988Y-11224680D02*
X15138511Y-11243728D01*
X15138511Y-11243728D02*
X15138511Y-11348490D01*
X15138511Y-11243728D02*
X15148035Y-11224680D01*
X15148035Y-11224680D02*
X15167083Y-11215156D01*
X15167083Y-11215156D02*
X15195654Y-11215156D01*
X15195654Y-11215156D02*
X15214702Y-11224680D01*
X15214702Y-11224680D02*
X15224226Y-11243728D01*
X15224226Y-11243728D02*
X15224226Y-11348490D01*
X15614702Y-11138966D02*
X15443273Y-11396109D01*
X15871845Y-11148490D02*
X15890892Y-11148490D01*
X15890892Y-11148490D02*
X15909940Y-11158014D01*
X15909940Y-11158014D02*
X15919464Y-11167537D01*
X15919464Y-11167537D02*
X15928988Y-11186585D01*
X15928988Y-11186585D02*
X15938511Y-11224680D01*
X15938511Y-11224680D02*
X15938511Y-11272299D01*
X15938511Y-11272299D02*
X15928988Y-11310394D01*
X15928988Y-11310394D02*
X15919464Y-11329442D01*
X15919464Y-11329442D02*
X15909940Y-11338966D01*
X15909940Y-11338966D02*
X15890892Y-11348490D01*
X15890892Y-11348490D02*
X15871845Y-11348490D01*
X15871845Y-11348490D02*
X15852797Y-11338966D01*
X15852797Y-11338966D02*
X15843273Y-11329442D01*
X15843273Y-11329442D02*
X15833750Y-11310394D01*
X15833750Y-11310394D02*
X15824226Y-11272299D01*
X15824226Y-11272299D02*
X15824226Y-11224680D01*
X15824226Y-11224680D02*
X15833750Y-11186585D01*
X15833750Y-11186585D02*
X15843273Y-11167537D01*
X15843273Y-11167537D02*
X15852797Y-11158014D01*
X15852797Y-11158014D02*
X15871845Y-11148490D01*
X16024226Y-11329442D02*
X16033750Y-11338966D01*
X16033750Y-11338966D02*
X16024226Y-11348490D01*
X16024226Y-11348490D02*
X16014702Y-11338966D01*
X16014702Y-11338966D02*
X16024226Y-11329442D01*
X16024226Y-11329442D02*
X16024226Y-11348490D01*
X16157559Y-11148490D02*
X16176607Y-11148490D01*
X16176607Y-11148490D02*
X16195654Y-11158014D01*
X16195654Y-11158014D02*
X16205178Y-11167537D01*
X16205178Y-11167537D02*
X16214702Y-11186585D01*
X16214702Y-11186585D02*
X16224226Y-11224680D01*
X16224226Y-11224680D02*
X16224226Y-11272299D01*
X16224226Y-11272299D02*
X16214702Y-11310394D01*
X16214702Y-11310394D02*
X16205178Y-11329442D01*
X16205178Y-11329442D02*
X16195654Y-11338966D01*
X16195654Y-11338966D02*
X16176607Y-11348490D01*
X16176607Y-11348490D02*
X16157559Y-11348490D01*
X16157559Y-11348490D02*
X16138511Y-11338966D01*
X16138511Y-11338966D02*
X16128988Y-11329442D01*
X16128988Y-11329442D02*
X16119464Y-11310394D01*
X16119464Y-11310394D02*
X16109940Y-11272299D01*
X16109940Y-11272299D02*
X16109940Y-11224680D01*
X16109940Y-11224680D02*
X16119464Y-11186585D01*
X16119464Y-11186585D02*
X16128988Y-11167537D01*
X16128988Y-11167537D02*
X16138511Y-11158014D01*
X16138511Y-11158014D02*
X16157559Y-11148490D01*
X16300416Y-11167537D02*
X16309940Y-11158014D01*
X16309940Y-11158014D02*
X16328988Y-11148490D01*
X16328988Y-11148490D02*
X16376607Y-11148490D01*
X16376607Y-11148490D02*
X16395654Y-11158014D01*
X16395654Y-11158014D02*
X16405178Y-11167537D01*
X16405178Y-11167537D02*
X16414702Y-11186585D01*
X16414702Y-11186585D02*
X16414702Y-11205632D01*
X16414702Y-11205632D02*
X16405178Y-11234204D01*
X16405178Y-11234204D02*
X16290892Y-11348490D01*
X16290892Y-11348490D02*
X16414702Y-11348490D01*
X16481369Y-11148490D02*
X16605178Y-11148490D01*
X16605178Y-11148490D02*
X16538511Y-11224680D01*
X16538511Y-11224680D02*
X16567083Y-11224680D01*
X16567083Y-11224680D02*
X16586131Y-11234204D01*
X16586131Y-11234204D02*
X16595654Y-11243728D01*
X16595654Y-11243728D02*
X16605178Y-11262775D01*
X16605178Y-11262775D02*
X16605178Y-11310394D01*
X16605178Y-11310394D02*
X16595654Y-11329442D01*
X16595654Y-11329442D02*
X16586131Y-11338966D01*
X16586131Y-11338966D02*
X16567083Y-11348490D01*
X16567083Y-11348490D02*
X16509940Y-11348490D01*
X16509940Y-11348490D02*
X16490892Y-11338966D01*
X16490892Y-11338966D02*
X16481369Y-11329442D01*
X16776607Y-11148490D02*
X16738511Y-11148490D01*
X16738511Y-11148490D02*
X16719464Y-11158014D01*
X16719464Y-11158014D02*
X16709940Y-11167537D01*
X16709940Y-11167537D02*
X16690892Y-11196109D01*
X16690892Y-11196109D02*
X16681369Y-11234204D01*
X16681369Y-11234204D02*
X16681369Y-11310394D01*
X16681369Y-11310394D02*
X16690892Y-11329442D01*
X16690892Y-11329442D02*
X16700416Y-11338966D01*
X16700416Y-11338966D02*
X16719464Y-11348490D01*
X16719464Y-11348490D02*
X16757559Y-11348490D01*
X16757559Y-11348490D02*
X16776607Y-11338966D01*
X16776607Y-11338966D02*
X16786131Y-11329442D01*
X16786131Y-11329442D02*
X16795654Y-11310394D01*
X16795654Y-11310394D02*
X16795654Y-11262775D01*
X16795654Y-11262775D02*
X16786131Y-11243728D01*
X16786131Y-11243728D02*
X16776607Y-11234204D01*
X16776607Y-11234204D02*
X16757559Y-11224680D01*
X16757559Y-11224680D02*
X16719464Y-11224680D01*
X16719464Y-11224680D02*
X16700416Y-11234204D01*
X16700416Y-11234204D02*
X16690892Y-11243728D01*
X16690892Y-11243728D02*
X16681369Y-11262775D01*
X16871845Y-11148490D02*
X16871845Y-11186585D01*
X16948035Y-11148490D02*
X16948035Y-11186585D01*
X17243274Y-11424680D02*
X17233750Y-11415156D01*
X17233750Y-11415156D02*
X17214702Y-11386585D01*
X17214702Y-11386585D02*
X17205178Y-11367537D01*
X17205178Y-11367537D02*
X17195655Y-11338966D01*
X17195655Y-11338966D02*
X17186131Y-11291347D01*
X17186131Y-11291347D02*
X17186131Y-11253252D01*
X17186131Y-11253252D02*
X17195655Y-11205632D01*
X17195655Y-11205632D02*
X17205178Y-11177061D01*
X17205178Y-11177061D02*
X17214702Y-11158014D01*
X17214702Y-11158014D02*
X17233750Y-11129442D01*
X17233750Y-11129442D02*
X17243274Y-11119918D01*
X17357559Y-11148490D02*
X17376607Y-11148490D01*
X17376607Y-11148490D02*
X17395655Y-11158014D01*
X17395655Y-11158014D02*
X17405178Y-11167537D01*
X17405178Y-11167537D02*
X17414702Y-11186585D01*
X17414702Y-11186585D02*
X17424226Y-11224680D01*
X17424226Y-11224680D02*
X17424226Y-11272299D01*
X17424226Y-11272299D02*
X17414702Y-11310394D01*
X17414702Y-11310394D02*
X17405178Y-11329442D01*
X17405178Y-11329442D02*
X17395655Y-11338966D01*
X17395655Y-11338966D02*
X17376607Y-11348490D01*
X17376607Y-11348490D02*
X17357559Y-11348490D01*
X17357559Y-11348490D02*
X17338512Y-11338966D01*
X17338512Y-11338966D02*
X17328988Y-11329442D01*
X17328988Y-11329442D02*
X17319464Y-11310394D01*
X17319464Y-11310394D02*
X17309940Y-11272299D01*
X17309940Y-11272299D02*
X17309940Y-11224680D01*
X17309940Y-11224680D02*
X17319464Y-11186585D01*
X17319464Y-11186585D02*
X17328988Y-11167537D01*
X17328988Y-11167537D02*
X17338512Y-11158014D01*
X17338512Y-11158014D02*
X17357559Y-11148490D01*
X17662321Y-11348490D02*
X17662321Y-11148490D01*
X17748036Y-11348490D02*
X17748036Y-11243728D01*
X17748036Y-11243728D02*
X17738512Y-11224680D01*
X17738512Y-11224680D02*
X17719464Y-11215156D01*
X17719464Y-11215156D02*
X17690893Y-11215156D01*
X17690893Y-11215156D02*
X17671845Y-11224680D01*
X17671845Y-11224680D02*
X17662321Y-11234204D01*
X17871845Y-11348490D02*
X17852797Y-11338966D01*
X17852797Y-11338966D02*
X17843274Y-11329442D01*
X17843274Y-11329442D02*
X17833750Y-11310394D01*
X17833750Y-11310394D02*
X17833750Y-11253252D01*
X17833750Y-11253252D02*
X17843274Y-11234204D01*
X17843274Y-11234204D02*
X17852797Y-11224680D01*
X17852797Y-11224680D02*
X17871845Y-11215156D01*
X17871845Y-11215156D02*
X17900417Y-11215156D01*
X17900417Y-11215156D02*
X17919464Y-11224680D01*
X17919464Y-11224680D02*
X17928988Y-11234204D01*
X17928988Y-11234204D02*
X17938512Y-11253252D01*
X17938512Y-11253252D02*
X17938512Y-11310394D01*
X17938512Y-11310394D02*
X17928988Y-11329442D01*
X17928988Y-11329442D02*
X17919464Y-11338966D01*
X17919464Y-11338966D02*
X17900417Y-11348490D01*
X17900417Y-11348490D02*
X17871845Y-11348490D01*
X18052797Y-11348490D02*
X18033750Y-11338966D01*
X18033750Y-11338966D02*
X18024226Y-11319918D01*
X18024226Y-11319918D02*
X18024226Y-11148490D01*
X18205178Y-11338966D02*
X18186131Y-11348490D01*
X18186131Y-11348490D02*
X18148036Y-11348490D01*
X18148036Y-11348490D02*
X18128988Y-11338966D01*
X18128988Y-11338966D02*
X18119464Y-11319918D01*
X18119464Y-11319918D02*
X18119464Y-11243728D01*
X18119464Y-11243728D02*
X18128988Y-11224680D01*
X18128988Y-11224680D02*
X18148036Y-11215156D01*
X18148036Y-11215156D02*
X18186131Y-11215156D01*
X18186131Y-11215156D02*
X18205178Y-11224680D01*
X18205178Y-11224680D02*
X18214702Y-11243728D01*
X18214702Y-11243728D02*
X18214702Y-11262775D01*
X18214702Y-11262775D02*
X18119464Y-11281823D01*
X18290893Y-11338966D02*
X18309940Y-11348490D01*
X18309940Y-11348490D02*
X18348036Y-11348490D01*
X18348036Y-11348490D02*
X18367083Y-11338966D01*
X18367083Y-11338966D02*
X18376607Y-11319918D01*
X18376607Y-11319918D02*
X18376607Y-11310394D01*
X18376607Y-11310394D02*
X18367083Y-11291347D01*
X18367083Y-11291347D02*
X18348036Y-11281823D01*
X18348036Y-11281823D02*
X18319464Y-11281823D01*
X18319464Y-11281823D02*
X18300417Y-11272299D01*
X18300417Y-11272299D02*
X18290893Y-11253252D01*
X18290893Y-11253252D02*
X18290893Y-11243728D01*
X18290893Y-11243728D02*
X18300417Y-11224680D01*
X18300417Y-11224680D02*
X18319464Y-11215156D01*
X18319464Y-11215156D02*
X18348036Y-11215156D01*
X18348036Y-11215156D02*
X18367083Y-11224680D01*
X18614702Y-11272299D02*
X18767083Y-11272299D01*
X18690893Y-11348490D02*
X18690893Y-11196109D01*
X19100417Y-11215156D02*
X19100417Y-11348490D01*
X19052798Y-11138966D02*
X19005179Y-11281823D01*
X19005179Y-11281823D02*
X19128988Y-11281823D01*
X19348036Y-11338966D02*
X19367083Y-11348490D01*
X19367083Y-11348490D02*
X19405179Y-11348490D01*
X19405179Y-11348490D02*
X19424226Y-11338966D01*
X19424226Y-11338966D02*
X19433750Y-11319918D01*
X19433750Y-11319918D02*
X19433750Y-11310394D01*
X19433750Y-11310394D02*
X19424226Y-11291347D01*
X19424226Y-11291347D02*
X19405179Y-11281823D01*
X19405179Y-11281823D02*
X19376607Y-11281823D01*
X19376607Y-11281823D02*
X19357560Y-11272299D01*
X19357560Y-11272299D02*
X19348036Y-11253252D01*
X19348036Y-11253252D02*
X19348036Y-11243728D01*
X19348036Y-11243728D02*
X19357560Y-11224680D01*
X19357560Y-11224680D02*
X19376607Y-11215156D01*
X19376607Y-11215156D02*
X19405179Y-11215156D01*
X19405179Y-11215156D02*
X19424226Y-11224680D01*
X19548036Y-11348490D02*
X19528988Y-11338966D01*
X19528988Y-11338966D02*
X19519464Y-11319918D01*
X19519464Y-11319918D02*
X19519464Y-11148490D01*
X19652798Y-11348490D02*
X19633750Y-11338966D01*
X19633750Y-11338966D02*
X19624226Y-11329442D01*
X19624226Y-11329442D02*
X19614702Y-11310394D01*
X19614702Y-11310394D02*
X19614702Y-11253252D01*
X19614702Y-11253252D02*
X19624226Y-11234204D01*
X19624226Y-11234204D02*
X19633750Y-11224680D01*
X19633750Y-11224680D02*
X19652798Y-11215156D01*
X19652798Y-11215156D02*
X19681369Y-11215156D01*
X19681369Y-11215156D02*
X19700417Y-11224680D01*
X19700417Y-11224680D02*
X19709941Y-11234204D01*
X19709941Y-11234204D02*
X19719464Y-11253252D01*
X19719464Y-11253252D02*
X19719464Y-11310394D01*
X19719464Y-11310394D02*
X19709941Y-11329442D01*
X19709941Y-11329442D02*
X19700417Y-11338966D01*
X19700417Y-11338966D02*
X19681369Y-11348490D01*
X19681369Y-11348490D02*
X19652798Y-11348490D01*
X19776607Y-11215156D02*
X19852798Y-11215156D01*
X19805179Y-11148490D02*
X19805179Y-11319918D01*
X19805179Y-11319918D02*
X19814702Y-11338966D01*
X19814702Y-11338966D02*
X19833750Y-11348490D01*
X19833750Y-11348490D02*
X19852798Y-11348490D01*
X19909941Y-11338966D02*
X19928988Y-11348490D01*
X19928988Y-11348490D02*
X19967083Y-11348490D01*
X19967083Y-11348490D02*
X19986131Y-11338966D01*
X19986131Y-11338966D02*
X19995655Y-11319918D01*
X19995655Y-11319918D02*
X19995655Y-11310394D01*
X19995655Y-11310394D02*
X19986131Y-11291347D01*
X19986131Y-11291347D02*
X19967083Y-11281823D01*
X19967083Y-11281823D02*
X19938512Y-11281823D01*
X19938512Y-11281823D02*
X19919464Y-11272299D01*
X19919464Y-11272299D02*
X19909941Y-11253252D01*
X19909941Y-11253252D02*
X19909941Y-11243728D01*
X19909941Y-11243728D02*
X19919464Y-11224680D01*
X19919464Y-11224680D02*
X19938512Y-11215156D01*
X19938512Y-11215156D02*
X19967083Y-11215156D01*
X19967083Y-11215156D02*
X19986131Y-11224680D01*
X20062322Y-11424680D02*
X20071845Y-11415156D01*
X20071845Y-11415156D02*
X20090893Y-11386585D01*
X20090893Y-11386585D02*
X20100417Y-11367537D01*
X20100417Y-11367537D02*
X20109941Y-11338966D01*
X20109941Y-11338966D02*
X20119464Y-11291347D01*
X20119464Y-11291347D02*
X20119464Y-11253252D01*
X20119464Y-11253252D02*
X20109941Y-11205632D01*
X20109941Y-11205632D02*
X20100417Y-11177061D01*
X20100417Y-11177061D02*
X20090893Y-11158014D01*
X20090893Y-11158014D02*
X20071845Y-11129442D01*
X20071845Y-11129442D02*
X20062322Y-11119918D01*
D12*
X13657227Y-11547523D02*
X13657227Y-11494489D01*
X13604194Y-11494489D01*
X13604194Y-11547523D01*
X13657227Y-11547523D01*
D11*
X13967083Y-11412490D02*
X13986130Y-11412490D01*
X13986130Y-11412490D02*
X14005178Y-11422013D01*
X14005178Y-11422013D02*
X14014702Y-11431537D01*
X14014702Y-11431537D02*
X14024226Y-11450585D01*
X14024226Y-11450585D02*
X14033749Y-11488680D01*
X14033749Y-11488680D02*
X14033749Y-11536299D01*
X14033749Y-11536299D02*
X14024226Y-11574394D01*
X14024226Y-11574394D02*
X14014702Y-11593442D01*
X14014702Y-11593442D02*
X14005178Y-11602966D01*
X14005178Y-11602966D02*
X13986130Y-11612490D01*
X13986130Y-11612490D02*
X13967083Y-11612490D01*
X13967083Y-11612490D02*
X13948035Y-11602966D01*
X13948035Y-11602966D02*
X13938511Y-11593442D01*
X13938511Y-11593442D02*
X13928987Y-11574394D01*
X13928987Y-11574394D02*
X13919464Y-11536299D01*
X13919464Y-11536299D02*
X13919464Y-11488680D01*
X13919464Y-11488680D02*
X13928987Y-11450585D01*
X13928987Y-11450585D02*
X13938511Y-11431537D01*
X13938511Y-11431537D02*
X13948035Y-11422013D01*
X13948035Y-11422013D02*
X13967083Y-11412490D01*
X14119464Y-11593442D02*
X14128987Y-11602966D01*
X14128987Y-11602966D02*
X14119464Y-11612490D01*
X14119464Y-11612490D02*
X14109940Y-11602966D01*
X14109940Y-11602966D02*
X14119464Y-11593442D01*
X14119464Y-11593442D02*
X14119464Y-11612490D01*
X14195654Y-11412490D02*
X14328987Y-11412490D01*
X14328987Y-11412490D02*
X14243273Y-11612490D01*
X14500416Y-11412490D02*
X14405178Y-11412490D01*
X14405178Y-11412490D02*
X14395654Y-11507728D01*
X14395654Y-11507728D02*
X14405178Y-11498204D01*
X14405178Y-11498204D02*
X14424226Y-11488680D01*
X14424226Y-11488680D02*
X14471845Y-11488680D01*
X14471845Y-11488680D02*
X14490892Y-11498204D01*
X14490892Y-11498204D02*
X14500416Y-11507728D01*
X14500416Y-11507728D02*
X14509940Y-11526775D01*
X14509940Y-11526775D02*
X14509940Y-11574394D01*
X14509940Y-11574394D02*
X14500416Y-11593442D01*
X14500416Y-11593442D02*
X14490892Y-11602966D01*
X14490892Y-11602966D02*
X14471845Y-11612490D01*
X14471845Y-11612490D02*
X14424226Y-11612490D01*
X14424226Y-11612490D02*
X14405178Y-11602966D01*
X14405178Y-11602966D02*
X14395654Y-11593442D01*
X14633749Y-11412490D02*
X14652797Y-11412490D01*
X14652797Y-11412490D02*
X14671845Y-11422013D01*
X14671845Y-11422013D02*
X14681368Y-11431537D01*
X14681368Y-11431537D02*
X14690892Y-11450585D01*
X14690892Y-11450585D02*
X14700416Y-11488680D01*
X14700416Y-11488680D02*
X14700416Y-11536299D01*
X14700416Y-11536299D02*
X14690892Y-11574394D01*
X14690892Y-11574394D02*
X14681368Y-11593442D01*
X14681368Y-11593442D02*
X14671845Y-11602966D01*
X14671845Y-11602966D02*
X14652797Y-11612490D01*
X14652797Y-11612490D02*
X14633749Y-11612490D01*
X14633749Y-11612490D02*
X14614702Y-11602966D01*
X14614702Y-11602966D02*
X14605178Y-11593442D01*
X14605178Y-11593442D02*
X14595654Y-11574394D01*
X14595654Y-11574394D02*
X14586130Y-11536299D01*
X14586130Y-11536299D02*
X14586130Y-11488680D01*
X14586130Y-11488680D02*
X14595654Y-11450585D01*
X14595654Y-11450585D02*
X14605178Y-11431537D01*
X14605178Y-11431537D02*
X14614702Y-11422013D01*
X14614702Y-11422013D02*
X14633749Y-11412490D01*
X14786130Y-11612490D02*
X14786130Y-11479156D01*
X14786130Y-11498204D02*
X14795654Y-11488680D01*
X14795654Y-11488680D02*
X14814702Y-11479156D01*
X14814702Y-11479156D02*
X14843273Y-11479156D01*
X14843273Y-11479156D02*
X14862321Y-11488680D01*
X14862321Y-11488680D02*
X14871845Y-11507728D01*
X14871845Y-11507728D02*
X14871845Y-11612490D01*
X14871845Y-11507728D02*
X14881368Y-11488680D01*
X14881368Y-11488680D02*
X14900416Y-11479156D01*
X14900416Y-11479156D02*
X14928987Y-11479156D01*
X14928987Y-11479156D02*
X14948035Y-11488680D01*
X14948035Y-11488680D02*
X14957559Y-11507728D01*
X14957559Y-11507728D02*
X14957559Y-11612490D01*
X15052797Y-11612490D02*
X15052797Y-11479156D01*
X15052797Y-11498204D02*
X15062321Y-11488680D01*
X15062321Y-11488680D02*
X15081368Y-11479156D01*
X15081368Y-11479156D02*
X15109940Y-11479156D01*
X15109940Y-11479156D02*
X15128988Y-11488680D01*
X15128988Y-11488680D02*
X15138511Y-11507728D01*
X15138511Y-11507728D02*
X15138511Y-11612490D01*
X15138511Y-11507728D02*
X15148035Y-11488680D01*
X15148035Y-11488680D02*
X15167083Y-11479156D01*
X15167083Y-11479156D02*
X15195654Y-11479156D01*
X15195654Y-11479156D02*
X15214702Y-11488680D01*
X15214702Y-11488680D02*
X15224226Y-11507728D01*
X15224226Y-11507728D02*
X15224226Y-11612490D01*
X15614702Y-11402966D02*
X15443273Y-11660109D01*
X15871845Y-11412490D02*
X15890892Y-11412490D01*
X15890892Y-11412490D02*
X15909940Y-11422013D01*
X15909940Y-11422013D02*
X15919464Y-11431537D01*
X15919464Y-11431537D02*
X15928988Y-11450585D01*
X15928988Y-11450585D02*
X15938511Y-11488680D01*
X15938511Y-11488680D02*
X15938511Y-11536299D01*
X15938511Y-11536299D02*
X15928988Y-11574394D01*
X15928988Y-11574394D02*
X15919464Y-11593442D01*
X15919464Y-11593442D02*
X15909940Y-11602966D01*
X15909940Y-11602966D02*
X15890892Y-11612490D01*
X15890892Y-11612490D02*
X15871845Y-11612490D01*
X15871845Y-11612490D02*
X15852797Y-11602966D01*
X15852797Y-11602966D02*
X15843273Y-11593442D01*
X15843273Y-11593442D02*
X15833750Y-11574394D01*
X15833750Y-11574394D02*
X15824226Y-11536299D01*
X15824226Y-11536299D02*
X15824226Y-11488680D01*
X15824226Y-11488680D02*
X15833750Y-11450585D01*
X15833750Y-11450585D02*
X15843273Y-11431537D01*
X15843273Y-11431537D02*
X15852797Y-11422013D01*
X15852797Y-11422013D02*
X15871845Y-11412490D01*
X16024226Y-11593442D02*
X16033750Y-11602966D01*
X16033750Y-11602966D02*
X16024226Y-11612490D01*
X16024226Y-11612490D02*
X16014702Y-11602966D01*
X16014702Y-11602966D02*
X16024226Y-11593442D01*
X16024226Y-11593442D02*
X16024226Y-11612490D01*
X16157559Y-11412490D02*
X16176607Y-11412490D01*
X16176607Y-11412490D02*
X16195654Y-11422013D01*
X16195654Y-11422013D02*
X16205178Y-11431537D01*
X16205178Y-11431537D02*
X16214702Y-11450585D01*
X16214702Y-11450585D02*
X16224226Y-11488680D01*
X16224226Y-11488680D02*
X16224226Y-11536299D01*
X16224226Y-11536299D02*
X16214702Y-11574394D01*
X16214702Y-11574394D02*
X16205178Y-11593442D01*
X16205178Y-11593442D02*
X16195654Y-11602966D01*
X16195654Y-11602966D02*
X16176607Y-11612490D01*
X16176607Y-11612490D02*
X16157559Y-11612490D01*
X16157559Y-11612490D02*
X16138511Y-11602966D01*
X16138511Y-11602966D02*
X16128988Y-11593442D01*
X16128988Y-11593442D02*
X16119464Y-11574394D01*
X16119464Y-11574394D02*
X16109940Y-11536299D01*
X16109940Y-11536299D02*
X16109940Y-11488680D01*
X16109940Y-11488680D02*
X16119464Y-11450585D01*
X16119464Y-11450585D02*
X16128988Y-11431537D01*
X16128988Y-11431537D02*
X16138511Y-11422013D01*
X16138511Y-11422013D02*
X16157559Y-11412490D01*
X16300416Y-11431537D02*
X16309940Y-11422013D01*
X16309940Y-11422013D02*
X16328988Y-11412490D01*
X16328988Y-11412490D02*
X16376607Y-11412490D01*
X16376607Y-11412490D02*
X16395654Y-11422013D01*
X16395654Y-11422013D02*
X16405178Y-11431537D01*
X16405178Y-11431537D02*
X16414702Y-11450585D01*
X16414702Y-11450585D02*
X16414702Y-11469632D01*
X16414702Y-11469632D02*
X16405178Y-11498204D01*
X16405178Y-11498204D02*
X16290892Y-11612490D01*
X16290892Y-11612490D02*
X16414702Y-11612490D01*
X16509940Y-11612490D02*
X16548035Y-11612490D01*
X16548035Y-11612490D02*
X16567083Y-11602966D01*
X16567083Y-11602966D02*
X16576607Y-11593442D01*
X16576607Y-11593442D02*
X16595654Y-11564871D01*
X16595654Y-11564871D02*
X16605178Y-11526775D01*
X16605178Y-11526775D02*
X16605178Y-11450585D01*
X16605178Y-11450585D02*
X16595654Y-11431537D01*
X16595654Y-11431537D02*
X16586131Y-11422013D01*
X16586131Y-11422013D02*
X16567083Y-11412490D01*
X16567083Y-11412490D02*
X16528988Y-11412490D01*
X16528988Y-11412490D02*
X16509940Y-11422013D01*
X16509940Y-11422013D02*
X16500416Y-11431537D01*
X16500416Y-11431537D02*
X16490892Y-11450585D01*
X16490892Y-11450585D02*
X16490892Y-11498204D01*
X16490892Y-11498204D02*
X16500416Y-11517252D01*
X16500416Y-11517252D02*
X16509940Y-11526775D01*
X16509940Y-11526775D02*
X16528988Y-11536299D01*
X16528988Y-11536299D02*
X16567083Y-11536299D01*
X16567083Y-11536299D02*
X16586131Y-11526775D01*
X16586131Y-11526775D02*
X16595654Y-11517252D01*
X16595654Y-11517252D02*
X16605178Y-11498204D01*
X16786131Y-11412490D02*
X16690892Y-11412490D01*
X16690892Y-11412490D02*
X16681369Y-11507728D01*
X16681369Y-11507728D02*
X16690892Y-11498204D01*
X16690892Y-11498204D02*
X16709940Y-11488680D01*
X16709940Y-11488680D02*
X16757559Y-11488680D01*
X16757559Y-11488680D02*
X16776607Y-11498204D01*
X16776607Y-11498204D02*
X16786131Y-11507728D01*
X16786131Y-11507728D02*
X16795654Y-11526775D01*
X16795654Y-11526775D02*
X16795654Y-11574394D01*
X16795654Y-11574394D02*
X16786131Y-11593442D01*
X16786131Y-11593442D02*
X16776607Y-11602966D01*
X16776607Y-11602966D02*
X16757559Y-11612490D01*
X16757559Y-11612490D02*
X16709940Y-11612490D01*
X16709940Y-11612490D02*
X16690892Y-11602966D01*
X16690892Y-11602966D02*
X16681369Y-11593442D01*
X16871845Y-11412490D02*
X16871845Y-11450585D01*
X16948035Y-11412490D02*
X16948035Y-11450585D01*
X17243274Y-11688680D02*
X17233750Y-11679156D01*
X17233750Y-11679156D02*
X17214702Y-11650585D01*
X17214702Y-11650585D02*
X17205178Y-11631537D01*
X17205178Y-11631537D02*
X17195655Y-11602966D01*
X17195655Y-11602966D02*
X17186131Y-11555347D01*
X17186131Y-11555347D02*
X17186131Y-11517252D01*
X17186131Y-11517252D02*
X17195655Y-11469632D01*
X17195655Y-11469632D02*
X17205178Y-11441061D01*
X17205178Y-11441061D02*
X17214702Y-11422013D01*
X17214702Y-11422013D02*
X17233750Y-11393442D01*
X17233750Y-11393442D02*
X17243274Y-11383918D01*
X17300416Y-11412490D02*
X17433750Y-11412490D01*
X17433750Y-11412490D02*
X17348035Y-11612490D01*
X17662321Y-11612490D02*
X17662321Y-11412490D01*
X17748036Y-11612490D02*
X17748036Y-11507728D01*
X17748036Y-11507728D02*
X17738512Y-11488680D01*
X17738512Y-11488680D02*
X17719464Y-11479156D01*
X17719464Y-11479156D02*
X17690893Y-11479156D01*
X17690893Y-11479156D02*
X17671845Y-11488680D01*
X17671845Y-11488680D02*
X17662321Y-11498204D01*
X17871845Y-11612490D02*
X17852797Y-11602966D01*
X17852797Y-11602966D02*
X17843274Y-11593442D01*
X17843274Y-11593442D02*
X17833750Y-11574394D01*
X17833750Y-11574394D02*
X17833750Y-11517252D01*
X17833750Y-11517252D02*
X17843274Y-11498204D01*
X17843274Y-11498204D02*
X17852797Y-11488680D01*
X17852797Y-11488680D02*
X17871845Y-11479156D01*
X17871845Y-11479156D02*
X17900417Y-11479156D01*
X17900417Y-11479156D02*
X17919464Y-11488680D01*
X17919464Y-11488680D02*
X17928988Y-11498204D01*
X17928988Y-11498204D02*
X17938512Y-11517252D01*
X17938512Y-11517252D02*
X17938512Y-11574394D01*
X17938512Y-11574394D02*
X17928988Y-11593442D01*
X17928988Y-11593442D02*
X17919464Y-11602966D01*
X17919464Y-11602966D02*
X17900417Y-11612490D01*
X17900417Y-11612490D02*
X17871845Y-11612490D01*
X18052797Y-11612490D02*
X18033750Y-11602966D01*
X18033750Y-11602966D02*
X18024226Y-11583918D01*
X18024226Y-11583918D02*
X18024226Y-11412490D01*
X18205178Y-11602966D02*
X18186131Y-11612490D01*
X18186131Y-11612490D02*
X18148036Y-11612490D01*
X18148036Y-11612490D02*
X18128988Y-11602966D01*
X18128988Y-11602966D02*
X18119464Y-11583918D01*
X18119464Y-11583918D02*
X18119464Y-11507728D01*
X18119464Y-11507728D02*
X18128988Y-11488680D01*
X18128988Y-11488680D02*
X18148036Y-11479156D01*
X18148036Y-11479156D02*
X18186131Y-11479156D01*
X18186131Y-11479156D02*
X18205178Y-11488680D01*
X18205178Y-11488680D02*
X18214702Y-11507728D01*
X18214702Y-11507728D02*
X18214702Y-11526775D01*
X18214702Y-11526775D02*
X18119464Y-11545823D01*
X18290893Y-11602966D02*
X18309940Y-11612490D01*
X18309940Y-11612490D02*
X18348036Y-11612490D01*
X18348036Y-11612490D02*
X18367083Y-11602966D01*
X18367083Y-11602966D02*
X18376607Y-11583918D01*
X18376607Y-11583918D02*
X18376607Y-11574394D01*
X18376607Y-11574394D02*
X18367083Y-11555347D01*
X18367083Y-11555347D02*
X18348036Y-11545823D01*
X18348036Y-11545823D02*
X18319464Y-11545823D01*
X18319464Y-11545823D02*
X18300417Y-11536299D01*
X18300417Y-11536299D02*
X18290893Y-11517252D01*
X18290893Y-11517252D02*
X18290893Y-11507728D01*
X18290893Y-11507728D02*
X18300417Y-11488680D01*
X18300417Y-11488680D02*
X18319464Y-11479156D01*
X18319464Y-11479156D02*
X18348036Y-11479156D01*
X18348036Y-11479156D02*
X18367083Y-11488680D01*
X18443274Y-11688680D02*
X18452798Y-11679156D01*
X18452798Y-11679156D02*
X18471845Y-11650585D01*
X18471845Y-11650585D02*
X18481369Y-11631537D01*
X18481369Y-11631537D02*
X18490893Y-11602966D01*
X18490893Y-11602966D02*
X18500417Y-11555347D01*
X18500417Y-11555347D02*
X18500417Y-11517252D01*
X18500417Y-11517252D02*
X18490893Y-11469632D01*
X18490893Y-11469632D02*
X18481369Y-11441061D01*
X18481369Y-11441061D02*
X18471845Y-11422013D01*
X18471845Y-11422013D02*
X18452798Y-11393442D01*
X18452798Y-11393442D02*
X18443274Y-11383918D01*
D12*
X13628211Y-11825006D02*
X13668211Y-11785006D01*
X13628211Y-11745006D01*
X13588211Y-11785006D01*
X13628211Y-11825006D01*
D11*
X13967083Y-11676490D02*
X13986130Y-11676490D01*
X13986130Y-11676490D02*
X14005178Y-11686013D01*
X14005178Y-11686013D02*
X14014702Y-11695537D01*
X14014702Y-11695537D02*
X14024226Y-11714585D01*
X14024226Y-11714585D02*
X14033749Y-11752680D01*
X14033749Y-11752680D02*
X14033749Y-11800299D01*
X14033749Y-11800299D02*
X14024226Y-11838394D01*
X14024226Y-11838394D02*
X14014702Y-11857442D01*
X14014702Y-11857442D02*
X14005178Y-11866966D01*
X14005178Y-11866966D02*
X13986130Y-11876490D01*
X13986130Y-11876490D02*
X13967083Y-11876490D01*
X13967083Y-11876490D02*
X13948035Y-11866966D01*
X13948035Y-11866966D02*
X13938511Y-11857442D01*
X13938511Y-11857442D02*
X13928987Y-11838394D01*
X13928987Y-11838394D02*
X13919464Y-11800299D01*
X13919464Y-11800299D02*
X13919464Y-11752680D01*
X13919464Y-11752680D02*
X13928987Y-11714585D01*
X13928987Y-11714585D02*
X13938511Y-11695537D01*
X13938511Y-11695537D02*
X13948035Y-11686013D01*
X13948035Y-11686013D02*
X13967083Y-11676490D01*
X14119464Y-11857442D02*
X14128987Y-11866966D01*
X14128987Y-11866966D02*
X14119464Y-11876490D01*
X14119464Y-11876490D02*
X14109940Y-11866966D01*
X14109940Y-11866966D02*
X14119464Y-11857442D01*
X14119464Y-11857442D02*
X14119464Y-11876490D01*
X14243273Y-11762204D02*
X14224226Y-11752680D01*
X14224226Y-11752680D02*
X14214702Y-11743156D01*
X14214702Y-11743156D02*
X14205178Y-11724109D01*
X14205178Y-11724109D02*
X14205178Y-11714585D01*
X14205178Y-11714585D02*
X14214702Y-11695537D01*
X14214702Y-11695537D02*
X14224226Y-11686013D01*
X14224226Y-11686013D02*
X14243273Y-11676490D01*
X14243273Y-11676490D02*
X14281368Y-11676490D01*
X14281368Y-11676490D02*
X14300416Y-11686013D01*
X14300416Y-11686013D02*
X14309940Y-11695537D01*
X14309940Y-11695537D02*
X14319464Y-11714585D01*
X14319464Y-11714585D02*
X14319464Y-11724109D01*
X14319464Y-11724109D02*
X14309940Y-11743156D01*
X14309940Y-11743156D02*
X14300416Y-11752680D01*
X14300416Y-11752680D02*
X14281368Y-11762204D01*
X14281368Y-11762204D02*
X14243273Y-11762204D01*
X14243273Y-11762204D02*
X14224226Y-11771728D01*
X14224226Y-11771728D02*
X14214702Y-11781252D01*
X14214702Y-11781252D02*
X14205178Y-11800299D01*
X14205178Y-11800299D02*
X14205178Y-11838394D01*
X14205178Y-11838394D02*
X14214702Y-11857442D01*
X14214702Y-11857442D02*
X14224226Y-11866966D01*
X14224226Y-11866966D02*
X14243273Y-11876490D01*
X14243273Y-11876490D02*
X14281368Y-11876490D01*
X14281368Y-11876490D02*
X14300416Y-11866966D01*
X14300416Y-11866966D02*
X14309940Y-11857442D01*
X14309940Y-11857442D02*
X14319464Y-11838394D01*
X14319464Y-11838394D02*
X14319464Y-11800299D01*
X14319464Y-11800299D02*
X14309940Y-11781252D01*
X14309940Y-11781252D02*
X14300416Y-11771728D01*
X14300416Y-11771728D02*
X14281368Y-11762204D01*
X14443273Y-11676490D02*
X14462321Y-11676490D01*
X14462321Y-11676490D02*
X14481368Y-11686013D01*
X14481368Y-11686013D02*
X14490892Y-11695537D01*
X14490892Y-11695537D02*
X14500416Y-11714585D01*
X14500416Y-11714585D02*
X14509940Y-11752680D01*
X14509940Y-11752680D02*
X14509940Y-11800299D01*
X14509940Y-11800299D02*
X14500416Y-11838394D01*
X14500416Y-11838394D02*
X14490892Y-11857442D01*
X14490892Y-11857442D02*
X14481368Y-11866966D01*
X14481368Y-11866966D02*
X14462321Y-11876490D01*
X14462321Y-11876490D02*
X14443273Y-11876490D01*
X14443273Y-11876490D02*
X14424226Y-11866966D01*
X14424226Y-11866966D02*
X14414702Y-11857442D01*
X14414702Y-11857442D02*
X14405178Y-11838394D01*
X14405178Y-11838394D02*
X14395654Y-11800299D01*
X14395654Y-11800299D02*
X14395654Y-11752680D01*
X14395654Y-11752680D02*
X14405178Y-11714585D01*
X14405178Y-11714585D02*
X14414702Y-11695537D01*
X14414702Y-11695537D02*
X14424226Y-11686013D01*
X14424226Y-11686013D02*
X14443273Y-11676490D01*
X14633749Y-11676490D02*
X14652797Y-11676490D01*
X14652797Y-11676490D02*
X14671845Y-11686013D01*
X14671845Y-11686013D02*
X14681368Y-11695537D01*
X14681368Y-11695537D02*
X14690892Y-11714585D01*
X14690892Y-11714585D02*
X14700416Y-11752680D01*
X14700416Y-11752680D02*
X14700416Y-11800299D01*
X14700416Y-11800299D02*
X14690892Y-11838394D01*
X14690892Y-11838394D02*
X14681368Y-11857442D01*
X14681368Y-11857442D02*
X14671845Y-11866966D01*
X14671845Y-11866966D02*
X14652797Y-11876490D01*
X14652797Y-11876490D02*
X14633749Y-11876490D01*
X14633749Y-11876490D02*
X14614702Y-11866966D01*
X14614702Y-11866966D02*
X14605178Y-11857442D01*
X14605178Y-11857442D02*
X14595654Y-11838394D01*
X14595654Y-11838394D02*
X14586130Y-11800299D01*
X14586130Y-11800299D02*
X14586130Y-11752680D01*
X14586130Y-11752680D02*
X14595654Y-11714585D01*
X14595654Y-11714585D02*
X14605178Y-11695537D01*
X14605178Y-11695537D02*
X14614702Y-11686013D01*
X14614702Y-11686013D02*
X14633749Y-11676490D01*
X14786130Y-11876490D02*
X14786130Y-11743156D01*
X14786130Y-11762204D02*
X14795654Y-11752680D01*
X14795654Y-11752680D02*
X14814702Y-11743156D01*
X14814702Y-11743156D02*
X14843273Y-11743156D01*
X14843273Y-11743156D02*
X14862321Y-11752680D01*
X14862321Y-11752680D02*
X14871845Y-11771728D01*
X14871845Y-11771728D02*
X14871845Y-11876490D01*
X14871845Y-11771728D02*
X14881368Y-11752680D01*
X14881368Y-11752680D02*
X14900416Y-11743156D01*
X14900416Y-11743156D02*
X14928987Y-11743156D01*
X14928987Y-11743156D02*
X14948035Y-11752680D01*
X14948035Y-11752680D02*
X14957559Y-11771728D01*
X14957559Y-11771728D02*
X14957559Y-11876490D01*
X15052797Y-11876490D02*
X15052797Y-11743156D01*
X15052797Y-11762204D02*
X15062321Y-11752680D01*
X15062321Y-11752680D02*
X15081368Y-11743156D01*
X15081368Y-11743156D02*
X15109940Y-11743156D01*
X15109940Y-11743156D02*
X15128988Y-11752680D01*
X15128988Y-11752680D02*
X15138511Y-11771728D01*
X15138511Y-11771728D02*
X15138511Y-11876490D01*
X15138511Y-11771728D02*
X15148035Y-11752680D01*
X15148035Y-11752680D02*
X15167083Y-11743156D01*
X15167083Y-11743156D02*
X15195654Y-11743156D01*
X15195654Y-11743156D02*
X15214702Y-11752680D01*
X15214702Y-11752680D02*
X15224226Y-11771728D01*
X15224226Y-11771728D02*
X15224226Y-11876490D01*
X15614702Y-11666966D02*
X15443273Y-11924109D01*
X15871845Y-11676490D02*
X15890892Y-11676490D01*
X15890892Y-11676490D02*
X15909940Y-11686013D01*
X15909940Y-11686013D02*
X15919464Y-11695537D01*
X15919464Y-11695537D02*
X15928988Y-11714585D01*
X15928988Y-11714585D02*
X15938511Y-11752680D01*
X15938511Y-11752680D02*
X15938511Y-11800299D01*
X15938511Y-11800299D02*
X15928988Y-11838394D01*
X15928988Y-11838394D02*
X15919464Y-11857442D01*
X15919464Y-11857442D02*
X15909940Y-11866966D01*
X15909940Y-11866966D02*
X15890892Y-11876490D01*
X15890892Y-11876490D02*
X15871845Y-11876490D01*
X15871845Y-11876490D02*
X15852797Y-11866966D01*
X15852797Y-11866966D02*
X15843273Y-11857442D01*
X15843273Y-11857442D02*
X15833750Y-11838394D01*
X15833750Y-11838394D02*
X15824226Y-11800299D01*
X15824226Y-11800299D02*
X15824226Y-11752680D01*
X15824226Y-11752680D02*
X15833750Y-11714585D01*
X15833750Y-11714585D02*
X15843273Y-11695537D01*
X15843273Y-11695537D02*
X15852797Y-11686013D01*
X15852797Y-11686013D02*
X15871845Y-11676490D01*
X16024226Y-11857442D02*
X16033750Y-11866966D01*
X16033750Y-11866966D02*
X16024226Y-11876490D01*
X16024226Y-11876490D02*
X16014702Y-11866966D01*
X16014702Y-11866966D02*
X16024226Y-11857442D01*
X16024226Y-11857442D02*
X16024226Y-11876490D01*
X16157559Y-11676490D02*
X16176607Y-11676490D01*
X16176607Y-11676490D02*
X16195654Y-11686013D01*
X16195654Y-11686013D02*
X16205178Y-11695537D01*
X16205178Y-11695537D02*
X16214702Y-11714585D01*
X16214702Y-11714585D02*
X16224226Y-11752680D01*
X16224226Y-11752680D02*
X16224226Y-11800299D01*
X16224226Y-11800299D02*
X16214702Y-11838394D01*
X16214702Y-11838394D02*
X16205178Y-11857442D01*
X16205178Y-11857442D02*
X16195654Y-11866966D01*
X16195654Y-11866966D02*
X16176607Y-11876490D01*
X16176607Y-11876490D02*
X16157559Y-11876490D01*
X16157559Y-11876490D02*
X16138511Y-11866966D01*
X16138511Y-11866966D02*
X16128988Y-11857442D01*
X16128988Y-11857442D02*
X16119464Y-11838394D01*
X16119464Y-11838394D02*
X16109940Y-11800299D01*
X16109940Y-11800299D02*
X16109940Y-11752680D01*
X16109940Y-11752680D02*
X16119464Y-11714585D01*
X16119464Y-11714585D02*
X16128988Y-11695537D01*
X16128988Y-11695537D02*
X16138511Y-11686013D01*
X16138511Y-11686013D02*
X16157559Y-11676490D01*
X16290892Y-11676490D02*
X16414702Y-11676490D01*
X16414702Y-11676490D02*
X16348035Y-11752680D01*
X16348035Y-11752680D02*
X16376607Y-11752680D01*
X16376607Y-11752680D02*
X16395654Y-11762204D01*
X16395654Y-11762204D02*
X16405178Y-11771728D01*
X16405178Y-11771728D02*
X16414702Y-11790775D01*
X16414702Y-11790775D02*
X16414702Y-11838394D01*
X16414702Y-11838394D02*
X16405178Y-11857442D01*
X16405178Y-11857442D02*
X16395654Y-11866966D01*
X16395654Y-11866966D02*
X16376607Y-11876490D01*
X16376607Y-11876490D02*
X16319464Y-11876490D01*
X16319464Y-11876490D02*
X16300416Y-11866966D01*
X16300416Y-11866966D02*
X16290892Y-11857442D01*
X16605178Y-11876490D02*
X16490892Y-11876490D01*
X16548035Y-11876490D02*
X16548035Y-11676490D01*
X16548035Y-11676490D02*
X16528988Y-11705061D01*
X16528988Y-11705061D02*
X16509940Y-11724109D01*
X16509940Y-11724109D02*
X16490892Y-11733632D01*
X16786131Y-11676490D02*
X16690892Y-11676490D01*
X16690892Y-11676490D02*
X16681369Y-11771728D01*
X16681369Y-11771728D02*
X16690892Y-11762204D01*
X16690892Y-11762204D02*
X16709940Y-11752680D01*
X16709940Y-11752680D02*
X16757559Y-11752680D01*
X16757559Y-11752680D02*
X16776607Y-11762204D01*
X16776607Y-11762204D02*
X16786131Y-11771728D01*
X16786131Y-11771728D02*
X16795654Y-11790775D01*
X16795654Y-11790775D02*
X16795654Y-11838394D01*
X16795654Y-11838394D02*
X16786131Y-11857442D01*
X16786131Y-11857442D02*
X16776607Y-11866966D01*
X16776607Y-11866966D02*
X16757559Y-11876490D01*
X16757559Y-11876490D02*
X16709940Y-11876490D01*
X16709940Y-11876490D02*
X16690892Y-11866966D01*
X16690892Y-11866966D02*
X16681369Y-11857442D01*
X16871845Y-11676490D02*
X16871845Y-11714585D01*
X16948035Y-11676490D02*
X16948035Y-11714585D01*
X17243274Y-11952680D02*
X17233750Y-11943156D01*
X17233750Y-11943156D02*
X17214702Y-11914585D01*
X17214702Y-11914585D02*
X17205178Y-11895537D01*
X17205178Y-11895537D02*
X17195655Y-11866966D01*
X17195655Y-11866966D02*
X17186131Y-11819347D01*
X17186131Y-11819347D02*
X17186131Y-11781252D01*
X17186131Y-11781252D02*
X17195655Y-11733632D01*
X17195655Y-11733632D02*
X17205178Y-11705061D01*
X17205178Y-11705061D02*
X17214702Y-11686013D01*
X17214702Y-11686013D02*
X17233750Y-11657442D01*
X17233750Y-11657442D02*
X17243274Y-11647918D01*
X17309940Y-11695537D02*
X17319464Y-11686013D01*
X17319464Y-11686013D02*
X17338512Y-11676490D01*
X17338512Y-11676490D02*
X17386131Y-11676490D01*
X17386131Y-11676490D02*
X17405178Y-11686013D01*
X17405178Y-11686013D02*
X17414702Y-11695537D01*
X17414702Y-11695537D02*
X17424226Y-11714585D01*
X17424226Y-11714585D02*
X17424226Y-11733632D01*
X17424226Y-11733632D02*
X17414702Y-11762204D01*
X17414702Y-11762204D02*
X17300416Y-11876490D01*
X17300416Y-11876490D02*
X17424226Y-11876490D01*
X17662321Y-11876490D02*
X17662321Y-11676490D01*
X17748036Y-11876490D02*
X17748036Y-11771728D01*
X17748036Y-11771728D02*
X17738512Y-11752680D01*
X17738512Y-11752680D02*
X17719464Y-11743156D01*
X17719464Y-11743156D02*
X17690893Y-11743156D01*
X17690893Y-11743156D02*
X17671845Y-11752680D01*
X17671845Y-11752680D02*
X17662321Y-11762204D01*
X17871845Y-11876490D02*
X17852797Y-11866966D01*
X17852797Y-11866966D02*
X17843274Y-11857442D01*
X17843274Y-11857442D02*
X17833750Y-11838394D01*
X17833750Y-11838394D02*
X17833750Y-11781252D01*
X17833750Y-11781252D02*
X17843274Y-11762204D01*
X17843274Y-11762204D02*
X17852797Y-11752680D01*
X17852797Y-11752680D02*
X17871845Y-11743156D01*
X17871845Y-11743156D02*
X17900417Y-11743156D01*
X17900417Y-11743156D02*
X17919464Y-11752680D01*
X17919464Y-11752680D02*
X17928988Y-11762204D01*
X17928988Y-11762204D02*
X17938512Y-11781252D01*
X17938512Y-11781252D02*
X17938512Y-11838394D01*
X17938512Y-11838394D02*
X17928988Y-11857442D01*
X17928988Y-11857442D02*
X17919464Y-11866966D01*
X17919464Y-11866966D02*
X17900417Y-11876490D01*
X17900417Y-11876490D02*
X17871845Y-11876490D01*
X18052797Y-11876490D02*
X18033750Y-11866966D01*
X18033750Y-11866966D02*
X18024226Y-11847918D01*
X18024226Y-11847918D02*
X18024226Y-11676490D01*
X18205178Y-11866966D02*
X18186131Y-11876490D01*
X18186131Y-11876490D02*
X18148036Y-11876490D01*
X18148036Y-11876490D02*
X18128988Y-11866966D01*
X18128988Y-11866966D02*
X18119464Y-11847918D01*
X18119464Y-11847918D02*
X18119464Y-11771728D01*
X18119464Y-11771728D02*
X18128988Y-11752680D01*
X18128988Y-11752680D02*
X18148036Y-11743156D01*
X18148036Y-11743156D02*
X18186131Y-11743156D01*
X18186131Y-11743156D02*
X18205178Y-11752680D01*
X18205178Y-11752680D02*
X18214702Y-11771728D01*
X18214702Y-11771728D02*
X18214702Y-11790775D01*
X18214702Y-11790775D02*
X18119464Y-11809823D01*
X18290893Y-11866966D02*
X18309940Y-11876490D01*
X18309940Y-11876490D02*
X18348036Y-11876490D01*
X18348036Y-11876490D02*
X18367083Y-11866966D01*
X18367083Y-11866966D02*
X18376607Y-11847918D01*
X18376607Y-11847918D02*
X18376607Y-11838394D01*
X18376607Y-11838394D02*
X18367083Y-11819347D01*
X18367083Y-11819347D02*
X18348036Y-11809823D01*
X18348036Y-11809823D02*
X18319464Y-11809823D01*
X18319464Y-11809823D02*
X18300417Y-11800299D01*
X18300417Y-11800299D02*
X18290893Y-11781252D01*
X18290893Y-11781252D02*
X18290893Y-11771728D01*
X18290893Y-11771728D02*
X18300417Y-11752680D01*
X18300417Y-11752680D02*
X18319464Y-11743156D01*
X18319464Y-11743156D02*
X18348036Y-11743156D01*
X18348036Y-11743156D02*
X18367083Y-11752680D01*
X18443274Y-11952680D02*
X18452798Y-11943156D01*
X18452798Y-11943156D02*
X18471845Y-11914585D01*
X18471845Y-11914585D02*
X18481369Y-11895537D01*
X18481369Y-11895537D02*
X18490893Y-11866966D01*
X18490893Y-11866966D02*
X18500417Y-11819347D01*
X18500417Y-11819347D02*
X18500417Y-11781252D01*
X18500417Y-11781252D02*
X18490893Y-11733632D01*
X18490893Y-11733632D02*
X18481369Y-11705061D01*
X18481369Y-11705061D02*
X18471845Y-11686013D01*
X18471845Y-11686013D02*
X18452798Y-11657442D01*
X18452798Y-11657442D02*
X18443274Y-11647918D01*
M02*
