G04 #@! TF.GenerationSoftware,KiCad,Pcbnew,10.0.4-10.0.4~ubuntu24.04.1*
G04 #@! TF.CreationDate,2026-07-27T12:19:17+01:00*
G04 #@! TF.ProjectId,ESP32-C3-Low-Power-IoT-Plant-Node,45535033-322d-4433-932d-4c6f772d506f,1.0*
G04 #@! TF.SameCoordinates,Original*
G04 #@! TF.FileFunction,Copper,L1,Top*
G04 #@! TF.FilePolarity,Positive*
%FSLAX46Y46*%
G04 Gerber Fmt 4.6, Leading zero omitted, Abs format (unit mm)*
G04 Created by KiCad (PCBNEW 10.0.4-10.0.4~ubuntu24.04.1) date 2026-07-27 12:19:17*
%MOMM*%
%LPD*%
G01*
G04 APERTURE LIST*
G04 Aperture macros list*
%AMRoundRect*
0 Rectangle with rounded corners*
0 $1 Rounding radius*
0 $2 $3 $4 $5 $6 $7 $8 $9 X,Y pos of 4 corners*
0 Add a 4 corners polygon primitive as box body*
4,1,4,$2,$3,$4,$5,$6,$7,$8,$9,$2,$3,0*
0 Add four circle primitives for the rounded corners*
1,1,$1+$1,$2,$3*
1,1,$1+$1,$4,$5*
1,1,$1+$1,$6,$7*
1,1,$1+$1,$8,$9*
0 Add four rect primitives between the rounded corners*
20,1,$1+$1,$2,$3,$4,$5,0*
20,1,$1+$1,$4,$5,$6,$7,0*
20,1,$1+$1,$6,$7,$8,$9,0*
20,1,$1+$1,$8,$9,$2,$3,0*%
%AMRotRect*
0 Rectangle, with rotation*
0 The origin of the aperture is its center*
0 $1 length*
0 $2 width*
0 $3 Rotation angle, in degrees counterclockwise*
0 Add horizontal line*
21,1,$1,$2,0,0,$3*%
%AMFreePoly0*
4,1,5,0.250000,-0.250000,-0.250000,-0.250000,-0.250000,0.250000,0.250000,0.250000,0.250000,-0.250000,0.250000,-0.250000,$1*%
%AMFreePoly1*
4,1,5,0.450000,-0.750000,-0.450000,-0.750000,-0.450000,0.750000,0.450000,0.750000,0.450000,-0.750000,0.450000,-0.750000,$1*%
G04 Aperture macros list end*
G04 #@! TA.AperFunction,EtchedComponent*
%ADD10C,0.000000*%
G04 #@! TD*
G04 #@! TA.AperFunction,SMDPad,CuDef*
%ADD11RoundRect,0.140000X-0.140000X-0.170000X0.140000X-0.170000X0.140000X0.170000X-0.140000X0.170000X0*%
G04 #@! TD*
G04 #@! TA.AperFunction,SMDPad,CuDef*
%ADD12RoundRect,0.140000X-0.170000X0.140000X-0.170000X-0.140000X0.170000X-0.140000X0.170000X0.140000X0*%
G04 #@! TD*
G04 #@! TA.AperFunction,SMDPad,CuDef*
%ADD13RoundRect,0.135000X0.135000X0.185000X-0.135000X0.185000X-0.135000X-0.185000X0.135000X-0.185000X0*%
G04 #@! TD*
G04 #@! TA.AperFunction,SMDPad,CuDef*
%ADD14RoundRect,0.135000X0.185000X-0.135000X0.185000X0.135000X-0.185000X0.135000X-0.185000X-0.135000X0*%
G04 #@! TD*
G04 #@! TA.AperFunction,SMDPad,CuDef*
%ADD15RoundRect,0.140000X0.140000X0.170000X-0.140000X0.170000X-0.140000X-0.170000X0.140000X-0.170000X0*%
G04 #@! TD*
G04 #@! TA.AperFunction,SMDPad,CuDef*
%ADD16RoundRect,0.062500X-0.337500X-0.062500X0.337500X-0.062500X0.337500X0.062500X-0.337500X0.062500X0*%
G04 #@! TD*
G04 #@! TA.AperFunction,SMDPad,CuDef*
%ADD17RoundRect,0.062500X-0.062500X-0.337500X0.062500X-0.337500X0.062500X0.337500X-0.062500X0.337500X0*%
G04 #@! TD*
G04 #@! TA.AperFunction,HeatsinkPad*
%ADD18R,3.700000X3.700000*%
G04 #@! TD*
G04 #@! TA.AperFunction,ComponentPad*
%ADD19RoundRect,0.250000X-0.350000X-0.625000X0.350000X-0.625000X0.350000X0.625000X-0.350000X0.625000X0*%
G04 #@! TD*
G04 #@! TA.AperFunction,ComponentPad*
%ADD20O,1.200000X1.750000*%
G04 #@! TD*
G04 #@! TA.AperFunction,SMDPad,CuDef*
%ADD21R,0.280000X0.280000*%
G04 #@! TD*
G04 #@! TA.AperFunction,SMDPad,CuDef*
%ADD22O,0.850000X0.280000*%
G04 #@! TD*
G04 #@! TA.AperFunction,ComponentPad*
%ADD23C,0.600000*%
G04 #@! TD*
G04 #@! TA.AperFunction,SMDPad,CuDef*
%ADD24R,0.680000X1.050000*%
G04 #@! TD*
G04 #@! TA.AperFunction,SMDPad,CuDef*
%ADD25R,0.260000X0.500000*%
G04 #@! TD*
G04 #@! TA.AperFunction,SMDPad,CuDef*
%ADD26R,0.280000X0.700000*%
G04 #@! TD*
G04 #@! TA.AperFunction,SMDPad,CuDef*
%ADD27R,1.650000X2.400000*%
G04 #@! TD*
G04 #@! TA.AperFunction,SMDPad,CuDef*
%ADD28RoundRect,0.135000X-0.209413X-0.092715X0.024413X-0.227715X0.209413X0.092715X-0.024413X0.227715X0*%
G04 #@! TD*
G04 #@! TA.AperFunction,SMDPad,CuDef*
%ADD29RoundRect,0.140000X0.170000X-0.140000X0.170000X0.140000X-0.170000X0.140000X-0.170000X-0.140000X0*%
G04 #@! TD*
G04 #@! TA.AperFunction,SMDPad,CuDef*
%ADD30RoundRect,0.250000X-1.000000X-0.650000X1.000000X-0.650000X1.000000X0.650000X-1.000000X0.650000X0*%
G04 #@! TD*
G04 #@! TA.AperFunction,SMDPad,CuDef*
%ADD31RoundRect,0.200000X0.800000X-0.200000X0.800000X0.200000X-0.800000X0.200000X-0.800000X-0.200000X0*%
G04 #@! TD*
G04 #@! TA.AperFunction,SMDPad,CuDef*
%ADD32RoundRect,0.162500X-0.162500X0.650000X-0.162500X-0.650000X0.162500X-0.650000X0.162500X0.650000X0*%
G04 #@! TD*
G04 #@! TA.AperFunction,SMDPad,CuDef*
%ADD33RoundRect,0.135000X-0.185000X0.135000X-0.185000X-0.135000X0.185000X-0.135000X0.185000X0.135000X0*%
G04 #@! TD*
G04 #@! TA.AperFunction,SMDPad,CuDef*
%ADD34RoundRect,0.093750X0.156250X0.093750X-0.156250X0.093750X-0.156250X-0.093750X0.156250X-0.093750X0*%
G04 #@! TD*
G04 #@! TA.AperFunction,SMDPad,CuDef*
%ADD35RoundRect,0.075000X0.250000X0.075000X-0.250000X0.075000X-0.250000X-0.075000X0.250000X-0.075000X0*%
G04 #@! TD*
G04 #@! TA.AperFunction,HeatsinkPad*
%ADD36R,1.700000X1.400000*%
G04 #@! TD*
G04 #@! TA.AperFunction,SMDPad,CuDef*
%ADD37RoundRect,0.150000X-0.587500X-0.150000X0.587500X-0.150000X0.587500X0.150000X-0.587500X0.150000X0*%
G04 #@! TD*
G04 #@! TA.AperFunction,SMDPad,CuDef*
%ADD38RoundRect,0.250000X0.450000X0.350000X-0.450000X0.350000X-0.450000X-0.350000X0.450000X-0.350000X0*%
G04 #@! TD*
G04 #@! TA.AperFunction,SMDPad,CuDef*
%ADD39RoundRect,0.150000X0.425000X-0.150000X0.425000X0.150000X-0.425000X0.150000X-0.425000X-0.150000X0*%
G04 #@! TD*
G04 #@! TA.AperFunction,SMDPad,CuDef*
%ADD40RoundRect,0.075000X0.500000X-0.075000X0.500000X0.075000X-0.500000X0.075000X-0.500000X-0.075000X0*%
G04 #@! TD*
G04 #@! TA.AperFunction,ComponentPad*
%ADD41O,2.100000X1.000000*%
G04 #@! TD*
G04 #@! TA.AperFunction,ComponentPad*
%ADD42O,1.800000X1.000000*%
G04 #@! TD*
G04 #@! TA.AperFunction,SMDPad,CuDef*
%ADD43RoundRect,0.250000X1.000000X0.650000X-1.000000X0.650000X-1.000000X-0.650000X1.000000X-0.650000X0*%
G04 #@! TD*
G04 #@! TA.AperFunction,SMDPad,CuDef*
%ADD44RotRect,0.500000X0.300000X330.000000*%
G04 #@! TD*
G04 #@! TA.AperFunction,SMDPad,CuDef*
%ADD45FreePoly0,270.000000*%
G04 #@! TD*
G04 #@! TA.AperFunction,SMDPad,CuDef*
%ADD46FreePoly1,270.000000*%
G04 #@! TD*
G04 #@! TA.AperFunction,SMDPad,CuDef*
%ADD47RoundRect,0.135000X-0.092715X0.209413X-0.227715X-0.024413X0.092715X-0.209413X0.227715X0.024413X0*%
G04 #@! TD*
G04 #@! TA.AperFunction,ComponentPad*
%ADD48RoundRect,0.250000X0.350000X0.625000X-0.350000X0.625000X-0.350000X-0.625000X0.350000X-0.625000X0*%
G04 #@! TD*
G04 #@! TA.AperFunction,SMDPad,CuDef*
%ADD49RoundRect,0.150000X0.587500X0.150000X-0.587500X0.150000X-0.587500X-0.150000X0.587500X-0.150000X0*%
G04 #@! TD*
G04 #@! TA.AperFunction,SMDPad,CuDef*
%ADD50RoundRect,0.135000X-0.135000X-0.185000X0.135000X-0.185000X0.135000X0.185000X-0.135000X0.185000X0*%
G04 #@! TD*
G04 #@! TA.AperFunction,ComponentPad*
%ADD51C,1.500000*%
G04 #@! TD*
G04 #@! TA.AperFunction,ViaPad*
%ADD52C,0.250000*%
G04 #@! TD*
G04 #@! TA.AperFunction,Conductor*
%ADD53C,0.150000*%
G04 #@! TD*
G04 #@! TA.AperFunction,Conductor*
%ADD54C,0.300000*%
G04 #@! TD*
G04 #@! TA.AperFunction,Conductor*
%ADD55C,0.500000*%
G04 #@! TD*
G04 #@! TA.AperFunction,Conductor*
%ADD56C,0.200000*%
G04 #@! TD*
G04 APERTURE END LIST*
D10*
G04 #@! TA.AperFunction,EtchedComponent*
G04 #@! TO.C,ANT1*
G36*
X142950000Y-76550000D02*
G01*
X138050000Y-76550000D01*
X138050000Y-77950000D01*
X142950000Y-77950000D01*
X142950000Y-78450000D01*
X138050000Y-78450000D01*
X138050000Y-80150000D01*
X140690000Y-80150000D01*
X140690000Y-83150000D01*
X138050000Y-83150000D01*
X138050000Y-84850000D01*
X140690000Y-84850000D01*
X140690000Y-87850000D01*
X138050000Y-87850000D01*
X138050000Y-89550000D01*
X141990000Y-89550000D01*
X141990000Y-90050000D01*
X137550000Y-90050000D01*
X137550000Y-87350000D01*
X140190000Y-87350000D01*
X140190000Y-85350000D01*
X137550000Y-85350000D01*
X137550000Y-82650000D01*
X140190000Y-82650000D01*
X140190000Y-80650000D01*
X137550000Y-80650000D01*
X137550000Y-75650000D01*
X142950000Y-75650000D01*
X142950000Y-76550000D01*
G37*
G04 #@! TD.AperFunction*
G04 #@! TD*
D11*
G04 #@! TO.P,C15,1*
G04 #@! TO.N,+5V*
X172720000Y-85600000D03*
G04 #@! TO.P,C15,2*
G04 #@! TO.N,GND*
X173680000Y-85600000D03*
G04 #@! TD*
G04 #@! TO.P,C3,1*
G04 #@! TO.N,+3.3V*
X150120000Y-83700000D03*
G04 #@! TO.P,C3,2*
G04 #@! TO.N,GND*
X151080000Y-83700000D03*
G04 #@! TD*
D12*
G04 #@! TO.P,C2,1*
G04 #@! TO.N,+3.3V*
X154000000Y-82620000D03*
G04 #@! TO.P,C2,2*
G04 #@! TO.N,GND*
X154000000Y-83580000D03*
G04 #@! TD*
D13*
G04 #@! TO.P,FB1,1*
G04 #@! TO.N,+3.3V*
X147010000Y-74600000D03*
G04 #@! TO.P,FB1,2*
G04 #@! TO.N,+3.3VA*
X145990000Y-74600000D03*
G04 #@! TD*
D14*
G04 #@! TO.P,R10,1*
G04 #@! TO.N,Net-(U5-FB)*
X163510000Y-90000000D03*
G04 #@! TO.P,R10,2*
G04 #@! TO.N,+3.3V*
X163510000Y-88980000D03*
G04 #@! TD*
D15*
G04 #@! TO.P,C4,1*
G04 #@! TO.N,+3.3VA*
X145680000Y-80300000D03*
G04 #@! TO.P,C4,2*
G04 #@! TO.N,GND*
X144720000Y-80300000D03*
G04 #@! TD*
D16*
G04 #@! TO.P,U1,1,LNA_IN_1*
G04 #@! TO.N,Net-(U1-LNA_IN)*
X148250000Y-78250000D03*
G04 #@! TO.P,U1,2,VDD3P3_2*
G04 #@! TO.N,+3.3VA*
X148250000Y-78750000D03*
G04 #@! TO.P,U1,3,VDD3P3_3*
X148250000Y-79250000D03*
G04 #@! TO.P,U1,4,XTAL_32K_P_4*
G04 #@! TO.N,/AOUT*
X148250000Y-79750000D03*
G04 #@! TO.P,U1,5,XTAL_32K_N_5*
G04 #@! TO.N,/SCL*
X148250000Y-80250000D03*
G04 #@! TO.P,U1,6,GPIO2_6*
G04 #@! TO.N,/SDA*
X148250000Y-80750000D03*
G04 #@! TO.P,U1,7,CHIP_EN_7*
G04 #@! TO.N,/RESET*
X148250000Y-81250000D03*
G04 #@! TO.P,U1,8,GPIO3_8*
G04 #@! TO.N,/LDR*
X148250000Y-81750000D03*
D17*
G04 #@! TO.P,U1,9,MTMS_9*
G04 #@! TO.N,/STAT*
X148950000Y-82450000D03*
G04 #@! TO.P,U1,10,MTDI_10*
G04 #@! TO.N,/BATP*
X149450000Y-82450000D03*
G04 #@! TO.P,U1,11,VDD3P3_RTC_11*
G04 #@! TO.N,+3.3V*
X149950000Y-82450000D03*
G04 #@! TO.P,U1,12,MTCK_12*
G04 #@! TO.N,unconnected-(U1-MTCK-Pad12)*
X150450000Y-82450000D03*
G04 #@! TO.P,U1,13,MTDO_13*
G04 #@! TO.N,unconnected-(U1-MTDO-Pad13)*
X150950000Y-82450000D03*
G04 #@! TO.P,U1,14,GPIO8_14*
G04 #@! TO.N,/PUMP*
X151450000Y-82450000D03*
G04 #@! TO.P,U1,15,GPIO9_15*
G04 #@! TO.N,/BOOT*
X151950000Y-82450000D03*
G04 #@! TO.P,U1,16,GPIO10_16*
G04 #@! TO.N,unconnected-(U1-GPIO10-Pad16)*
X152450000Y-82450000D03*
D16*
G04 #@! TO.P,U1,17,VDD3P3_CPU_17*
G04 #@! TO.N,+3.3V*
X153150000Y-81750000D03*
G04 #@! TO.P,U1,18,VDD_SPI_18*
G04 #@! TO.N,/VDD_SPI*
X153150000Y-81250000D03*
G04 #@! TO.P,U1,19,SPIHD_19*
G04 #@! TO.N,/HOLD*
X153150000Y-80750000D03*
G04 #@! TO.P,U1,20,SPIWP_20*
G04 #@! TO.N,/WP*
X153150000Y-80250000D03*
G04 #@! TO.P,U1,21,SPICS0_21*
G04 #@! TO.N,/CS*
X153150000Y-79750000D03*
G04 #@! TO.P,U1,22,SPICLK_22*
G04 #@! TO.N,/CLK*
X153150000Y-79250000D03*
G04 #@! TO.P,U1,23,SPID_23*
G04 #@! TO.N,/DI*
X153150000Y-78750000D03*
G04 #@! TO.P,U1,24,SPIQ_24*
G04 #@! TO.N,/DO*
X153150000Y-78250000D03*
D17*
G04 #@! TO.P,U1,25,GPIO18_25*
G04 #@! TO.N,/USB_D-*
X152450000Y-77550000D03*
G04 #@! TO.P,U1,26,GPIO19_26*
G04 #@! TO.N,/USB_D+*
X151950000Y-77550000D03*
G04 #@! TO.P,U1,27,U0RXD_27*
G04 #@! TO.N,unconnected-(U1-U0RXD-Pad27)*
X151450000Y-77550000D03*
G04 #@! TO.P,U1,28,U0TXD_28*
G04 #@! TO.N,unconnected-(U1-U0TXD-Pad28)*
X150950000Y-77550000D03*
G04 #@! TO.P,U1,29,XTAL_N_29*
G04 #@! TO.N,/XTAL_N*
X150450000Y-77550000D03*
G04 #@! TO.P,U1,30,XTAL_P_30*
G04 #@! TO.N,/XTAL_P*
X149950000Y-77550000D03*
G04 #@! TO.P,U1,31,VDDA_31*
G04 #@! TO.N,+3.3VA*
X149450000Y-77550000D03*
G04 #@! TO.P,U1,32,VDDA_32*
X148950000Y-77550000D03*
D18*
G04 #@! TO.P,U1,33,GND_33*
G04 #@! TO.N,GND*
X150700000Y-80000000D03*
G04 #@! TD*
D19*
G04 #@! TO.P,J3,1,Pin_1_1*
G04 #@! TO.N,GND*
X148100000Y-92250000D03*
D20*
G04 #@! TO.P,J3,2,Pin_2_2*
G04 #@! TO.N,+3.3V*
X150100000Y-92250000D03*
G04 #@! TO.P,J3,3,Pin_3_3*
G04 #@! TO.N,/AOUT*
X152100000Y-92250000D03*
G04 #@! TD*
D11*
G04 #@! TO.P,C16,1*
G04 #@! TO.N,Net-(BT1-+)*
X173820000Y-89300000D03*
G04 #@! TO.P,C16,2*
G04 #@! TO.N,GND*
X174780000Y-89300000D03*
G04 #@! TD*
D21*
G04 #@! TO.P,U5,1,VAUX_1*
G04 #@! TO.N,Net-(U5-VAUX)*
X157990000Y-89675000D03*
D22*
X158275000Y-89675000D03*
D21*
G04 #@! TO.P,U5,2,VOUT_2*
G04 #@! TO.N,+3.3V*
X157990000Y-90175000D03*
D22*
X158275000Y-90175000D03*
D21*
G04 #@! TO.P,U5,3,L_3*
G04 #@! TO.N,Net-(U5-L)*
X157990000Y-90675000D03*
D22*
X158275000Y-90675000D03*
D21*
G04 #@! TO.P,U5,4,PGND_4*
G04 #@! TO.N,GND*
X157990000Y-91175000D03*
D22*
X158275000Y-91175000D03*
D21*
G04 #@! TO.P,U5,5,VIN_5*
G04 #@! TO.N,/VIN*
X157990000Y-91675000D03*
D22*
X158275000Y-91675000D03*
G04 #@! TO.P,U5,6,EN_6*
X161225000Y-91675000D03*
D21*
X161510000Y-91675000D03*
D22*
G04 #@! TO.P,U5,7,UVLO_7*
G04 #@! TO.N,Net-(U5-UVLO)*
X161225000Y-91175000D03*
D21*
X161510000Y-91175000D03*
D22*
G04 #@! TO.P,U5,8,PS_8*
G04 #@! TO.N,GND*
X161225000Y-90675000D03*
D21*
X161510000Y-90675000D03*
D22*
G04 #@! TO.P,U5,9,GND_9*
X161225000Y-90175000D03*
D21*
X161510000Y-90175000D03*
D22*
G04 #@! TO.P,U5,10,FB_10*
G04 #@! TO.N,Net-(U5-FB)*
X161225000Y-89675000D03*
D21*
X161510000Y-89675000D03*
D23*
G04 #@! TO.P,U5,11,PAD_11*
G04 #@! TO.N,GND*
X159250000Y-89925000D03*
X159250000Y-91425000D03*
D24*
X159300000Y-90040000D03*
X159300000Y-91310000D03*
D25*
X159500000Y-89045000D03*
D26*
X159500000Y-89125000D03*
X159500000Y-92225000D03*
D25*
X159500000Y-92305000D03*
D23*
X159750000Y-90675000D03*
D27*
X159750000Y-90675000D03*
D25*
X160000000Y-89045000D03*
D26*
X160000000Y-89125000D03*
X160000000Y-92225000D03*
D25*
X160000000Y-92305000D03*
D24*
X160200000Y-90040000D03*
X160200000Y-91310000D03*
D23*
X160250000Y-89925000D03*
X160250000Y-91425000D03*
G04 #@! TD*
D28*
G04 #@! TO.P,R15,1*
G04 #@! TO.N,/SDA*
X189560120Y-93302659D03*
G04 #@! TO.P,R15,2*
G04 #@! TO.N,+3.3V*
X190443464Y-93812659D03*
G04 #@! TD*
D29*
G04 #@! TO.P,C12,1*
G04 #@! TO.N,/XTAL_N*
X153000000Y-74680000D03*
G04 #@! TO.P,C12,2*
G04 #@! TO.N,GND*
X153000000Y-73720000D03*
G04 #@! TD*
D30*
G04 #@! TO.P,D1,1,K_1*
G04 #@! TO.N,/VIN*
X165710000Y-92750000D03*
G04 #@! TO.P,D1,2,A_2*
G04 #@! TO.N,+5V*
X169710000Y-92750000D03*
G04 #@! TD*
D31*
G04 #@! TO.P,SW1,1,1_1*
G04 #@! TO.N,GND*
X153000000Y-89210000D03*
G04 #@! TO.P,SW1,2,2_2*
G04 #@! TO.N,/BOOT*
X153000000Y-85010000D03*
G04 #@! TD*
D15*
G04 #@! TO.P,C5,1*
G04 #@! TO.N,+3.3VA*
X145680000Y-81300000D03*
G04 #@! TO.P,C5,2*
G04 #@! TO.N,GND*
X144720000Y-81300000D03*
G04 #@! TD*
D32*
G04 #@! TO.P,U4,1,~{CS}_1*
G04 #@! TO.N,/CS*
X159505000Y-77112500D03*
G04 #@! TO.P,U4,2,DO/IO_{1}_2*
G04 #@! TO.N,/DO*
X158235000Y-77112500D03*
G04 #@! TO.P,U4,3,~{WP}/IO_{2}_3*
G04 #@! TO.N,/WP*
X156965000Y-77112500D03*
G04 #@! TO.P,U4,4,GND_4*
G04 #@! TO.N,GND*
X155695000Y-77112500D03*
G04 #@! TO.P,U4,5,DI/IO_{0}_5*
G04 #@! TO.N,/DI*
X155695000Y-84287500D03*
G04 #@! TO.P,U4,6,CLK_6*
G04 #@! TO.N,/CLK*
X156965000Y-84287500D03*
G04 #@! TO.P,U4,7,~{HOLD}/~{RESET}/IO_{3}_7*
G04 #@! TO.N,/HOLD*
X158235000Y-84287500D03*
G04 #@! TO.P,U4,8,VCC_8*
G04 #@! TO.N,/VDD_SPI*
X159505000Y-84287500D03*
G04 #@! TD*
D29*
G04 #@! TO.P,C9,1*
G04 #@! TO.N,+3.3VA*
X146000000Y-73580000D03*
G04 #@! TO.P,C9,2*
G04 #@! TO.N,GND*
X146000000Y-72620000D03*
G04 #@! TD*
D33*
G04 #@! TO.P,R13,1*
G04 #@! TO.N,GND*
X164000000Y-84690000D03*
G04 #@! TO.P,R13,2*
G04 #@! TO.N,/BATP*
X164000000Y-85710000D03*
G04 #@! TD*
D15*
G04 #@! TO.P,C19,1*
G04 #@! TO.N,+3.3V*
X156990000Y-90090000D03*
G04 #@! TO.P,C19,2*
G04 #@! TO.N,GND*
X156030000Y-90090000D03*
G04 #@! TD*
G04 #@! TO.P,C20,1*
G04 #@! TO.N,/BATP*
X162480000Y-87000000D03*
G04 #@! TO.P,C20,2*
G04 #@! TO.N,GND*
X161520000Y-87000000D03*
G04 #@! TD*
D34*
G04 #@! TO.P,U2,1,I/O1_1*
G04 #@! TO.N,/D-*
X175850000Y-83537500D03*
D35*
G04 #@! TO.P,U2,2,GND_2*
G04 #@! TO.N,GND*
X175925000Y-83000000D03*
D34*
G04 #@! TO.P,U2,3,I/O2_3*
G04 #@! TO.N,/D+*
X175850000Y-82462500D03*
G04 #@! TO.P,U2,4,I/O2_4*
G04 #@! TO.N,/USB_D+*
X174150000Y-82462500D03*
D35*
G04 #@! TO.P,U2,5,VBUS_5*
G04 #@! TO.N,+5V*
X174075000Y-83000000D03*
D34*
G04 #@! TO.P,U2,6,I/O1_6*
G04 #@! TO.N,/USB_D-*
X174150000Y-83537500D03*
G04 #@! TD*
D15*
G04 #@! TO.P,C18,1*
G04 #@! TO.N,Net-(U5-VAUX)*
X156990000Y-88980000D03*
G04 #@! TO.P,C18,2*
G04 #@! TO.N,GND*
X156030000Y-88980000D03*
G04 #@! TD*
G04 #@! TO.P,C17,1*
G04 #@! TO.N,Net-(D2-A)*
X165080000Y-83700000D03*
G04 #@! TO.P,C17,2*
G04 #@! TO.N,GND*
X164120000Y-83700000D03*
G04 #@! TD*
D16*
G04 #@! TO.P,U6,1,V_{DD}_1*
G04 #@! TO.N,+5V*
X172750000Y-86650000D03*
G04 #@! TO.P,U6,2,V_{DD}_2*
X172750000Y-87150000D03*
G04 #@! TO.P,U6,3,V_{BAT}_3*
G04 #@! TO.N,Net-(BT1-+)*
X172750000Y-87650000D03*
G04 #@! TO.P,U6,4,V_{BAT}_4*
X172750000Y-88150000D03*
G04 #@! TO.P,U6,5,STAT_5*
G04 #@! TO.N,/STAT*
X175650000Y-88150000D03*
G04 #@! TO.P,U6,6,V_{SS}_6*
G04 #@! TO.N,GND*
X175650000Y-87650000D03*
G04 #@! TO.P,U6,7,NC_7*
G04 #@! TO.N,unconnected-(U6-NC-Pad7)*
X175650000Y-87150000D03*
G04 #@! TO.P,U6,8,PROG_8*
G04 #@! TO.N,Net-(U6-PROG)*
X175650000Y-86650000D03*
D36*
G04 #@! TO.P,U6,9*
G04 #@! TO.N,N/C*
X174200000Y-87400000D03*
G04 #@! TD*
D37*
G04 #@! TO.P,Q2,1,G_1*
G04 #@! TO.N,/PUMP*
X167125000Y-74150000D03*
G04 #@! TO.P,Q2,2,S_2*
G04 #@! TO.N,GND*
X167125000Y-76050000D03*
G04 #@! TO.P,Q2,3,D_3*
G04 #@! TO.N,Net-(D3-A)*
X169000000Y-75100000D03*
G04 #@! TD*
D38*
G04 #@! TO.P,Y1,1,1_1*
G04 #@! TO.N,/XTAL_P*
X151500000Y-72550000D03*
G04 #@! TO.P,Y1,2,G_2*
G04 #@! TO.N,GND*
X149300000Y-72550000D03*
G04 #@! TO.P,Y1,3,G_3*
X149300000Y-74250000D03*
G04 #@! TO.P,Y1,4,4_4*
G04 #@! TO.N,/XTAL_N*
X151500000Y-74250000D03*
G04 #@! TD*
D39*
G04 #@! TO.P,J1,A1,GND_A1*
G04 #@! TO.N,GND*
X180520000Y-86700000D03*
G04 #@! TO.P,J1,A4,VBUS_A4*
G04 #@! TO.N,+5V*
X180520000Y-85900000D03*
D40*
G04 #@! TO.P,J1,A5,CC1_A5*
G04 #@! TO.N,Net-(J1-CC1)*
X180520000Y-84750000D03*
G04 #@! TO.P,J1,A6,D+_A6*
G04 #@! TO.N,/D+*
X180520000Y-83750000D03*
G04 #@! TO.P,J1,A7,D-_A7*
G04 #@! TO.N,/D-*
X180520000Y-83250000D03*
G04 #@! TO.P,J1,A8,SBU1_A8*
G04 #@! TO.N,unconnected-(J1-SBU1-PadA8)*
X180520000Y-82250000D03*
D39*
G04 #@! TO.P,J1,A9,VBUS_A9*
G04 #@! TO.N,+5V*
X180520000Y-81100000D03*
G04 #@! TO.P,J1,A12,GND_A12*
G04 #@! TO.N,GND*
X180520000Y-80300000D03*
G04 #@! TO.P,J1,B1,GND_B1*
X180520000Y-80300000D03*
G04 #@! TO.P,J1,B4,VBUS_B4*
G04 #@! TO.N,+5V*
X180520000Y-81100000D03*
D40*
G04 #@! TO.P,J1,B5,CC2_B5*
G04 #@! TO.N,Net-(J1-CC2)*
X180520000Y-81750000D03*
G04 #@! TO.P,J1,B6,D+_B6*
G04 #@! TO.N,/D+*
X180520000Y-82750000D03*
G04 #@! TO.P,J1,B7,D-_B7*
G04 #@! TO.N,/D-*
X180520000Y-84250000D03*
G04 #@! TO.P,J1,B8,SBU2_B8*
G04 #@! TO.N,unconnected-(J1-SBU2-PadB8)*
X180520000Y-85250000D03*
D39*
G04 #@! TO.P,J1,B9,VBUS_B9*
G04 #@! TO.N,+5V*
X180520000Y-85900000D03*
G04 #@! TO.P,J1,B12,GND_B12*
G04 #@! TO.N,GND*
X180520000Y-86700000D03*
D41*
G04 #@! TO.P,J1,SH,SHIELD_SH*
X181095000Y-87820000D03*
D42*
X185275000Y-87820000D03*
D41*
X181095000Y-79180000D03*
D42*
X185275000Y-79180000D03*
G04 #@! TD*
D13*
G04 #@! TO.P,R2,1*
G04 #@! TO.N,Net-(J1-CC2)*
X178510000Y-82100000D03*
G04 #@! TO.P,R2,2*
G04 #@! TO.N,GND*
X177490000Y-82100000D03*
G04 #@! TD*
G04 #@! TO.P,R7,1*
G04 #@! TO.N,GND*
X169760000Y-86700000D03*
G04 #@! TO.P,R7,2*
G04 #@! TO.N,+5V*
X168740000Y-86700000D03*
G04 #@! TD*
D43*
G04 #@! TO.P,D3,1,K_1*
G04 #@! TO.N,+5V*
X176500000Y-79000000D03*
G04 #@! TO.P,D3,2,A_2*
G04 #@! TO.N,Net-(D3-A)*
X172500000Y-79000000D03*
G04 #@! TD*
D15*
G04 #@! TO.P,C11,1*
G04 #@! TO.N,/XTAL_P*
X151280000Y-75700000D03*
G04 #@! TO.P,C11,2*
G04 #@! TO.N,GND*
X150320000Y-75700000D03*
G04 #@! TD*
D44*
G04 #@! TO.P,U3,1,SDA_1*
G04 #@! TO.N,/SDA*
X188993782Y-94303590D03*
G04 #@! TO.P,U3,2,SCL_2*
G04 #@! TO.N,/SCL*
X188593782Y-94996410D03*
G04 #@! TO.P,U3,3,VDD_3*
G04 #@! TO.N,+3.3V*
X189806218Y-95696410D03*
G04 #@! TO.P,U3,4,VSS_4*
G04 #@! TO.N,GND*
X190206218Y-95003590D03*
G04 #@! TD*
D15*
G04 #@! TO.P,C7,1*
G04 #@! TO.N,+3.3VA*
X149380000Y-76350000D03*
G04 #@! TO.P,C7,2*
G04 #@! TO.N,GND*
X148420000Y-76350000D03*
G04 #@! TD*
D13*
G04 #@! TO.P,L2,1,1_1*
G04 #@! TO.N,Net-(U1-LNA_IN)*
X146110000Y-79250000D03*
G04 #@! TO.P,L2,2,2_2*
G04 #@! TO.N,Net-(ANT1-Fed)*
X145090000Y-79250000D03*
G04 #@! TD*
D12*
G04 #@! TO.P,C10,1*
G04 #@! TO.N,/RESET*
X149600000Y-87700000D03*
G04 #@! TO.P,C10,2*
G04 #@! TO.N,GND*
X149600000Y-88660000D03*
G04 #@! TD*
D31*
G04 #@! TO.P,SW2,1,1_1*
G04 #@! TO.N,GND*
X147400000Y-89250000D03*
G04 #@! TO.P,SW2,2,2_2*
G04 #@! TO.N,/RESET*
X147400000Y-85050000D03*
G04 #@! TD*
D14*
G04 #@! TO.P,R12,1*
G04 #@! TO.N,/BATP*
X165100000Y-86810000D03*
G04 #@! TO.P,R12,2*
G04 #@! TO.N,Net-(D2-A)*
X165100000Y-85790000D03*
G04 #@! TD*
D45*
G04 #@! TO.P,ANT1,1,Fed_1*
G04 #@! TO.N,Net-(ANT1-Fed)*
X142700000Y-78200000D03*
D46*
G04 #@! TO.P,ANT1,2,GND_2*
G04 #@! TO.N,GND*
X142200000Y-76100000D03*
G04 #@! TD*
D29*
G04 #@! TO.P,C8,1*
G04 #@! TO.N,+3.3V*
X147000000Y-73580000D03*
G04 #@! TO.P,C8,2*
G04 #@! TO.N,GND*
X147000000Y-72620000D03*
G04 #@! TD*
D14*
G04 #@! TO.P,R6,1*
G04 #@! TO.N,/STAT*
X177550000Y-88060000D03*
G04 #@! TO.P,R6,2*
G04 #@! TO.N,+5V*
X177550000Y-87040000D03*
G04 #@! TD*
G04 #@! TO.P,R9,1*
G04 #@! TO.N,GND*
X162510000Y-92400000D03*
G04 #@! TO.P,R9,2*
G04 #@! TO.N,Net-(U5-UVLO)*
X162510000Y-91380000D03*
G04 #@! TD*
D11*
G04 #@! TO.P,C14,1*
G04 #@! TO.N,/VDD_SPI*
X161020000Y-83600000D03*
G04 #@! TO.P,C14,2*
G04 #@! TO.N,GND*
X161980000Y-83600000D03*
G04 #@! TD*
D47*
G04 #@! TO.P,R17,1*
G04 #@! TO.N,GND*
X191300448Y-95508328D03*
G04 #@! TO.P,R17,2*
G04 #@! TO.N,/LDR*
X190790448Y-96391672D03*
G04 #@! TD*
D29*
G04 #@! TO.P,C6,1*
G04 #@! TO.N,+3.3VA*
X147400000Y-77280000D03*
G04 #@! TO.P,C6,2*
G04 #@! TO.N,GND*
X147400000Y-76320000D03*
G04 #@! TD*
D33*
G04 #@! TO.P,R3,1*
G04 #@! TO.N,/BOOT*
X155200000Y-86600000D03*
G04 #@! TO.P,R3,2*
G04 #@! TO.N,+3.3V*
X155200000Y-87620000D03*
G04 #@! TD*
D14*
G04 #@! TO.P,R4,1*
G04 #@! TO.N,/RESET*
X149600000Y-86810000D03*
G04 #@! TO.P,R4,2*
G04 #@! TO.N,+3.3V*
X149600000Y-85790000D03*
G04 #@! TD*
G04 #@! TO.P,L1,1,1_1*
G04 #@! TO.N,/VIN*
X156910000Y-92520000D03*
G04 #@! TO.P,L1,2,2_2*
G04 #@! TO.N,Net-(U5-L)*
X156910000Y-91500000D03*
G04 #@! TD*
D48*
G04 #@! TO.P,J2,1,Pin_1_1*
G04 #@! TO.N,+5V*
X175500000Y-75000000D03*
D20*
G04 #@! TO.P,J2,2,Pin_2_2*
G04 #@! TO.N,Net-(D3-A)*
X173500000Y-75000000D03*
G04 #@! TD*
D13*
G04 #@! TO.P,R14,1*
G04 #@! TO.N,GND*
X167810000Y-72600000D03*
G04 #@! TO.P,R14,2*
G04 #@! TO.N,/PUMP*
X166790000Y-72600000D03*
G04 #@! TD*
D12*
G04 #@! TO.P,C1,1*
G04 #@! TO.N,+3.3V*
X155750000Y-91520000D03*
G04 #@! TO.P,C1,2*
G04 #@! TO.N,GND*
X155750000Y-92480000D03*
G04 #@! TD*
D49*
G04 #@! TO.P,Q1,1,G_1*
G04 #@! TO.N,+5V*
X167437500Y-85700000D03*
G04 #@! TO.P,Q1,2,S_2*
G04 #@! TO.N,Net-(BT1-+)*
X167437500Y-83800000D03*
G04 #@! TO.P,Q1,3,D_3*
G04 #@! TO.N,Net-(D2-A)*
X165562500Y-84750000D03*
G04 #@! TD*
D33*
G04 #@! TO.P,R1,1*
G04 #@! TO.N,Net-(J1-CC1)*
X178650000Y-84740000D03*
G04 #@! TO.P,R1,2*
G04 #@! TO.N,GND*
X178650000Y-85760000D03*
G04 #@! TD*
G04 #@! TO.P,R11,1*
G04 #@! TO.N,GND*
X162510000Y-88980000D03*
G04 #@! TO.P,R11,2*
G04 #@! TO.N,Net-(U5-FB)*
X162510000Y-90000000D03*
G04 #@! TD*
D30*
G04 #@! TO.P,D2,1,K_1*
G04 #@! TO.N,/VIN*
X165700000Y-89000000D03*
G04 #@! TO.P,D2,2,A_2*
G04 #@! TO.N,Net-(D2-A)*
X169700000Y-89000000D03*
G04 #@! TD*
D33*
G04 #@! TO.P,R8,1*
G04 #@! TO.N,Net-(U5-UVLO)*
X163510000Y-91380000D03*
G04 #@! TO.P,R8,2*
G04 #@! TO.N,Net-(D2-A)*
X163510000Y-92400000D03*
G04 #@! TD*
D29*
G04 #@! TO.P,C22,1*
G04 #@! TO.N,Net-(ANT1-Fed)*
X145100000Y-78230000D03*
G04 #@! TO.P,C22,2*
G04 #@! TO.N,GND*
X145100000Y-77270000D03*
G04 #@! TD*
D28*
G04 #@! TO.P,R16,1*
G04 #@! TO.N,/SCL*
X188010120Y-95987338D03*
G04 #@! TO.P,R16,2*
G04 #@! TO.N,+3.3V*
X188893464Y-96497338D03*
G04 #@! TD*
D11*
G04 #@! TO.P,C13,1*
G04 #@! TO.N,/VDD_SPI*
X161020000Y-84600000D03*
G04 #@! TO.P,C13,2*
G04 #@! TO.N,GND*
X161980000Y-84600000D03*
G04 #@! TD*
D50*
G04 #@! TO.P,R5,1*
G04 #@! TO.N,GND*
X174665000Y-85600000D03*
G04 #@! TO.P,R5,2*
G04 #@! TO.N,Net-(U6-PROG)*
X175685000Y-85600000D03*
G04 #@! TD*
D29*
G04 #@! TO.P,C21,1*
G04 #@! TO.N,Net-(U1-LNA_IN)*
X146100000Y-78230000D03*
G04 #@! TO.P,C21,2*
G04 #@! TO.N,GND*
X146100000Y-77270000D03*
G04 #@! TD*
D51*
G04 #@! TO.P,LDR1,1*
G04 #@! TO.N,+3.3V*
X191680126Y-98372243D03*
G04 #@! TO.P,LDR1,2*
G04 #@! TO.N,/LDR*
X193380126Y-95427757D03*
G04 #@! TD*
D19*
G04 #@! TO.P,BT1,1,+_1*
G04 #@! TO.N,Net-(BT1-+)*
X173499999Y-91750000D03*
D20*
G04 #@! TO.P,BT1,2,-_2*
G04 #@! TO.N,GND*
X175500000Y-91750000D03*
G04 #@! TD*
D52*
G04 #@! TO.N,GND*
X158000000Y-88000000D03*
X184300000Y-89100000D03*
X163250000Y-76300000D03*
X143450000Y-76750000D03*
X143200000Y-84500000D03*
X144100000Y-85400000D03*
X158800000Y-74400000D03*
X167900000Y-80900000D03*
X177800000Y-91150000D03*
X157800000Y-73100000D03*
X183600000Y-77300000D03*
X185800000Y-89100000D03*
X143800000Y-83300000D03*
X144000000Y-92200000D03*
X143750000Y-80800000D03*
X159700000Y-81700000D03*
X147000000Y-87100000D03*
X147400000Y-75600000D03*
X160700000Y-71800000D03*
X158700000Y-86400000D03*
X164200000Y-80200000D03*
X144000000Y-94900000D03*
X183300000Y-85800000D03*
X179800000Y-76800000D03*
X160500000Y-74200000D03*
X144350000Y-74000000D03*
X162200000Y-77300000D03*
X172100000Y-72100000D03*
X149400000Y-90700000D03*
X170600000Y-74100000D03*
X162900000Y-71900000D03*
X177800000Y-89750000D03*
X143900000Y-91100000D03*
X157700000Y-87000000D03*
X168200000Y-77400000D03*
X159350000Y-93300000D03*
X165600000Y-76050000D03*
X145000000Y-73550000D03*
X154800000Y-83575000D03*
X154600000Y-73100000D03*
X146500000Y-87800000D03*
X161300000Y-73000000D03*
X159100000Y-80400000D03*
X180000000Y-74800000D03*
X145300000Y-95200000D03*
X170700000Y-77300000D03*
X175600000Y-72000000D03*
X147900000Y-86400000D03*
X170000000Y-79200000D03*
X159100000Y-87100000D03*
X144050000Y-76000000D03*
X145400000Y-71700000D03*
X151850000Y-84100000D03*
X173900000Y-73300000D03*
X160300000Y-86400000D03*
X143150000Y-85800000D03*
X144850000Y-72400000D03*
X159700000Y-79300000D03*
X144600000Y-83400000D03*
X169200000Y-73500000D03*
X144000000Y-81300000D03*
X143950000Y-79450000D03*
X143650000Y-82000000D03*
X148400000Y-75600000D03*
X143200000Y-87700000D03*
X144150000Y-88200000D03*
X163500000Y-73600000D03*
X186000000Y-83000000D03*
X184500000Y-86100000D03*
X161500000Y-85600000D03*
X169900000Y-72000000D03*
X175500000Y-73300000D03*
X178800000Y-78100000D03*
X173700000Y-84700000D03*
X178800000Y-87950000D03*
X176800000Y-73800000D03*
X163000000Y-83650000D03*
X177800000Y-73500000D03*
X156400000Y-86400000D03*
X146100000Y-76600000D03*
X143400000Y-88900000D03*
X185500000Y-77300000D03*
X156100000Y-72800000D03*
X146300000Y-94700000D03*
X183500000Y-75300000D03*
X165300000Y-73000000D03*
X165400000Y-79100000D03*
X145000000Y-93400000D03*
X152350000Y-88200000D03*
X147850000Y-72450000D03*
X143150000Y-79100000D03*
X181000000Y-76300000D03*
X159600000Y-73100000D03*
X159200000Y-71800000D03*
X142700000Y-76100000D03*
X161400000Y-81800000D03*
X154200000Y-74300000D03*
X143900000Y-93400000D03*
X146500000Y-91700000D03*
X177700000Y-74700000D03*
X176900000Y-75400000D03*
X146400000Y-90400000D03*
X167600000Y-78700000D03*
X164100000Y-71700000D03*
X162500000Y-88000000D03*
X166100000Y-77700000D03*
X174400000Y-72000000D03*
X160700000Y-87000000D03*
X147900000Y-87800000D03*
X154450000Y-77100000D03*
X163000000Y-84600000D03*
X180900000Y-77800000D03*
X182900000Y-80500000D03*
X183500000Y-74400000D03*
X176700000Y-87650000D03*
X143950000Y-84250000D03*
X161000000Y-88000000D03*
X164100000Y-82700000D03*
X174650000Y-84650000D03*
X161900000Y-75000000D03*
X191832049Y-94787563D03*
X169050000Y-72600000D03*
X177800000Y-72400000D03*
X181600000Y-75200000D03*
X157100000Y-74200000D03*
X145100000Y-82650000D03*
X172000000Y-73900000D03*
X176500000Y-76900000D03*
X146400000Y-86400000D03*
X143900000Y-86700000D03*
X160100000Y-80900000D03*
X184800000Y-81900000D03*
X155800000Y-73900000D03*
X182300000Y-76400000D03*
X147800000Y-90500000D03*
X177800000Y-92600000D03*
X178650000Y-86750000D03*
X184700000Y-83800000D03*
X145100000Y-76600000D03*
X144000000Y-89600000D03*
X181200000Y-73600000D03*
X183700000Y-83100000D03*
X143950000Y-71850000D03*
X143200000Y-80200000D03*
X170650000Y-86700000D03*
X162100000Y-73500000D03*
X143400000Y-75400000D03*
X159600000Y-87700000D03*
X183900000Y-81600000D03*
X166100000Y-80400000D03*
X144900000Y-94400000D03*
X144250000Y-82650000D03*
X144000000Y-77300000D03*
X178100000Y-77200000D03*
X144650000Y-74950000D03*
X149600000Y-75600000D03*
X178800000Y-76500000D03*
X162500000Y-93300000D03*
X184700000Y-76100000D03*
X150700000Y-80000000D03*
X182500000Y-86800000D03*
X155150000Y-88950000D03*
X155200000Y-71900000D03*
X164300000Y-78000000D03*
X171400000Y-72800000D03*
X150600000Y-88650000D03*
X158200000Y-79600000D03*
X183600000Y-80100000D03*
X180300000Y-73000000D03*
X143200000Y-90600000D03*
X175900000Y-89300000D03*
X144000000Y-80300000D03*
X158000000Y-80700000D03*
X153000000Y-72750000D03*
X182100000Y-72400000D03*
X185500000Y-81100000D03*
X157700000Y-71900000D03*
X147275000Y-88225000D03*
X164800000Y-76300000D03*
X143700000Y-74600000D03*
X176700000Y-81700000D03*
X155200000Y-90100000D03*
X186100000Y-85900000D03*
X153400000Y-71700000D03*
X158700000Y-81800000D03*
X169700000Y-76200000D03*
X155750000Y-93450000D03*
X178950000Y-80300000D03*
X162800000Y-79200000D03*
X170200000Y-73100000D03*
X144200000Y-73000000D03*
X147000000Y-71800000D03*
X183900000Y-84500000D03*
X160100000Y-93300000D03*
G04 #@! TO.N,+3.3V*
X163500000Y-87950000D03*
X150600000Y-86100000D03*
X156200000Y-87600000D03*
X154750000Y-91500000D03*
X147850000Y-74650000D03*
X154775000Y-82625000D03*
X189707532Y-96967339D03*
X147850000Y-73600000D03*
X191400000Y-94024869D03*
X149500000Y-83525000D03*
G04 #@! TO.N,+3.3VA*
X146700000Y-79700000D03*
X145500000Y-75600000D03*
G04 #@! TO.N,/AOUT*
X146800000Y-80200000D03*
X149900000Y-89700000D03*
G04 #@! TO.N,/BATP*
X150800000Y-84600000D03*
X162500000Y-86000000D03*
G04 #@! TO.N,/PUMP*
X152800000Y-83800000D03*
X163850000Y-74850000D03*
G04 #@! TO.N,/VDD_SPI*
X155295000Y-82200000D03*
X158900000Y-82800000D03*
G04 #@! TO.N,/HOLD*
X157365000Y-81800000D03*
X155100000Y-81500000D03*
G04 #@! TO.N,/WP*
X155000000Y-78150000D03*
X154200000Y-80200000D03*
G04 #@! TO.N,/CS*
X154900000Y-79900000D03*
X156200000Y-79900000D03*
G04 #@! TO.N,/DI*
X156700000Y-79400000D03*
X156000000Y-81100000D03*
G04 #@! TD*
G04 #@! TO.N,+5V*
D53*
X174600000Y-78700000D02*
X174600000Y-77300000D01*
X176200000Y-84300000D02*
X175500000Y-84300000D01*
X181350000Y-85900000D02*
X182300000Y-84950000D01*
X175500000Y-76400000D02*
X174600000Y-77300000D01*
X166694804Y-83200000D02*
X166425000Y-83469804D01*
X167900000Y-87700000D02*
X167600000Y-87400000D01*
X172720000Y-85600000D02*
X172720000Y-84720000D01*
X172720000Y-85600000D02*
X172720000Y-86620000D01*
X167600000Y-87400000D02*
X167600000Y-86700000D01*
X172250000Y-87150000D02*
X172750000Y-87150000D01*
X174700000Y-83000000D02*
X174900000Y-82800000D01*
X175650000Y-81100000D02*
X175600000Y-81050000D01*
X174700000Y-83761590D02*
X174961590Y-83761590D01*
X172050000Y-84750000D02*
X169730196Y-84750000D01*
X166425000Y-83469804D02*
X166425000Y-84130196D01*
X168180196Y-83200000D02*
X166694804Y-83200000D01*
X172080000Y-84780000D02*
X172050000Y-84750000D01*
X174900000Y-79000000D02*
X176500000Y-79000000D01*
X172100000Y-84780000D02*
X172100000Y-86500000D01*
X172250000Y-86650000D02*
X172100000Y-86800000D01*
X174900000Y-79000000D02*
X174600000Y-78700000D01*
X172100000Y-84780000D02*
X172080000Y-84780000D01*
X174700000Y-83500000D02*
X174700000Y-83761590D01*
X175500000Y-75000000D02*
X175500000Y-76400000D01*
X166800000Y-86700000D02*
X167200000Y-86700000D01*
X171600000Y-88000000D02*
X171300000Y-87700000D01*
X174700000Y-83761590D02*
X174461590Y-84000000D01*
X171250000Y-92750000D02*
X171600000Y-92400000D01*
X172580000Y-84580000D02*
X172300000Y-84580000D01*
X182300000Y-81800000D02*
X181950000Y-81450000D01*
X172750000Y-86650000D02*
X172250000Y-86650000D01*
X171600000Y-92400000D02*
X171600000Y-88000000D01*
X172100000Y-86800000D02*
X172100000Y-87000000D01*
X166575000Y-86475000D02*
X166800000Y-86700000D01*
X180520000Y-81100000D02*
X175650000Y-81100000D01*
X172720000Y-86620000D02*
X172750000Y-86650000D01*
X174600000Y-80050000D02*
X174600000Y-79300000D01*
X177550000Y-85650000D02*
X176200000Y-84300000D01*
X166575000Y-84280196D02*
X166575000Y-86475000D01*
X177550000Y-87040000D02*
X177550000Y-85650000D01*
X172720000Y-84720000D02*
X172580000Y-84580000D01*
X174700000Y-83000000D02*
X174700000Y-83500000D01*
X167600000Y-86700000D02*
X168740000Y-86700000D01*
X175600000Y-81050000D02*
X174600000Y-80050000D01*
X173160000Y-84000000D02*
X172580000Y-84580000D01*
X172100000Y-87000000D02*
X172250000Y-87150000D01*
X174961590Y-83761590D02*
X175500000Y-84300000D01*
X167437500Y-86537500D02*
X167600000Y-86700000D01*
X171300000Y-87700000D02*
X167900000Y-87700000D01*
X174900000Y-82800000D02*
X174900000Y-81750000D01*
X180520000Y-85900000D02*
X181350000Y-85900000D01*
X174600000Y-79300000D02*
X174900000Y-79000000D01*
X181950000Y-81450000D02*
X181727893Y-81450000D01*
X182300000Y-84950000D02*
X182300000Y-81800000D01*
X167437500Y-86462500D02*
X167437500Y-86537500D01*
X169730196Y-84750000D02*
X168180196Y-83200000D01*
X174075000Y-83000000D02*
X174700000Y-83000000D01*
X172100000Y-86500000D02*
X172250000Y-86650000D01*
X174461590Y-84000000D02*
X173160000Y-84000000D01*
X181727893Y-81450000D02*
X181377893Y-81100000D01*
X181377893Y-81100000D02*
X180520000Y-81100000D01*
X166425000Y-84130196D02*
X166575000Y-84280196D01*
X167437500Y-86462500D02*
X167437500Y-85700000D01*
X167200000Y-86700000D02*
X167437500Y-86462500D01*
X169710000Y-92750000D02*
X171250000Y-92750000D01*
X172300000Y-84580000D02*
X172100000Y-84780000D01*
X174900000Y-81750000D02*
X175600000Y-81050000D01*
G04 #@! TO.N,GND*
D54*
X147400000Y-88350000D02*
X147275000Y-88225000D01*
D55*
X178700000Y-86700000D02*
X178650000Y-86750000D01*
D54*
X154005000Y-83575000D02*
X154000000Y-83580000D01*
D55*
X155750000Y-93450000D02*
X155750000Y-92480000D01*
X160000000Y-91675000D02*
X160250000Y-91425000D01*
D53*
X175925000Y-83000000D02*
X175507344Y-83000000D01*
D54*
X147400000Y-89250000D02*
X147400000Y-88350000D01*
X159165000Y-91175000D02*
X159300000Y-91310000D01*
D55*
X180520000Y-80300000D02*
X179000000Y-80300000D01*
X159750000Y-90425000D02*
X159250000Y-89925000D01*
D54*
X152700000Y-88200000D02*
X152350000Y-88200000D01*
D53*
X149600000Y-75600000D02*
X150220000Y-75600000D01*
D56*
X148865000Y-72725000D02*
X148865000Y-72693866D01*
D55*
X163000000Y-84600000D02*
X161980000Y-84600000D01*
D53*
X175250000Y-82742656D02*
X175250000Y-82200000D01*
D55*
X155210000Y-90090000D02*
X155200000Y-90100000D01*
D54*
X160500000Y-90675000D02*
X160250000Y-90925000D01*
D53*
X191280736Y-94642468D02*
X191417339Y-94605864D01*
D55*
X164100000Y-83680000D02*
X164120000Y-83700000D01*
X174650000Y-85585000D02*
X174665000Y-85600000D01*
X173700000Y-84700000D02*
X173700000Y-85580000D01*
D53*
X148400000Y-76330000D02*
X148420000Y-76350000D01*
D55*
X160700000Y-87000000D02*
X161520000Y-87000000D01*
X155180000Y-88980000D02*
X155150000Y-88950000D01*
X149200000Y-72450000D02*
X149300000Y-72550000D01*
X191300447Y-95508327D02*
X191695449Y-94824166D01*
X144000000Y-80300000D02*
X144720000Y-80300000D01*
X154450000Y-77100000D02*
X155682500Y-77100000D01*
X176900000Y-82100000D02*
X177490000Y-82100000D01*
D53*
X191763749Y-94805865D02*
X191832049Y-94787563D01*
D54*
X160335000Y-90175000D02*
X160200000Y-90040000D01*
D55*
X159350000Y-92455000D02*
X159500000Y-92305000D01*
X153000000Y-72750000D02*
X153000000Y-73720000D01*
X160100000Y-93300000D02*
X160100000Y-92405000D01*
D53*
X175750000Y-81700000D02*
X176700000Y-81700000D01*
D55*
X162030000Y-83650000D02*
X161980000Y-83600000D01*
X170650000Y-86700000D02*
X169760000Y-86700000D01*
D54*
X151850000Y-84100000D02*
X151850000Y-83851039D01*
D53*
X191105736Y-94945577D02*
X191280736Y-94642468D01*
X175507344Y-83000000D02*
X175250000Y-82742656D01*
D54*
X151698961Y-83700000D02*
X151080000Y-83700000D01*
X147275000Y-88225000D02*
X147250000Y-88200000D01*
D53*
X150220000Y-75600000D02*
X150320000Y-75700000D01*
X175250000Y-82200000D02*
X175750000Y-81700000D01*
D55*
X162500000Y-88970000D02*
X162510000Y-88980000D01*
X146000000Y-72620000D02*
X145070000Y-72620000D01*
X146100000Y-76600000D02*
X146100000Y-77270000D01*
D54*
X175650000Y-87650000D02*
X176700000Y-87650000D01*
D55*
X159750000Y-90675000D02*
X159750000Y-90490000D01*
X174780000Y-89300000D02*
X175900000Y-89300000D01*
X155682500Y-77100000D02*
X155695000Y-77112500D01*
X169050000Y-72600000D02*
X167810000Y-72600000D01*
X163090000Y-84690000D02*
X163000000Y-84600000D01*
X159500000Y-91675000D02*
X159250000Y-91425000D01*
D54*
X154800000Y-83575000D02*
X154005000Y-83575000D01*
D55*
X159350000Y-93300000D02*
X159350000Y-92455000D01*
X149300000Y-74250000D02*
X149300000Y-72550000D01*
D54*
X153000000Y-88500000D02*
X152700000Y-88200000D01*
D53*
X190206217Y-95003589D02*
X190422723Y-95128589D01*
D55*
X160100000Y-92405000D02*
X160000000Y-92305000D01*
X191695449Y-94824166D02*
X191832049Y-94787563D01*
X174650000Y-84650000D02*
X174650000Y-85585000D01*
X176700000Y-81900000D02*
X176900000Y-82100000D01*
D53*
X191417339Y-94605864D02*
X191763749Y-94805865D01*
D54*
X151850000Y-83851039D02*
X151698961Y-83700000D01*
D55*
X149610000Y-88650000D02*
X149600000Y-88660000D01*
X156030000Y-90090000D02*
X155210000Y-90090000D01*
X159500000Y-92225000D02*
X159500000Y-91675000D01*
X162500000Y-92410000D02*
X162510000Y-92400000D01*
X164000000Y-84690000D02*
X163090000Y-84690000D01*
D54*
X153000000Y-89210000D02*
X153000000Y-88500000D01*
D55*
X163000000Y-83650000D02*
X162030000Y-83650000D01*
X150600000Y-88650000D02*
X149610000Y-88650000D01*
X145070000Y-72620000D02*
X144850000Y-72400000D01*
X180320000Y-86700000D02*
X178700000Y-86700000D01*
X159750000Y-90490000D02*
X160200000Y-90040000D01*
D53*
X148400000Y-75600000D02*
X148400000Y-76330000D01*
D55*
X145100000Y-76600000D02*
X145100000Y-77270000D01*
X147000000Y-71825000D02*
X147000000Y-72620000D01*
D54*
X160250000Y-90925000D02*
X160250000Y-91425000D01*
D55*
X159750000Y-90675000D02*
X159750000Y-90425000D01*
X160250000Y-91425000D02*
X160250000Y-91175000D01*
X162500000Y-93300000D02*
X162500000Y-92410000D01*
X178650000Y-85760000D02*
X178650000Y-86750000D01*
X160000000Y-92305000D02*
X160000000Y-91675000D01*
X147850000Y-72450000D02*
X149200000Y-72450000D01*
D53*
X147400000Y-75600000D02*
X147400000Y-76320000D01*
D55*
X176700000Y-81700000D02*
X176700000Y-81900000D01*
X173700000Y-85580000D02*
X173680000Y-85600000D01*
X156030000Y-88980000D02*
X155180000Y-88980000D01*
D53*
X190422723Y-95128589D02*
X191105736Y-94945577D01*
D55*
X160250000Y-91175000D02*
X159750000Y-90675000D01*
X173700000Y-84650000D02*
X173700000Y-84700000D01*
D54*
X161225000Y-90675000D02*
X160500000Y-90675000D01*
D55*
X164100000Y-82700000D02*
X164100000Y-83680000D01*
D54*
X158275000Y-91175000D02*
X159165000Y-91175000D01*
X161225000Y-90175000D02*
X160335000Y-90175000D01*
D55*
X162500000Y-88000000D02*
X162500000Y-88970000D01*
X144000000Y-81300000D02*
X144720000Y-81300000D01*
X165600000Y-76050000D02*
X167125000Y-76050000D01*
G04 #@! TO.N,+3.3V*
D53*
X189806217Y-95696409D02*
X190087675Y-95858908D01*
D54*
X154775000Y-82625000D02*
X154005000Y-82625000D01*
D55*
X190997722Y-94132660D02*
X191400000Y-94024869D01*
D53*
X154000000Y-82050000D02*
X154000000Y-82620000D01*
D55*
X156200000Y-87600000D02*
X155220000Y-87600000D01*
D54*
X150600000Y-86100000D02*
X150350000Y-86100000D01*
D55*
X147850000Y-74650000D02*
X147060000Y-74650000D01*
X155220000Y-87600000D02*
X155200000Y-87620000D01*
D53*
X156700000Y-90700000D02*
X156990000Y-90410000D01*
X189899278Y-96385223D02*
X189945031Y-96555976D01*
X155750000Y-91520000D02*
X155750000Y-91050000D01*
D55*
X147020000Y-73600000D02*
X147000000Y-73580000D01*
X191400000Y-94024869D02*
X191407529Y-94022852D01*
D53*
X157575000Y-90175000D02*
X157490000Y-90090000D01*
X156100000Y-90700000D02*
X156700000Y-90700000D01*
X157490000Y-90090000D02*
X156990000Y-90090000D01*
X189945031Y-96555976D02*
X189707532Y-96967339D01*
D55*
X190443468Y-93812659D02*
X190997722Y-94132660D01*
D53*
X190124278Y-95995511D02*
X189899278Y-96385223D01*
D55*
X189707532Y-96967339D02*
X188893468Y-96497338D01*
D53*
X149950000Y-83150000D02*
X149950000Y-82450000D01*
X150120000Y-83700000D02*
X150120000Y-83320000D01*
D55*
X154750000Y-91500000D02*
X155730000Y-91500000D01*
X147060000Y-74650000D02*
X147010000Y-74600000D01*
D53*
X149675000Y-83700000D02*
X150120000Y-83700000D01*
D55*
X155730000Y-91500000D02*
X155750000Y-91520000D01*
X163500000Y-87950000D02*
X163500000Y-88970000D01*
D53*
X156990000Y-90410000D02*
X156990000Y-90090000D01*
X149500000Y-83525000D02*
X149675000Y-83700000D01*
X157990000Y-90175000D02*
X157575000Y-90175000D01*
D54*
X150040000Y-85790000D02*
X149600000Y-85790000D01*
X154005000Y-82625000D02*
X154000000Y-82620000D01*
X150350000Y-86100000D02*
X150040000Y-85790000D01*
D53*
X150120000Y-83320000D02*
X149950000Y-83150000D01*
X155750000Y-91050000D02*
X156100000Y-90700000D01*
X153700000Y-81750000D02*
X154000000Y-82050000D01*
X190087675Y-95858908D02*
X190124278Y-95995511D01*
X153150000Y-81750000D02*
X153700000Y-81750000D01*
D55*
X163500000Y-88970000D02*
X163510000Y-88980000D01*
X147850000Y-73600000D02*
X147020000Y-73600000D01*
D53*
X154730000Y-82620000D02*
X154775000Y-82575000D01*
G04 #@! TO.N,+3.3VA*
X146700000Y-77000000D02*
X146700000Y-75500000D01*
X145990000Y-75090000D02*
X145990000Y-75110000D01*
X149380000Y-76350000D02*
X149380000Y-75980000D01*
X147650000Y-79250000D02*
X147500000Y-79100000D01*
X149450000Y-77550000D02*
X149450000Y-76420000D01*
X146300000Y-80300000D02*
X146100000Y-80500000D01*
X145900000Y-80300000D02*
X146100000Y-80500000D01*
X148250000Y-79250000D02*
X147650000Y-79250000D01*
X146700000Y-75500000D02*
X146400000Y-75200000D01*
X147650000Y-78750000D02*
X147500000Y-78900000D01*
X148600000Y-75200000D02*
X147000000Y-75200000D01*
X145680000Y-81300000D02*
X145910051Y-81300000D01*
X146300000Y-80100000D02*
X146300000Y-80300000D01*
X149380000Y-75980000D02*
X148600000Y-75200000D01*
X145990000Y-75090000D02*
X145990000Y-74600000D01*
X148250000Y-78750000D02*
X147650000Y-78750000D01*
X149450000Y-76420000D02*
X149380000Y-76350000D01*
X146100000Y-81110051D02*
X146100000Y-80500000D01*
X146700000Y-75500000D02*
X147000000Y-75200000D01*
X146700000Y-79700000D02*
X146300000Y-80100000D01*
X146400000Y-75200000D02*
X146100000Y-75200000D01*
X148950000Y-77550000D02*
X148350000Y-77550000D01*
X145990000Y-75110000D02*
X145500000Y-75600000D01*
X145910051Y-81300000D02*
X146100000Y-81110051D01*
X148350000Y-77550000D02*
X148080000Y-77280000D01*
D55*
X146000000Y-74590000D02*
X145990000Y-74600000D01*
D53*
X146700000Y-79700000D02*
X147300000Y-79100000D01*
X147400000Y-77280000D02*
X146980000Y-77280000D01*
X148080000Y-77280000D02*
X147400000Y-77280000D01*
X145680000Y-80300000D02*
X145900000Y-80300000D01*
X146100000Y-75200000D02*
X145990000Y-75090000D01*
X146980000Y-77280000D02*
X146700000Y-77000000D01*
D55*
X146000000Y-73580000D02*
X146000000Y-74590000D01*
D53*
X147300000Y-79100000D02*
X147500000Y-79100000D01*
X147500000Y-78900000D02*
X147500000Y-79100000D01*
G04 #@! TO.N,Net-(U5-FB)*
X162925000Y-89525000D02*
X163000000Y-89600000D01*
X163000000Y-89600000D02*
X163000000Y-90000000D01*
X163510000Y-90000000D02*
X163000000Y-90000000D01*
X163000000Y-90000000D02*
X162510000Y-90000000D01*
X161925000Y-89675000D02*
X162075000Y-89525000D01*
X161510000Y-89675000D02*
X161925000Y-89675000D01*
X162075000Y-89525000D02*
X162925000Y-89525000D01*
G04 #@! TO.N,Net-(U1-LNA_IN)*
X148250000Y-78250000D02*
X146120000Y-78250000D01*
X146120000Y-78250000D02*
X146100000Y-78230000D01*
X146100000Y-79240000D02*
X146110000Y-79250000D01*
X146100000Y-78230000D02*
X146100000Y-79240000D01*
G04 #@! TO.N,/AOUT*
X152100000Y-92250000D02*
X152100000Y-91000000D01*
X150400000Y-90200000D02*
X149900000Y-89700000D01*
X151300000Y-90200000D02*
X150400000Y-90200000D01*
X147250000Y-79750000D02*
X146800000Y-80200000D01*
X152100000Y-91000000D02*
X151300000Y-90200000D01*
X148250000Y-79750000D02*
X147250000Y-79750000D01*
G04 #@! TO.N,/SCL*
X187512564Y-95469134D02*
X186619134Y-95469134D01*
X154140077Y-94350000D02*
X147150000Y-94350000D01*
X146300000Y-82955026D02*
X146300000Y-81405026D01*
X187585769Y-95742339D02*
X187512564Y-95469134D01*
X145000000Y-84255025D02*
X146300000Y-82955026D01*
X147150000Y-94350000D02*
X145000000Y-92200000D01*
X187968029Y-95830245D02*
X188010122Y-95987339D01*
X188010122Y-95987339D02*
X187585769Y-95742339D01*
X172275000Y-95425000D02*
X155215077Y-95425000D01*
X155215077Y-95425000D02*
X154140077Y-94350000D01*
X188593782Y-94996409D02*
X188160768Y-94746408D01*
X145000000Y-92200000D02*
X145000000Y-84255025D01*
X147455026Y-80250000D02*
X148250000Y-80250000D01*
X147455026Y-80250000D02*
X146300000Y-81405026D01*
X186619134Y-95469134D02*
X185750000Y-94600000D01*
X173100000Y-94600000D02*
X172275000Y-95425000D01*
X187887564Y-94819614D02*
X187512564Y-95469134D01*
X188160768Y-94746408D02*
X187887564Y-94819614D01*
X185750000Y-94600000D02*
X173100000Y-94600000D01*
G04 #@! TO.N,/SDA*
X189179071Y-93082661D02*
X188974167Y-93137564D01*
X188213703Y-94200000D02*
X172994974Y-94200000D01*
X188625721Y-94091089D02*
X188993782Y-94303589D01*
X148250000Y-80750000D02*
X147450000Y-80750000D01*
X147300000Y-94000000D02*
X145350000Y-92050000D01*
X171599997Y-95024999D02*
X155310051Y-95025000D01*
X189403028Y-93344753D02*
X189560122Y-93302661D01*
X146650000Y-83100000D02*
X145350000Y-84400000D01*
X155310051Y-95025000D02*
X154285051Y-94000000D01*
X188427030Y-93986673D02*
X188561668Y-93852035D01*
X188974167Y-93137564D02*
X188561668Y-93852035D01*
X188625721Y-94091089D02*
X188531446Y-94091089D01*
X147450000Y-80750000D02*
X146650000Y-81550000D01*
X189560122Y-93302661D02*
X189179071Y-93082661D01*
X172169973Y-95025001D02*
X171889947Y-95025001D01*
X172994974Y-94200000D02*
X172169973Y-95025001D01*
X188531446Y-94091089D02*
X188427030Y-93986673D01*
X146650000Y-81550000D02*
X146650000Y-83100000D01*
X145350000Y-92050000D02*
X145350000Y-84400000D01*
X188427030Y-93986673D02*
X188213703Y-94200000D01*
X154285051Y-94000000D02*
X147300000Y-94000000D01*
X171889947Y-95025001D02*
X171599997Y-95024999D01*
G04 #@! TO.N,/RESET*
X147000000Y-83875000D02*
X147000000Y-81800000D01*
X148015078Y-84100000D02*
X147575000Y-84100000D01*
X147400000Y-84275000D02*
X147000000Y-83875000D01*
X148900000Y-87500000D02*
X148900000Y-87000000D01*
X149600000Y-87700000D02*
X149100000Y-87700000D01*
X149000000Y-86720000D02*
X149000000Y-85084922D01*
X149090000Y-86810000D02*
X148900000Y-87000000D01*
X147575000Y-84100000D02*
X147400000Y-84275000D01*
X149000000Y-85084922D02*
X148015078Y-84100000D01*
X147400000Y-84275000D02*
X147400000Y-85050000D01*
X149600000Y-86810000D02*
X149090000Y-86810000D01*
X148250000Y-81250000D02*
X147550000Y-81250000D01*
X147550000Y-81250000D02*
X147000000Y-81800000D01*
X149100000Y-87700000D02*
X148900000Y-87500000D01*
X149090000Y-86810000D02*
X149000000Y-86720000D01*
G04 #@! TO.N,/LDR*
X190774633Y-92500000D02*
X191637316Y-93362684D01*
X188132056Y-93786673D02*
X188281597Y-93637132D01*
X188349824Y-93150176D02*
X189000000Y-92500000D01*
X153750000Y-92155026D02*
X153750000Y-92969975D01*
X172025000Y-94675000D02*
X172913327Y-93786673D01*
X148250000Y-81750000D02*
X147650000Y-81750000D01*
X153750000Y-92969975D02*
X155180025Y-94400000D01*
X150416853Y-85525000D02*
X150930026Y-85525000D01*
X172913327Y-93786673D02*
X188132056Y-93786673D01*
X155180025Y-94400000D02*
X158330026Y-94400000D01*
X151447487Y-89852513D02*
X153750000Y-92155026D01*
X149891853Y-85000000D02*
X150416853Y-85525000D01*
X188349824Y-93518959D02*
X188349824Y-93150176D01*
X151447487Y-86042461D02*
X151447487Y-89852513D01*
X150930026Y-85525000D02*
X151447487Y-86042461D01*
D56*
X190790448Y-96391672D02*
X191398776Y-97000000D01*
D53*
X190774632Y-92500000D02*
X191637316Y-93362684D01*
X158330026Y-94400000D02*
X158605025Y-94675000D01*
D56*
X191807883Y-97000000D02*
X193380126Y-95427757D01*
D53*
X147350000Y-82939948D02*
X149410052Y-85000000D01*
X188281597Y-93637132D02*
X188349824Y-93518959D01*
X189000000Y-92500000D02*
X190774632Y-92500000D01*
X147650000Y-81750000D02*
X147350000Y-82050000D01*
X191637316Y-93362684D02*
X193380126Y-95105493D01*
D56*
X191398776Y-97000000D02*
X191807883Y-97000000D01*
D53*
X193380126Y-95105493D02*
X193380126Y-95427757D01*
X149410052Y-85000000D02*
X149891853Y-85000000D01*
X147350000Y-82050000D02*
X147350000Y-82939948D01*
X158605025Y-94675000D02*
X172025000Y-94675000D01*
G04 #@! TO.N,/STAT*
X150036827Y-84650000D02*
X150561827Y-85175000D01*
X154350000Y-90650000D02*
X154100000Y-90900000D01*
X148950000Y-82975000D02*
X148700000Y-83225000D01*
X154350000Y-88450000D02*
X154350000Y-90650000D01*
X158500000Y-94075000D02*
X158750000Y-94325000D01*
X158500000Y-94050000D02*
X158500000Y-94075000D01*
X176050000Y-93250000D02*
X176575000Y-92725000D01*
X151075000Y-85175000D02*
X154350000Y-88450000D01*
X150561827Y-85175000D02*
X151075000Y-85175000D01*
X177478413Y-88131587D02*
X177550000Y-88060000D01*
X154100000Y-92825000D02*
X155325000Y-94050000D01*
X177018413Y-88131587D02*
X177478413Y-88131587D01*
X171600000Y-94325000D02*
X172675000Y-93250000D01*
X172675000Y-93250000D02*
X176050000Y-93250000D01*
X158750000Y-94325000D02*
X171600000Y-94325000D01*
X176575000Y-92725000D02*
X176575000Y-88575000D01*
X148700000Y-83225000D02*
X148700000Y-83794975D01*
X148950000Y-82450000D02*
X148950000Y-82975000D01*
X154100000Y-90900000D02*
X154100000Y-92825000D01*
X148700000Y-83794975D02*
X149555026Y-84650000D01*
X155325000Y-94050000D02*
X158500000Y-94050000D01*
X176575000Y-88575000D02*
X176150000Y-88150000D01*
X175650000Y-88150000D02*
X176150000Y-88150000D01*
X149555026Y-84650000D02*
X150036827Y-84650000D01*
X177018413Y-88131587D02*
X176575000Y-88575000D01*
G04 #@! TO.N,/BATP*
X163300000Y-86800000D02*
X163100000Y-87000000D01*
X149050000Y-83369974D02*
X149450000Y-82969974D01*
X164000000Y-86500000D02*
X164000000Y-85710000D01*
X163300000Y-86500000D02*
X162800000Y-86000000D01*
X150800000Y-84600000D02*
X150500000Y-84300000D01*
X149050000Y-83650000D02*
X149050000Y-83369974D01*
X150500000Y-84300000D02*
X149700000Y-84300000D01*
X164000000Y-86500000D02*
X163300000Y-86500000D01*
X149450000Y-82969974D02*
X149450000Y-82450000D01*
X163300000Y-86500000D02*
X163300000Y-86800000D01*
X162800000Y-86000000D02*
X162500000Y-86000000D01*
X165100000Y-86810000D02*
X164310000Y-86810000D01*
X149700000Y-84300000D02*
X149050000Y-83650000D01*
X164310000Y-86810000D02*
X164000000Y-86500000D01*
X163100000Y-87000000D02*
X162480000Y-87000000D01*
G04 #@! TO.N,/PUMP*
X164550000Y-74150000D02*
X167125000Y-74150000D01*
X167125000Y-74150000D02*
X167125000Y-73625000D01*
X152400001Y-83800000D02*
X152800000Y-83800000D01*
X167125000Y-73625000D02*
X166790000Y-73290000D01*
X151450000Y-82450000D02*
X151450000Y-82849999D01*
X151450000Y-82849999D02*
X152400001Y-83800000D01*
X163850000Y-74850000D02*
X164550000Y-74150000D01*
X166790000Y-73290000D02*
X166790000Y-72600000D01*
G04 #@! TO.N,/BOOT*
X152300000Y-83200000D02*
X153200000Y-83200000D01*
X154100000Y-84300000D02*
X153200000Y-84300000D01*
X151950000Y-82850000D02*
X152300000Y-83200000D01*
X153200000Y-83200000D02*
X153400000Y-83400000D01*
X154300000Y-85300000D02*
X154300000Y-84500000D01*
X153000000Y-84500000D02*
X153000000Y-85010000D01*
X153400000Y-84300000D02*
X153200000Y-84300000D01*
X153400000Y-83400000D02*
X153400000Y-84300000D01*
X155200000Y-86600000D02*
X155200000Y-86200000D01*
X151950000Y-82450000D02*
X151950000Y-82850000D01*
X154300000Y-84500000D02*
X154100000Y-84300000D01*
X155200000Y-86200000D02*
X154300000Y-85300000D01*
X153200000Y-84300000D02*
X153000000Y-84500000D01*
G04 #@! TO.N,/VDD_SPI*
X161020000Y-83120000D02*
X161020000Y-83600000D01*
D55*
X160187500Y-84287500D02*
X159505000Y-84287500D01*
D53*
X155295000Y-82200000D02*
X155000000Y-82200000D01*
X160700000Y-82800000D02*
X161020000Y-83120000D01*
X158900000Y-82800000D02*
X160700000Y-82800000D01*
D55*
X161020000Y-84600000D02*
X160500000Y-84600000D01*
D53*
X155000000Y-82200000D02*
X154050000Y-81250000D01*
D55*
X161020000Y-83600000D02*
X161020000Y-84600000D01*
D53*
X154050000Y-81250000D02*
X153150000Y-81250000D01*
D55*
X160500000Y-84600000D02*
X160187500Y-84287500D01*
G04 #@! TO.N,/HOLD*
D53*
X154350000Y-80750000D02*
X155100000Y-81500000D01*
X153150000Y-80750000D02*
X154350000Y-80750000D01*
X158235000Y-82635000D02*
X158235000Y-84287500D01*
X157400000Y-81800000D02*
X158235000Y-82635000D01*
X157365000Y-81800000D02*
X157400000Y-81800000D01*
G04 #@! TO.N,/WP*
X154150000Y-80250000D02*
X154200000Y-80200000D01*
X155346778Y-78200000D02*
X156689999Y-78200000D01*
X155296778Y-78150000D02*
X155346778Y-78200000D01*
X156689999Y-78200000D02*
X156965000Y-77924999D01*
X156965000Y-77924999D02*
X156965000Y-77112500D01*
X153150000Y-80250000D02*
X154150000Y-80250000D01*
X155000000Y-78150000D02*
X155296778Y-78150000D01*
G04 #@! TO.N,/CS*
X159100000Y-78600000D02*
X158200000Y-78600000D01*
X154700000Y-79900000D02*
X154550000Y-79750000D01*
X158200000Y-78600000D02*
X157500000Y-79300000D01*
X157300000Y-79900000D02*
X156200000Y-79900000D01*
X159505000Y-78195000D02*
X159100000Y-78600000D01*
X159505000Y-77112500D02*
X159505000Y-78195000D01*
X154900000Y-79900000D02*
X154700000Y-79900000D01*
X154550000Y-79750000D02*
X153150000Y-79750000D01*
X157500000Y-79700000D02*
X157300000Y-79900000D01*
X157500000Y-79300000D02*
X157500000Y-79700000D01*
G04 #@! TO.N,/CLK*
X154850000Y-79250000D02*
X153150000Y-79250000D01*
X156965000Y-84287500D02*
X156965000Y-81365000D01*
X156965000Y-81365000D02*
X154850000Y-79250000D01*
G04 #@! TO.N,/DI*
X156000000Y-81100000D02*
X155695000Y-81405000D01*
X154994974Y-78900000D02*
X154000000Y-78900000D01*
X155194974Y-79100000D02*
X154994974Y-78900000D01*
X155695000Y-81405000D02*
X155695000Y-84287500D01*
X153850000Y-78750000D02*
X153150000Y-78750000D01*
X154000000Y-78900000D02*
X153850000Y-78750000D01*
X156500000Y-79200000D02*
X155300000Y-79200000D01*
X155200000Y-79100000D02*
X155194974Y-79100000D01*
X156700000Y-79400000D02*
X156500000Y-79200000D01*
X155300000Y-79200000D02*
X155200000Y-79100000D01*
G04 #@! TO.N,/DO*
X154050000Y-78250000D02*
X154350000Y-78550000D01*
X154350000Y-78550000D02*
X157750000Y-78550000D01*
X153150000Y-78250000D02*
X154050000Y-78250000D01*
X158235000Y-78065000D02*
X158235000Y-77112500D01*
X157750000Y-78550000D02*
X158235000Y-78065000D01*
G04 #@! TO.N,/USB_D-*
D56*
X174150000Y-83450000D02*
X173667590Y-83450000D01*
X160231802Y-75600000D02*
X154218198Y-75600000D01*
X168335526Y-82825000D02*
X167106802Y-82825000D01*
X160825000Y-76193198D02*
X160231802Y-75600000D01*
X153043198Y-76275000D02*
X152450000Y-76868198D01*
X152450000Y-76868198D02*
X152450000Y-77550000D01*
X173667590Y-83450000D02*
X173450000Y-83232410D01*
X169635526Y-84125000D02*
X168335526Y-82825000D01*
X154218198Y-75600000D02*
X153543198Y-76275000D01*
X173450000Y-83232410D02*
X173285788Y-83232410D01*
X172393198Y-84125000D02*
X169635526Y-84125000D01*
X167106802Y-82825000D02*
X166206802Y-81925000D01*
X153543198Y-76275000D02*
X153043198Y-76275000D01*
X162906802Y-81925000D02*
X160825000Y-79843198D01*
X166206802Y-81925000D02*
X162906802Y-81925000D01*
X160825000Y-79843198D02*
X160825000Y-76193198D01*
X173285788Y-83232410D02*
X172393198Y-84125000D01*
X174150000Y-83537500D02*
X174150000Y-83450000D01*
G04 #@! TO.N,/USB_D+*
X174150000Y-82550000D02*
X173667590Y-82550000D01*
X152856802Y-75825000D02*
X151950000Y-76731802D01*
X169824722Y-83675000D02*
X168522742Y-82373020D01*
X160418198Y-75150000D02*
X154031802Y-75150000D01*
X172206802Y-83675000D02*
X169824722Y-83675000D01*
X174150000Y-82462500D02*
X174150000Y-82550000D01*
X153356802Y-75825000D02*
X152856802Y-75825000D01*
X173114212Y-82767590D02*
X172206802Y-83675000D01*
X166461079Y-81475000D02*
X163093198Y-81475000D01*
X154031802Y-75150000D02*
X153356802Y-75825000D01*
X173450000Y-82767590D02*
X173114212Y-82767590D01*
X161275000Y-79656802D02*
X161275000Y-76006802D01*
X163093198Y-81475000D02*
X161275000Y-79656802D01*
X151950000Y-76731802D02*
X151950000Y-77550000D01*
X161275000Y-76006802D02*
X160418198Y-75150000D01*
X167359099Y-82373020D02*
X166461079Y-81475000D01*
X168522742Y-82373020D02*
X167359099Y-82373020D01*
X173667590Y-82550000D02*
X173450000Y-82767590D01*
G04 #@! TO.N,/XTAL_N*
D53*
X150575000Y-76875000D02*
X150450000Y-77000000D01*
X152580000Y-74680000D02*
X152500000Y-74600000D01*
X152350000Y-74250000D02*
X151500000Y-74250000D01*
X153000000Y-75151472D02*
X151276472Y-76875000D01*
X152500000Y-74400000D02*
X152350000Y-74250000D01*
X150450000Y-77550000D02*
X150450000Y-77000000D01*
X151276472Y-76875000D02*
X150575000Y-76875000D01*
X152500000Y-74600000D02*
X152500000Y-74400000D01*
X153000000Y-74680000D02*
X153000000Y-75151472D01*
X153000000Y-74680000D02*
X152580000Y-74680000D01*
G04 #@! TO.N,/XTAL_P*
X149950000Y-77550000D02*
X149950000Y-77005025D01*
X150430026Y-76525000D02*
X151131498Y-76525000D01*
X149950000Y-77005025D02*
X150430026Y-76525000D01*
X150800000Y-75200000D02*
X151200000Y-75200000D01*
X151131498Y-76525000D02*
X151280000Y-76376498D01*
X151280000Y-75280000D02*
X151280000Y-75700000D01*
X150750000Y-72550000D02*
X150400000Y-72900000D01*
X151200000Y-75200000D02*
X151280000Y-75280000D01*
X151500000Y-72550000D02*
X150750000Y-72550000D01*
X151280000Y-76376498D02*
X151280000Y-75700000D01*
X150400000Y-74800000D02*
X150800000Y-75200000D01*
X150400000Y-72900000D02*
X150400000Y-74800000D01*
G04 #@! TO.N,Net-(BT1-+)*
X171950000Y-87650000D02*
X171600000Y-87300000D01*
X173820000Y-89300000D02*
X173200000Y-89300000D01*
X172250000Y-87650000D02*
X172200000Y-87700000D01*
X173500000Y-90250000D02*
X173499999Y-91750000D01*
X172200000Y-87700000D02*
X172200000Y-88100000D01*
X172200000Y-88200000D02*
X172250000Y-88150000D01*
X168285222Y-83800000D02*
X167437500Y-83800000D01*
X172250000Y-87650000D02*
X171950000Y-87650000D01*
X169700000Y-85214778D02*
X168285222Y-83800000D01*
X172600000Y-88700000D02*
X172300000Y-88700000D01*
X172200000Y-88100000D02*
X172250000Y-88150000D01*
X172750000Y-87650000D02*
X172250000Y-87650000D01*
X172200000Y-88600000D02*
X172200000Y-88200000D01*
X172250000Y-88150000D02*
X172750000Y-88150000D01*
X171600000Y-86836827D02*
X170563173Y-85800000D01*
X170563173Y-85800000D02*
X169700000Y-85800000D01*
X169700000Y-85800000D02*
X169700000Y-85214778D01*
X172300000Y-88700000D02*
X172200000Y-88600000D01*
X173820000Y-89300000D02*
X173820000Y-89930000D01*
X173200000Y-89300000D02*
X172600000Y-88700000D01*
X173820000Y-89930000D02*
X173500000Y-90250000D01*
X171600000Y-87300000D02*
X171600000Y-86836827D01*
G04 #@! TO.N,Net-(U5-VAUX)*
X158275000Y-89675000D02*
X158275000Y-89375000D01*
X158275000Y-89375000D02*
X157880000Y-88980000D01*
X157880000Y-88980000D02*
X156990000Y-88980000D01*
G04 #@! TO.N,Net-(U5-L)*
X156910000Y-91190000D02*
X157425000Y-90675000D01*
X156910000Y-91500000D02*
X156910000Y-91190000D01*
X157425000Y-90675000D02*
X157990000Y-90675000D01*
G04 #@! TO.N,/VIN*
X157990000Y-92910000D02*
X157990000Y-92890000D01*
X157875000Y-93025000D02*
X157990000Y-92910000D01*
X165710000Y-93790000D02*
X165600000Y-93900000D01*
X159000000Y-93900000D02*
X157990000Y-92890000D01*
X156910000Y-92520000D02*
X156910000Y-92935000D01*
X161265000Y-93900000D02*
X159000000Y-93900000D01*
X157990000Y-91675000D02*
X157990000Y-92890000D01*
X165600000Y-93900000D02*
X161700000Y-93900000D01*
X161510000Y-91675000D02*
X161510000Y-93655000D01*
X161510000Y-93710000D02*
X161510000Y-93655000D01*
X157000000Y-93025000D02*
X157875000Y-93025000D01*
X165710000Y-88980000D02*
X165710000Y-92580000D01*
X165710000Y-92580000D02*
X165710000Y-93790000D01*
X156910000Y-92935000D02*
X157000000Y-93025000D01*
X161700000Y-93900000D02*
X161510000Y-93710000D01*
X161510000Y-93655000D02*
X161265000Y-93900000D01*
G04 #@! TO.N,Net-(U5-UVLO)*
X161840000Y-91175000D02*
X161510000Y-91175000D01*
X163000000Y-91700000D02*
X162900000Y-91800000D01*
X163000000Y-91380000D02*
X163000000Y-91700000D01*
X162900000Y-91800000D02*
X162100000Y-91800000D01*
X162100000Y-91800000D02*
X161925000Y-91625000D01*
X163000000Y-91380000D02*
X163510000Y-91380000D01*
X162510000Y-91380000D02*
X163000000Y-91380000D01*
X161925000Y-91625000D02*
X161925000Y-91260000D01*
X161925000Y-91260000D02*
X161840000Y-91175000D01*
G04 #@! TO.N,/D-*
X180520000Y-84250000D02*
X179800000Y-84250000D01*
X179650000Y-84100000D02*
X179650000Y-83450000D01*
D56*
X176332410Y-83450000D02*
X176550000Y-83232410D01*
X176550000Y-83225000D02*
X179632499Y-83225000D01*
X179850000Y-83250000D02*
X180520000Y-83250000D01*
X179632499Y-83225000D02*
X179657499Y-83250000D01*
D53*
X179650000Y-83450000D02*
X179850000Y-83250000D01*
D56*
X176312501Y-83450000D02*
X176332410Y-83450000D01*
X175850000Y-83537500D02*
X176225001Y-83537500D01*
D53*
X179800000Y-84250000D02*
X179650000Y-84100000D01*
D56*
X179657499Y-83250000D02*
X179850000Y-83250000D01*
X176550000Y-83232410D02*
X176550000Y-83225000D01*
X176225001Y-83537500D02*
X176312501Y-83450000D01*
G04 #@! TO.N,/D+*
X176225001Y-82462500D02*
X176312501Y-82550000D01*
X175850000Y-82462500D02*
X176225001Y-82462500D01*
X179657499Y-82750000D02*
X180520000Y-82750000D01*
D53*
X181250000Y-82750000D02*
X180520000Y-82750000D01*
X181450000Y-82950000D02*
X181250000Y-82750000D01*
D56*
X176332410Y-82550000D02*
X176550000Y-82767590D01*
X176550000Y-82775000D02*
X179632499Y-82775000D01*
D53*
X181450000Y-83500000D02*
X181450000Y-82950000D01*
D56*
X176312501Y-82550000D02*
X176332410Y-82550000D01*
X176550000Y-82767590D02*
X176550000Y-82775000D01*
D53*
X180520000Y-83750000D02*
X181200000Y-83750000D01*
D56*
X179632499Y-82775000D02*
X179657499Y-82750000D01*
D53*
X181200000Y-83750000D02*
X181450000Y-83500000D01*
G04 #@! TO.N,Net-(D2-A)*
X164000000Y-92400000D02*
X163510000Y-92400000D01*
X169700000Y-89000000D02*
X167900000Y-89000000D01*
D55*
X165080000Y-83700000D02*
X165080000Y-84267500D01*
D53*
X167900000Y-89000000D02*
X167600000Y-88700000D01*
X165100000Y-85212500D02*
X165100000Y-85790000D01*
X164105000Y-88185610D02*
X164105000Y-92295000D01*
X165562500Y-84750000D02*
X165862499Y-85049999D01*
X167600000Y-88700000D02*
X167600000Y-88100000D01*
X166451069Y-86951069D02*
X165862499Y-86951069D01*
X164105000Y-92295000D02*
X164000000Y-92400000D01*
X165862499Y-85049999D02*
X165862499Y-86951069D01*
X167600000Y-88100000D02*
X166451069Y-86951069D01*
X164790610Y-87500000D02*
X164105000Y-88185610D01*
D55*
X165080000Y-84267500D02*
X165562500Y-84750000D01*
D53*
X165313568Y-87500000D02*
X164790610Y-87500000D01*
X165862499Y-86951069D02*
X165313568Y-87500000D01*
X165562500Y-84750000D02*
X165100000Y-85212500D01*
G04 #@! TO.N,Net-(U6-PROG)*
X175685000Y-85600000D02*
X175685000Y-86615000D01*
X175685000Y-86615000D02*
X175650000Y-86650000D01*
G04 #@! TO.N,Net-(D3-A)*
X172500000Y-76050000D02*
X171550000Y-75100000D01*
X172500000Y-76050000D02*
X172500000Y-76000000D01*
X169000000Y-75100000D02*
X171550000Y-75100000D01*
X172500000Y-76000000D02*
X173500000Y-75000000D01*
X172500000Y-77500000D02*
X172500000Y-76050000D01*
X172500000Y-77500000D02*
X172500000Y-79000000D01*
G04 #@! TO.N,Net-(J1-CC1)*
X180520000Y-84750000D02*
X178660000Y-84750000D01*
X178660000Y-84750000D02*
X178650000Y-84740000D01*
G04 #@! TO.N,Net-(J1-CC2)*
X179550000Y-81750000D02*
X179200000Y-82100000D01*
X180520000Y-81750000D02*
X179550000Y-81750000D01*
X179200000Y-82100000D02*
X178510000Y-82100000D01*
G04 #@! TO.N,Net-(ANT1-Fed)*
X145100000Y-79240000D02*
X145090000Y-79250000D01*
X142730000Y-78230000D02*
X142700000Y-78200000D01*
X145100000Y-78230000D02*
X142730000Y-78230000D01*
X145100000Y-78230000D02*
X145100000Y-79240000D01*
G04 #@! TD*
G04 #@! TA.AperFunction,Conductor*
G04 #@! TO.N,GND*
G36*
X192033183Y-94580131D02*
G01*
X192062732Y-94601980D01*
X192220739Y-94759987D01*
X192230109Y-94777147D01*
X192243539Y-94791365D01*
X192246511Y-94807185D01*
X192254224Y-94821310D01*
X192252829Y-94840813D01*
X192256440Y-94860033D01*
X192249429Y-94888348D01*
X192249240Y-94891002D01*
X192248170Y-94893435D01*
X192247958Y-94894293D01*
X192245954Y-94899229D01*
X192221242Y-94947732D01*
X192201027Y-95009946D01*
X192199362Y-95014050D01*
X192180281Y-95038080D01*
X192162955Y-95063419D01*
X192158751Y-95065195D01*
X192155915Y-95068768D01*
X192126867Y-95078669D01*
X192098596Y-95090617D01*
X192094100Y-95089838D01*
X192089782Y-95091311D01*
X192059992Y-95083936D01*
X192029750Y-95078702D01*
X192026388Y-95075616D01*
X192021959Y-95074520D01*
X191994963Y-95053250D01*
X191930955Y-94986502D01*
X191901918Y-94966546D01*
X191578953Y-95525940D01*
X191528386Y-95574156D01*
X191459779Y-95587379D01*
X191409566Y-95571327D01*
X191300448Y-95508328D01*
X191300447Y-95508328D01*
X191237698Y-95617013D01*
X191231311Y-95623102D01*
X191228062Y-95631307D01*
X191206413Y-95646842D01*
X191187131Y-95665229D01*
X191178466Y-95666898D01*
X191171297Y-95672044D01*
X191144684Y-95673409D01*
X191118524Y-95678451D01*
X191108496Y-95675266D01*
X191101519Y-95675624D01*
X191069574Y-95662903D01*
X191068705Y-95662627D01*
X191068543Y-95662534D01*
X190959901Y-95599810D01*
X190954350Y-95597162D01*
X190950320Y-95594855D01*
X190950282Y-95594816D01*
X190949925Y-95594628D01*
X190879368Y-95553891D01*
X190864422Y-95553536D01*
X190840174Y-95542810D01*
X190398979Y-95288086D01*
X190398689Y-95287918D01*
X190393080Y-95284659D01*
X190389434Y-95281997D01*
X190238564Y-95194892D01*
X190214647Y-95169673D01*
X190190638Y-95144493D01*
X190190604Y-95144321D01*
X190190485Y-95144195D01*
X190184021Y-95110161D01*
X190177415Y-95075886D01*
X190177475Y-95075697D01*
X190177448Y-95075553D01*
X190177801Y-95074676D01*
X190193467Y-95025673D01*
X190219217Y-94981073D01*
X190269784Y-94932857D01*
X190338391Y-94919635D01*
X190388604Y-94935686D01*
X190497723Y-94998685D01*
X190540722Y-94924209D01*
X190591289Y-94875993D01*
X190659896Y-94862769D01*
X190710110Y-94878821D01*
X191208940Y-95166821D01*
X191208941Y-95166821D01*
X191397578Y-94840091D01*
X191419783Y-94818918D01*
X191440427Y-94796210D01*
X191446185Y-94793743D01*
X191448145Y-94791876D01*
X191472857Y-94782321D01*
X191582528Y-94752935D01*
X191673137Y-94728661D01*
X191805730Y-94663281D01*
X191899572Y-94591280D01*
X191964738Y-94566091D01*
X192033183Y-94580131D01*
G37*
G04 #@! TD.AperFunction*
G04 #@! TA.AperFunction,Conductor*
G36*
X144270501Y-78825185D02*
G01*
X144316256Y-78877989D01*
X144326200Y-78947147D01*
X144322539Y-78964091D01*
X144322336Y-78964788D01*
X144322334Y-78964797D01*
X144319500Y-79000811D01*
X144319500Y-79469784D01*
X144299815Y-79536823D01*
X144258623Y-79576515D01*
X144184619Y-79620282D01*
X144184619Y-79620283D01*
X144070285Y-79734616D01*
X144070278Y-79734625D01*
X143987968Y-79873804D01*
X143987966Y-79873809D01*
X143942855Y-80029081D01*
X143942854Y-80029087D01*
X143941209Y-80049999D01*
X143941210Y-80050000D01*
X144596000Y-80050000D01*
X144663039Y-80069685D01*
X144708794Y-80122489D01*
X144720000Y-80174000D01*
X144720000Y-80300000D01*
X144775500Y-80300000D01*
X144842539Y-80319685D01*
X144888294Y-80372489D01*
X144899500Y-80424000D01*
X144899500Y-80534697D01*
X144902356Y-80570991D01*
X144902357Y-80570997D01*
X144947504Y-80726391D01*
X144947507Y-80726399D01*
X144952732Y-80735233D01*
X144957082Y-80751134D01*
X144964977Y-80763419D01*
X144970000Y-80798354D01*
X144970000Y-80801646D01*
X144952734Y-80864764D01*
X144947507Y-80873601D01*
X144947504Y-80873610D01*
X144902357Y-81029002D01*
X144902356Y-81029008D01*
X144899500Y-81065302D01*
X144899500Y-81534697D01*
X144902356Y-81570991D01*
X144902357Y-81570997D01*
X144947503Y-81726389D01*
X144947505Y-81726393D01*
X144947506Y-81726395D01*
X144952732Y-81735233D01*
X144970000Y-81798352D01*
X144970000Y-82104503D01*
X145116194Y-82062032D01*
X145136384Y-82050091D01*
X145204108Y-82032906D01*
X145262629Y-82050089D01*
X145283605Y-82062494D01*
X145307651Y-82069480D01*
X145439002Y-82107642D01*
X145439005Y-82107642D01*
X145439007Y-82107643D01*
X145475310Y-82110500D01*
X145600500Y-82110500D01*
X145667539Y-82130185D01*
X145713294Y-82182989D01*
X145724500Y-82234500D01*
X145724500Y-82665283D01*
X145704815Y-82732322D01*
X145688181Y-82752964D01*
X144539486Y-83901658D01*
X144475764Y-84012027D01*
X144475763Y-84012029D01*
X144468717Y-84024234D01*
X144463719Y-84032890D01*
X144424874Y-84177865D01*
X144424500Y-84179259D01*
X144424500Y-92124234D01*
X144424500Y-92275766D01*
X144432953Y-92307312D01*
X144463719Y-92422136D01*
X144494683Y-92475766D01*
X144539485Y-92553365D01*
X144539486Y-92553366D01*
X144539487Y-92553367D01*
X146563681Y-94577560D01*
X146597166Y-94638883D01*
X146600000Y-94665241D01*
X146600000Y-95376479D01*
X146580315Y-95443518D01*
X146527511Y-95489273D01*
X146475951Y-95500479D01*
X144074195Y-95499529D01*
X144074191Y-95499529D01*
X144065987Y-95499525D01*
X144065892Y-95499500D01*
X144006907Y-95499500D01*
X144006894Y-95499496D01*
X143993077Y-95498720D01*
X143902734Y-95488541D01*
X143875662Y-95482362D01*
X143796464Y-95454649D01*
X143771447Y-95442602D01*
X143700395Y-95397957D01*
X143678686Y-95380644D01*
X143619355Y-95321313D01*
X143602042Y-95299604D01*
X143594805Y-95288086D01*
X143557395Y-95228549D01*
X143545351Y-95203539D01*
X143517636Y-95124333D01*
X143511458Y-95097264D01*
X143510787Y-95091311D01*
X143501280Y-95006922D01*
X143500500Y-94993040D01*
X143500500Y-91892683D01*
X143500500Y-91892682D01*
X143469954Y-91680231D01*
X143449894Y-91611912D01*
X143409488Y-91474298D01*
X143409483Y-91474286D01*
X143320328Y-91279061D01*
X143320319Y-91279045D01*
X143204281Y-91098487D01*
X143191113Y-91083290D01*
X143063724Y-90936276D01*
X143042795Y-90918141D01*
X143005022Y-90859364D01*
X143000000Y-90824430D01*
X143000000Y-81550000D01*
X143941210Y-81550000D01*
X143942854Y-81570910D01*
X143987968Y-81726195D01*
X144070278Y-81865374D01*
X144070285Y-81865383D01*
X144184616Y-81979714D01*
X144184625Y-81979721D01*
X144323804Y-82062031D01*
X144470000Y-82104504D01*
X144470000Y-81550000D01*
X143941210Y-81550000D01*
X143000000Y-81550000D01*
X143000000Y-81049999D01*
X143941209Y-81049999D01*
X143941210Y-81050000D01*
X144470000Y-81050000D01*
X144470000Y-80550000D01*
X143941210Y-80550000D01*
X143942854Y-80570910D01*
X143987968Y-80726195D01*
X143987968Y-80726196D01*
X143994288Y-80736882D01*
X144011468Y-80804607D01*
X143994288Y-80863118D01*
X143987968Y-80873803D01*
X143987966Y-80873809D01*
X143942855Y-81029081D01*
X143942854Y-81029087D01*
X143941209Y-81049999D01*
X143000000Y-81049999D01*
X143000000Y-79049622D01*
X143019685Y-78982583D01*
X143072489Y-78936828D01*
X143089057Y-78930647D01*
X143159992Y-78909819D01*
X143281032Y-78832031D01*
X143281032Y-78832030D01*
X143288493Y-78827236D01*
X143290065Y-78829682D01*
X143340253Y-78806762D01*
X143357900Y-78805500D01*
X144203462Y-78805500D01*
X144270501Y-78825185D01*
G37*
G04 #@! TD.AperFunction*
G04 #@! TA.AperFunction,Conductor*
G36*
X159583039Y-92244685D02*
G01*
X159628794Y-92297489D01*
X159640000Y-92349000D01*
X159640000Y-93075000D01*
X159687828Y-93075000D01*
X159687841Y-93074999D01*
X159736743Y-93069741D01*
X159763257Y-93069741D01*
X159812158Y-93074999D01*
X159812172Y-93075000D01*
X159860000Y-93075000D01*
X159860000Y-92349000D01*
X159862550Y-92340314D01*
X159861262Y-92331353D01*
X159872240Y-92307312D01*
X159879685Y-92281961D01*
X159886525Y-92276033D01*
X159890287Y-92267797D01*
X159912521Y-92253507D01*
X159932489Y-92236206D01*
X159943003Y-92233918D01*
X159949065Y-92230023D01*
X159984000Y-92225000D01*
X160016000Y-92225000D01*
X160083039Y-92244685D01*
X160128794Y-92297489D01*
X160140000Y-92349000D01*
X160140000Y-93075000D01*
X160187828Y-93075000D01*
X160187844Y-93074999D01*
X160247372Y-93068598D01*
X160247379Y-93068596D01*
X160382086Y-93018354D01*
X160382093Y-93018350D01*
X160497187Y-92932190D01*
X160497190Y-92932187D01*
X160583350Y-92817093D01*
X160583354Y-92817086D01*
X160633596Y-92682379D01*
X160633598Y-92682372D01*
X160639999Y-92622844D01*
X160640000Y-92622827D01*
X160640000Y-92470498D01*
X160646238Y-92449251D01*
X160647819Y-92427163D01*
X160655890Y-92416380D01*
X160659685Y-92403459D01*
X160676418Y-92388958D01*
X160689691Y-92371230D01*
X160709125Y-92360618D01*
X160712489Y-92357704D01*
X160720668Y-92354316D01*
X160767168Y-92336973D01*
X160836859Y-92331989D01*
X160898182Y-92365475D01*
X160931667Y-92426798D01*
X160934500Y-92453155D01*
X160934500Y-93200500D01*
X160914815Y-93267539D01*
X160862011Y-93313294D01*
X160810500Y-93324500D01*
X159289742Y-93324500D01*
X159222703Y-93304815D01*
X159202061Y-93288181D01*
X159198479Y-93284599D01*
X159164994Y-93223276D01*
X159169978Y-93153584D01*
X159211850Y-93097651D01*
X159277314Y-93073234D01*
X159299419Y-93073629D01*
X159312162Y-93074999D01*
X159312172Y-93075000D01*
X159360000Y-93075000D01*
X159360000Y-92349000D01*
X159362550Y-92340314D01*
X159361262Y-92331353D01*
X159372240Y-92307312D01*
X159379685Y-92281961D01*
X159386525Y-92276033D01*
X159390287Y-92267797D01*
X159412521Y-92253507D01*
X159432489Y-92236206D01*
X159443003Y-92233918D01*
X159449065Y-92230023D01*
X159484000Y-92225000D01*
X159516000Y-92225000D01*
X159583039Y-92244685D01*
G37*
G04 #@! TD.AperFunction*
G04 #@! TA.AperFunction,Conductor*
G36*
X182792310Y-71520185D02*
G01*
X182832535Y-71562287D01*
X184496922Y-74431919D01*
X186459049Y-77814898D01*
X186482764Y-77855785D01*
X186499500Y-77917998D01*
X186499500Y-78296235D01*
X186479815Y-78363274D01*
X186427011Y-78409029D01*
X186357853Y-78418973D01*
X186306609Y-78399337D01*
X186148684Y-78293814D01*
X186148671Y-78293807D01*
X185966693Y-78218430D01*
X185966681Y-78218427D01*
X185773495Y-78180000D01*
X185525000Y-78180000D01*
X185525000Y-78880000D01*
X185025000Y-78880000D01*
X185025000Y-78180000D01*
X184776504Y-78180000D01*
X184583318Y-78218427D01*
X184583306Y-78218430D01*
X184401328Y-78293807D01*
X184401315Y-78293814D01*
X184237537Y-78403248D01*
X184237533Y-78403251D01*
X184098251Y-78542533D01*
X184098248Y-78542537D01*
X183988814Y-78706315D01*
X183988807Y-78706328D01*
X183913430Y-78888307D01*
X183913430Y-78888309D01*
X183905138Y-78930000D01*
X184708012Y-78930000D01*
X184690795Y-78939940D01*
X184634940Y-78995795D01*
X184595444Y-79064204D01*
X184575000Y-79140504D01*
X184575000Y-79219496D01*
X184595444Y-79295796D01*
X184634940Y-79364205D01*
X184690795Y-79420060D01*
X184708012Y-79430000D01*
X183905138Y-79430000D01*
X183913430Y-79471690D01*
X183913430Y-79471692D01*
X183988807Y-79653671D01*
X183988814Y-79653684D01*
X184098248Y-79817462D01*
X184098251Y-79817466D01*
X184237533Y-79956748D01*
X184237537Y-79956751D01*
X184401315Y-80066185D01*
X184401328Y-80066192D01*
X184583306Y-80141569D01*
X184583318Y-80141572D01*
X184776504Y-80179999D01*
X184776508Y-80180000D01*
X185025000Y-80180000D01*
X185025000Y-79480000D01*
X185525000Y-79480000D01*
X185525000Y-80180000D01*
X185773492Y-80180000D01*
X185773495Y-80179999D01*
X185966681Y-80141572D01*
X185966693Y-80141569D01*
X186148671Y-80066192D01*
X186148683Y-80066185D01*
X186306609Y-79960662D01*
X186373286Y-79939784D01*
X186440666Y-79958268D01*
X186487357Y-80010247D01*
X186499500Y-80063764D01*
X186499500Y-86936235D01*
X186479815Y-87003274D01*
X186427011Y-87049029D01*
X186357853Y-87058973D01*
X186306609Y-87039337D01*
X186148684Y-86933814D01*
X186148671Y-86933807D01*
X185966693Y-86858430D01*
X185966681Y-86858427D01*
X185773495Y-86820000D01*
X185525000Y-86820000D01*
X185525000Y-87520000D01*
X185025000Y-87520000D01*
X185025000Y-86820000D01*
X184776504Y-86820000D01*
X184583318Y-86858427D01*
X184583306Y-86858430D01*
X184401328Y-86933807D01*
X184401315Y-86933814D01*
X184237537Y-87043248D01*
X184237533Y-87043251D01*
X184098251Y-87182533D01*
X184098248Y-87182537D01*
X183988814Y-87346315D01*
X183988807Y-87346328D01*
X183913430Y-87528307D01*
X183913430Y-87528309D01*
X183905138Y-87570000D01*
X184708012Y-87570000D01*
X184690795Y-87579940D01*
X184634940Y-87635795D01*
X184595444Y-87704204D01*
X184575000Y-87780504D01*
X184575000Y-87859496D01*
X184595444Y-87935796D01*
X184634940Y-88004205D01*
X184690795Y-88060060D01*
X184708012Y-88070000D01*
X183905138Y-88070000D01*
X183913430Y-88111690D01*
X183913430Y-88111692D01*
X183988807Y-88293671D01*
X183988814Y-88293684D01*
X184098248Y-88457462D01*
X184098251Y-88457466D01*
X184237533Y-88596748D01*
X184237537Y-88596751D01*
X184401315Y-88706185D01*
X184401328Y-88706192D01*
X184583306Y-88781569D01*
X184583318Y-88781572D01*
X184776504Y-88819999D01*
X184776508Y-88820000D01*
X185025000Y-88820000D01*
X185025000Y-88120000D01*
X185525000Y-88120000D01*
X185525000Y-88820000D01*
X185773492Y-88820000D01*
X185773495Y-88819999D01*
X185966681Y-88781572D01*
X185966693Y-88781569D01*
X186148671Y-88706192D01*
X186148683Y-88706185D01*
X186306609Y-88600662D01*
X186373286Y-88579784D01*
X186440666Y-88598268D01*
X186487357Y-88650247D01*
X186499500Y-88703764D01*
X186499500Y-89083329D01*
X186495387Y-89098737D01*
X186496062Y-89112324D01*
X186483010Y-89145116D01*
X186390093Y-89306793D01*
X186389987Y-89306977D01*
X186357413Y-89363430D01*
X186357205Y-89363934D01*
X186357206Y-89363935D01*
X186357086Y-89364224D01*
X186340317Y-89427310D01*
X186340262Y-89427517D01*
X186323342Y-89490725D01*
X186323259Y-89491358D01*
X186323253Y-89491410D01*
X186323231Y-89491577D01*
X186323231Y-89491587D01*
X186323231Y-89491588D01*
X186323272Y-89512399D01*
X186323360Y-89556742D01*
X186323360Y-89556955D01*
X186323376Y-89622502D01*
X186323392Y-89622618D01*
X186323423Y-89622847D01*
X186323491Y-89623367D01*
X186330141Y-89647989D01*
X186340533Y-89686467D01*
X186344168Y-89700018D01*
X186357519Y-89749794D01*
X186357686Y-89750197D01*
X186357753Y-89750357D01*
X186357850Y-89750591D01*
X186388418Y-89803296D01*
X186390694Y-89807219D01*
X186423438Y-89863901D01*
X186423750Y-89864213D01*
X186423972Y-89864595D01*
X186470015Y-89910455D01*
X186470124Y-89910652D01*
X186470169Y-89910608D01*
X186470170Y-89910609D01*
X186516647Y-89957063D01*
X186516649Y-89957064D01*
X186516651Y-89957066D01*
X186516772Y-89957159D01*
X186517039Y-89957364D01*
X186517330Y-89957587D01*
X186517341Y-89957593D01*
X186517343Y-89957595D01*
X186540840Y-89971099D01*
X186573762Y-89990020D01*
X186573947Y-89990126D01*
X189503707Y-91680643D01*
X189525291Y-91693097D01*
X189573519Y-91743652D01*
X189586759Y-91812256D01*
X189560808Y-91877127D01*
X189503904Y-91917670D01*
X189463318Y-91924500D01*
X188924234Y-91924500D01*
X188777863Y-91963719D01*
X188646635Y-92039485D01*
X188646632Y-92039487D01*
X187889311Y-92796808D01*
X187889309Y-92796811D01*
X187813543Y-92928039D01*
X187774324Y-93074410D01*
X187774324Y-93087173D01*
X187754639Y-93154212D01*
X187701835Y-93199967D01*
X187650324Y-93211173D01*
X177173613Y-93211173D01*
X177106574Y-93191488D01*
X177060819Y-93138684D01*
X177050875Y-93069526D01*
X177066226Y-93025173D01*
X177111279Y-92947138D01*
X177111281Y-92947135D01*
X177150500Y-92800767D01*
X177150500Y-92649234D01*
X177150500Y-88952812D01*
X177170185Y-88885773D01*
X177222989Y-88840018D01*
X177284228Y-88829194D01*
X177300819Y-88830500D01*
X177799180Y-88830499D01*
X177835204Y-88827665D01*
X177989393Y-88782869D01*
X178127598Y-88701135D01*
X178241135Y-88587598D01*
X178322869Y-88449393D01*
X178367665Y-88295204D01*
X178370500Y-88259181D01*
X178370499Y-87860820D01*
X178367665Y-87824796D01*
X178322869Y-87670607D01*
X178288869Y-87613117D01*
X178271688Y-87545398D01*
X178288869Y-87486882D01*
X178322869Y-87429393D01*
X178328688Y-87409366D01*
X178367664Y-87275208D01*
X178367665Y-87275202D01*
X178367996Y-87270993D01*
X178370500Y-87239181D01*
X178370499Y-86840820D01*
X178367665Y-86804796D01*
X178332948Y-86685299D01*
X178333147Y-86615430D01*
X178367852Y-86559649D01*
X178400000Y-86529931D01*
X178400000Y-85884000D01*
X178419685Y-85816961D01*
X178472489Y-85771206D01*
X178524000Y-85760000D01*
X178776000Y-85760000D01*
X178843039Y-85779685D01*
X178888794Y-85832489D01*
X178900000Y-85884000D01*
X178900000Y-86529930D01*
X178935122Y-86527167D01*
X178935128Y-86527166D01*
X179089188Y-86482407D01*
X179089191Y-86482406D01*
X179227285Y-86400738D01*
X179227292Y-86400732D01*
X179233068Y-86394957D01*
X179294390Y-86361469D01*
X179364081Y-86366450D01*
X179371658Y-86369565D01*
X179574597Y-86460931D01*
X179581724Y-86467040D01*
X179590731Y-86469685D01*
X179611368Y-86486314D01*
X179693135Y-86568081D01*
X179834602Y-86651744D01*
X179876224Y-86663836D01*
X179992426Y-86697597D01*
X179992429Y-86697597D01*
X179992431Y-86697598D01*
X180029306Y-86700500D01*
X180029314Y-86700500D01*
X180396000Y-86700500D01*
X180404685Y-86703050D01*
X180413647Y-86701762D01*
X180437687Y-86712740D01*
X180463039Y-86720185D01*
X180468966Y-86727025D01*
X180477203Y-86730787D01*
X180491492Y-86753021D01*
X180508794Y-86772989D01*
X180511081Y-86783503D01*
X180514977Y-86789565D01*
X180520000Y-86824500D01*
X180520000Y-86826000D01*
X180500315Y-86893039D01*
X180447511Y-86938794D01*
X180396000Y-86950000D01*
X179447705Y-86950000D01*
X179447704Y-86950001D01*
X179447899Y-86952486D01*
X179493718Y-87110198D01*
X179577314Y-87251552D01*
X179577321Y-87251561D01*
X179604111Y-87278351D01*
X179637596Y-87339674D01*
X179632612Y-87409366D01*
X179630991Y-87413484D01*
X179583430Y-87528307D01*
X179583430Y-87528309D01*
X179575138Y-87570000D01*
X180378012Y-87570000D01*
X180360795Y-87579940D01*
X180304940Y-87635795D01*
X180265444Y-87704204D01*
X180245000Y-87780504D01*
X180245000Y-87859496D01*
X180265444Y-87935796D01*
X180304940Y-88004205D01*
X180360795Y-88060060D01*
X180378012Y-88070000D01*
X179575138Y-88070000D01*
X179583430Y-88111690D01*
X179583430Y-88111692D01*
X179658807Y-88293671D01*
X179658814Y-88293684D01*
X179768248Y-88457462D01*
X179768251Y-88457466D01*
X179907533Y-88596748D01*
X179907537Y-88596751D01*
X180071315Y-88706185D01*
X180071328Y-88706192D01*
X180253306Y-88781569D01*
X180253318Y-88781572D01*
X180446504Y-88819999D01*
X180446508Y-88820000D01*
X180845000Y-88820000D01*
X180845000Y-88120000D01*
X181345000Y-88120000D01*
X181345000Y-88820000D01*
X181743492Y-88820000D01*
X181743495Y-88819999D01*
X181936681Y-88781572D01*
X181936693Y-88781569D01*
X182118671Y-88706192D01*
X182118684Y-88706185D01*
X182282462Y-88596751D01*
X182282466Y-88596748D01*
X182421748Y-88457466D01*
X182421751Y-88457462D01*
X182531185Y-88293684D01*
X182531192Y-88293671D01*
X182606569Y-88111692D01*
X182606569Y-88111690D01*
X182614862Y-88070000D01*
X181811988Y-88070000D01*
X181829205Y-88060060D01*
X181885060Y-88004205D01*
X181924556Y-87935796D01*
X181945000Y-87859496D01*
X181945000Y-87780504D01*
X181924556Y-87704204D01*
X181885060Y-87635795D01*
X181829205Y-87579940D01*
X181811988Y-87570000D01*
X182614862Y-87570000D01*
X182606569Y-87528309D01*
X182606569Y-87528307D01*
X182531192Y-87346328D01*
X182531185Y-87346315D01*
X182421751Y-87182537D01*
X182421748Y-87182533D01*
X182282466Y-87043251D01*
X182282462Y-87043248D01*
X182118684Y-86933814D01*
X182118675Y-86933809D01*
X181960801Y-86868416D01*
X181906398Y-86824575D01*
X181884333Y-86758281D01*
X181901612Y-86690582D01*
X181920571Y-86666176D01*
X181935485Y-86651263D01*
X181991503Y-86554237D01*
X182020500Y-86446018D01*
X182020500Y-86333982D01*
X181991503Y-86225763D01*
X181982934Y-86210921D01*
X181966460Y-86143025D01*
X181989310Y-86076997D01*
X182002633Y-86061246D01*
X182760515Y-85303365D01*
X182836281Y-85172135D01*
X182875500Y-85025766D01*
X182875500Y-84874233D01*
X182875500Y-81724234D01*
X182836281Y-81577865D01*
X182832313Y-81570993D01*
X182807412Y-81527863D01*
X182760515Y-81446635D01*
X182653365Y-81339485D01*
X182303365Y-80989485D01*
X182172135Y-80913719D01*
X182088505Y-80891310D01*
X182028846Y-80854946D01*
X181998317Y-80792099D01*
X182000824Y-80739447D01*
X182020500Y-80666018D01*
X182020500Y-80553982D01*
X181991503Y-80445763D01*
X181935485Y-80348737D01*
X181920573Y-80333825D01*
X181887088Y-80272502D01*
X181892072Y-80202810D01*
X181933944Y-80146877D01*
X181960802Y-80131583D01*
X182118671Y-80066192D01*
X182118684Y-80066185D01*
X182282462Y-79956751D01*
X182282466Y-79956748D01*
X182421748Y-79817466D01*
X182421751Y-79817462D01*
X182531185Y-79653684D01*
X182531192Y-79653671D01*
X182606569Y-79471692D01*
X182606569Y-79471690D01*
X182614862Y-79430000D01*
X181811988Y-79430000D01*
X181829205Y-79420060D01*
X181885060Y-79364205D01*
X181924556Y-79295796D01*
X181945000Y-79219496D01*
X181945000Y-79140504D01*
X181924556Y-79064204D01*
X181885060Y-78995795D01*
X181829205Y-78939940D01*
X181811988Y-78930000D01*
X182614862Y-78930000D01*
X182606569Y-78888309D01*
X182606569Y-78888307D01*
X182531192Y-78706328D01*
X182531185Y-78706315D01*
X182421751Y-78542537D01*
X182421748Y-78542533D01*
X182282466Y-78403251D01*
X182282462Y-78403248D01*
X182118684Y-78293814D01*
X182118671Y-78293807D01*
X181936693Y-78218430D01*
X181936681Y-78218427D01*
X181743495Y-78180000D01*
X181345000Y-78180000D01*
X181345000Y-78880000D01*
X180845000Y-78880000D01*
X180845000Y-78180000D01*
X180446504Y-78180000D01*
X180253318Y-78218427D01*
X180253306Y-78218430D01*
X180071328Y-78293807D01*
X180071315Y-78293814D01*
X179907537Y-78403248D01*
X179907533Y-78403251D01*
X179768251Y-78542533D01*
X179768248Y-78542537D01*
X179658814Y-78706315D01*
X179658807Y-78706328D01*
X179583430Y-78888307D01*
X179583430Y-78888309D01*
X179575138Y-78930000D01*
X180378012Y-78930000D01*
X180360795Y-78939940D01*
X180304940Y-78995795D01*
X180265444Y-79064204D01*
X180245000Y-79140504D01*
X180245000Y-79219496D01*
X180265444Y-79295796D01*
X180304940Y-79364205D01*
X180360795Y-79420060D01*
X180378012Y-79430000D01*
X179575138Y-79430000D01*
X179583430Y-79471690D01*
X179583430Y-79471692D01*
X179630991Y-79586515D01*
X179638460Y-79655984D01*
X179607185Y-79718463D01*
X179604114Y-79721646D01*
X179577318Y-79748443D01*
X179577313Y-79748449D01*
X179493718Y-79889801D01*
X179447899Y-80047513D01*
X179447704Y-80049998D01*
X179447705Y-80050000D01*
X180396000Y-80050000D01*
X180404685Y-80052550D01*
X180413647Y-80051262D01*
X180437687Y-80062240D01*
X180463039Y-80069685D01*
X180468966Y-80076525D01*
X180477203Y-80080287D01*
X180491492Y-80102521D01*
X180508794Y-80122489D01*
X180511081Y-80133003D01*
X180514977Y-80139065D01*
X180520000Y-80174000D01*
X180520000Y-80175500D01*
X180500315Y-80242539D01*
X180447511Y-80288294D01*
X180396000Y-80299500D01*
X180029298Y-80299500D01*
X179992432Y-80302401D01*
X179992426Y-80302402D01*
X179834606Y-80348254D01*
X179834603Y-80348255D01*
X179693137Y-80431917D01*
X179693133Y-80431920D01*
X179673043Y-80452011D01*
X179636871Y-80488182D01*
X179575551Y-80521666D01*
X179549192Y-80524500D01*
X177949043Y-80524500D01*
X177882004Y-80504815D01*
X177836249Y-80452011D01*
X177826305Y-80382853D01*
X177855330Y-80319297D01*
X177883946Y-80294961D01*
X177894755Y-80288294D01*
X177968656Y-80242712D01*
X178092712Y-80118656D01*
X178184814Y-79969334D01*
X178239999Y-79802797D01*
X178250500Y-79700009D01*
X178250499Y-78299992D01*
X178239999Y-78197203D01*
X178184814Y-78030666D01*
X178092712Y-77881344D01*
X177968656Y-77757288D01*
X177835406Y-77675099D01*
X177819336Y-77665187D01*
X177819331Y-77665185D01*
X177816180Y-77664141D01*
X177652797Y-77610001D01*
X177652795Y-77610000D01*
X177550010Y-77599500D01*
X175449998Y-77599500D01*
X175449975Y-77599502D01*
X175422933Y-77602264D01*
X175354240Y-77589493D01*
X175303357Y-77541611D01*
X175286438Y-77473821D01*
X175308856Y-77407645D01*
X175322648Y-77391229D01*
X175843155Y-76870722D01*
X175843160Y-76870719D01*
X175853363Y-76860515D01*
X175853365Y-76860515D01*
X175960515Y-76753365D01*
X176036281Y-76622135D01*
X176040255Y-76607303D01*
X176075500Y-76475767D01*
X176075500Y-76418838D01*
X176077655Y-76407431D01*
X176088481Y-76386237D01*
X176095185Y-76363409D01*
X176104082Y-76355699D01*
X176109441Y-76345210D01*
X176130009Y-76333233D01*
X176147989Y-76317654D01*
X176160488Y-76312744D01*
X176169334Y-76309814D01*
X176318656Y-76217712D01*
X176442712Y-76093656D01*
X176534814Y-75944334D01*
X176589999Y-75777797D01*
X176600500Y-75675009D01*
X176600499Y-74324992D01*
X176599965Y-74319769D01*
X176589999Y-74222203D01*
X176589998Y-74222200D01*
X176576087Y-74180220D01*
X176534814Y-74055666D01*
X176442712Y-73906344D01*
X176318656Y-73782288D01*
X176225888Y-73725069D01*
X176169336Y-73690187D01*
X176169331Y-73690185D01*
X176167219Y-73689485D01*
X176002797Y-73635001D01*
X176002795Y-73635000D01*
X175900010Y-73624500D01*
X175099998Y-73624500D01*
X175099980Y-73624501D01*
X174997203Y-73635000D01*
X174997200Y-73635001D01*
X174830668Y-73690185D01*
X174830663Y-73690187D01*
X174681342Y-73782289D01*
X174557287Y-73906344D01*
X174517688Y-73970544D01*
X174465739Y-74017268D01*
X174396777Y-74028489D01*
X174332695Y-74000645D01*
X174324469Y-73993127D01*
X174216930Y-73885588D01*
X174216928Y-73885586D01*
X174076788Y-73783768D01*
X173922445Y-73705127D01*
X173757701Y-73651598D01*
X173757699Y-73651597D01*
X173757698Y-73651597D01*
X173626271Y-73630781D01*
X173586611Y-73624500D01*
X173413389Y-73624500D01*
X173373728Y-73630781D01*
X173242302Y-73651597D01*
X173077552Y-73705128D01*
X172923211Y-73783768D01*
X172863693Y-73827011D01*
X172783072Y-73885586D01*
X172783070Y-73885588D01*
X172783069Y-73885588D01*
X172660588Y-74008069D01*
X172660588Y-74008070D01*
X172660586Y-74008072D01*
X172626009Y-74055663D01*
X172558768Y-74148211D01*
X172480128Y-74302552D01*
X172426597Y-74467302D01*
X172399500Y-74638389D01*
X172399500Y-74836258D01*
X172379815Y-74903297D01*
X172327011Y-74949052D01*
X172257853Y-74958996D01*
X172194297Y-74929971D01*
X172187819Y-74923939D01*
X171903367Y-74639487D01*
X171903365Y-74639485D01*
X171834109Y-74599500D01*
X171772136Y-74563719D01*
X171698950Y-74544109D01*
X171625766Y-74524500D01*
X171625765Y-74524500D01*
X170133308Y-74524500D01*
X170066269Y-74504815D01*
X170045631Y-74488185D01*
X169989365Y-74431919D01*
X169987958Y-74431087D01*
X169847896Y-74348255D01*
X169847893Y-74348254D01*
X169690073Y-74302402D01*
X169690067Y-74302401D01*
X169653201Y-74299500D01*
X169653194Y-74299500D01*
X168487000Y-74299500D01*
X168419961Y-74279815D01*
X168374206Y-74227011D01*
X168363000Y-74175500D01*
X168363000Y-73934313D01*
X168362999Y-73934298D01*
X168360485Y-73902356D01*
X168360098Y-73897431D01*
X168356657Y-73885588D01*
X168314245Y-73739606D01*
X168314244Y-73739603D01*
X168314244Y-73739602D01*
X168230581Y-73598135D01*
X168230579Y-73598133D01*
X168230576Y-73598129D01*
X168190111Y-73557664D01*
X168156626Y-73496341D01*
X168161610Y-73426649D01*
X168203482Y-73370716D01*
X168214672Y-73363251D01*
X168337283Y-73290740D01*
X168337294Y-73290731D01*
X168450731Y-73177294D01*
X168450738Y-73177285D01*
X168532406Y-73039191D01*
X168532407Y-73039188D01*
X168577166Y-72885128D01*
X168577167Y-72885122D01*
X168579931Y-72850000D01*
X167934000Y-72850000D01*
X167866961Y-72830315D01*
X167821206Y-72777511D01*
X167810000Y-72726000D01*
X167810000Y-72600000D01*
X167684499Y-72600000D01*
X167676032Y-72597513D01*
X167667301Y-72598802D01*
X167643021Y-72587820D01*
X167617460Y-72580315D01*
X167611681Y-72573645D01*
X167603640Y-72570009D01*
X167589151Y-72547644D01*
X167571705Y-72527511D01*
X167569449Y-72517235D01*
X167565650Y-72511370D01*
X167560693Y-72477335D01*
X167560500Y-72476454D01*
X167560499Y-72476249D01*
X167560499Y-72350820D01*
X167560017Y-72344705D01*
X167560001Y-72340061D01*
X167560015Y-72340009D01*
X167560000Y-72339607D01*
X167560000Y-71787154D01*
X168060000Y-71787154D01*
X168060000Y-72350000D01*
X168579931Y-72350000D01*
X168577167Y-72314877D01*
X168577166Y-72314871D01*
X168532407Y-72160811D01*
X168532406Y-72160808D01*
X168450738Y-72022714D01*
X168450731Y-72022705D01*
X168337294Y-71909268D01*
X168337285Y-71909261D01*
X168199191Y-71827593D01*
X168199188Y-71827591D01*
X168060001Y-71787153D01*
X168060000Y-71787154D01*
X167560000Y-71787154D01*
X167559998Y-71787153D01*
X167420811Y-71827591D01*
X167420810Y-71827592D01*
X167363611Y-71861419D01*
X167295886Y-71878600D01*
X167237371Y-71861419D01*
X167203199Y-71841210D01*
X167179393Y-71827131D01*
X167179392Y-71827130D01*
X167179391Y-71827130D01*
X167179388Y-71827129D01*
X167025208Y-71782335D01*
X167025202Y-71782334D01*
X166989181Y-71779500D01*
X166590830Y-71779500D01*
X166590808Y-71779501D01*
X166554794Y-71782335D01*
X166400611Y-71827129D01*
X166400606Y-71827131D01*
X166262404Y-71908863D01*
X166262396Y-71908869D01*
X166148869Y-72022396D01*
X166148863Y-72022404D01*
X166067131Y-72160606D01*
X166067129Y-72160611D01*
X166022335Y-72314791D01*
X166022334Y-72314797D01*
X166019500Y-72350811D01*
X166019500Y-72849169D01*
X166019501Y-72849191D01*
X166022335Y-72885205D01*
X166067129Y-73039388D01*
X166067131Y-73039393D01*
X166148863Y-73177595D01*
X166148869Y-73177603D01*
X166178180Y-73206913D01*
X166192885Y-73233843D01*
X166209477Y-73259660D01*
X166210368Y-73265858D01*
X166211666Y-73268235D01*
X166214500Y-73294595D01*
X166214500Y-73364549D01*
X166194815Y-73431588D01*
X166153624Y-73471279D01*
X166135640Y-73481914D01*
X166135633Y-73481920D01*
X166121213Y-73496341D01*
X166079371Y-73538182D01*
X166018051Y-73571666D01*
X165991692Y-73574500D01*
X164474233Y-73574500D01*
X164327863Y-73613719D01*
X164196635Y-73689485D01*
X164196632Y-73689487D01*
X163633834Y-74252284D01*
X163593609Y-74279163D01*
X163553710Y-74295690D01*
X163451271Y-74364138D01*
X163451263Y-74364144D01*
X163364144Y-74451263D01*
X163364141Y-74451267D01*
X163295692Y-74553707D01*
X163295687Y-74553716D01*
X163248538Y-74667545D01*
X163248535Y-74667555D01*
X163224500Y-74788389D01*
X163224500Y-74911610D01*
X163248535Y-75032444D01*
X163248537Y-75032452D01*
X163251483Y-75039565D01*
X163295687Y-75146283D01*
X163295692Y-75146292D01*
X163364141Y-75248732D01*
X163364144Y-75248736D01*
X163451263Y-75335855D01*
X163451267Y-75335858D01*
X163553707Y-75404307D01*
X163553713Y-75404310D01*
X163553714Y-75404311D01*
X163667548Y-75451463D01*
X163788389Y-75475499D01*
X163788393Y-75475500D01*
X163788394Y-75475500D01*
X163911607Y-75475500D01*
X163911608Y-75475499D01*
X164032452Y-75451463D01*
X164146286Y-75404311D01*
X164248733Y-75335858D01*
X164335858Y-75248733D01*
X164404311Y-75146286D01*
X164420836Y-75106388D01*
X164447710Y-75066168D01*
X164752062Y-74761816D01*
X164813384Y-74728334D01*
X164839742Y-74725500D01*
X165991692Y-74725500D01*
X166058731Y-74745185D01*
X166079368Y-74761814D01*
X166135635Y-74818081D01*
X166277102Y-74901744D01*
X166311047Y-74911606D01*
X166434926Y-74947597D01*
X166434929Y-74947597D01*
X166434931Y-74947598D01*
X166471806Y-74950500D01*
X167638000Y-74950500D01*
X167646685Y-74953050D01*
X167655647Y-74951762D01*
X167679687Y-74962740D01*
X167705039Y-74970185D01*
X167710966Y-74977025D01*
X167719203Y-74980787D01*
X167733492Y-75003021D01*
X167750794Y-75022989D01*
X167753081Y-75033503D01*
X167756977Y-75039565D01*
X167762000Y-75074500D01*
X167762000Y-75126000D01*
X167742315Y-75193039D01*
X167689511Y-75238794D01*
X167638000Y-75250000D01*
X167375000Y-75250000D01*
X167375000Y-75800000D01*
X168030685Y-75800000D01*
X168093806Y-75817268D01*
X168152102Y-75851744D01*
X168174093Y-75858133D01*
X168309926Y-75897597D01*
X168309929Y-75897597D01*
X168309931Y-75897598D01*
X168346806Y-75900500D01*
X168346814Y-75900500D01*
X169653186Y-75900500D01*
X169653194Y-75900500D01*
X169690069Y-75897598D01*
X169690071Y-75897597D01*
X169690073Y-75897597D01*
X169739644Y-75883195D01*
X169847898Y-75851744D01*
X169989365Y-75768081D01*
X170045628Y-75711817D01*
X170106949Y-75678334D01*
X170133308Y-75675500D01*
X171260258Y-75675500D01*
X171327297Y-75695185D01*
X171347939Y-75711819D01*
X171888181Y-76252061D01*
X171921666Y-76313384D01*
X171924500Y-76339742D01*
X171924500Y-77475500D01*
X171904815Y-77542539D01*
X171852011Y-77588294D01*
X171800500Y-77599500D01*
X171449998Y-77599500D01*
X171449980Y-77599501D01*
X171347203Y-77610000D01*
X171347200Y-77610001D01*
X171180668Y-77665185D01*
X171180663Y-77665187D01*
X171031342Y-77757289D01*
X170907289Y-77881342D01*
X170815187Y-78030663D01*
X170815186Y-78030666D01*
X170760001Y-78197203D01*
X170760001Y-78197204D01*
X170760000Y-78197204D01*
X170749500Y-78299983D01*
X170749500Y-79700001D01*
X170749501Y-79700018D01*
X170760000Y-79802796D01*
X170760001Y-79802799D01*
X170805394Y-79939784D01*
X170815186Y-79969334D01*
X170907288Y-80118656D01*
X171031344Y-80242712D01*
X171180666Y-80334814D01*
X171347203Y-80389999D01*
X171449991Y-80400500D01*
X173550008Y-80400499D01*
X173652797Y-80389999D01*
X173819334Y-80334814D01*
X173917575Y-80274218D01*
X173984966Y-80255778D01*
X174051630Y-80276700D01*
X174090058Y-80317756D01*
X174107667Y-80348255D01*
X174139485Y-80403365D01*
X174139487Y-80403367D01*
X174698439Y-80962319D01*
X174731924Y-81023642D01*
X174726940Y-81093334D01*
X174698439Y-81137681D01*
X174439487Y-81396632D01*
X174439485Y-81396635D01*
X174363719Y-81527863D01*
X174349541Y-81580778D01*
X174326977Y-81664992D01*
X174322397Y-81682084D01*
X174319075Y-81681194D01*
X174297229Y-81730580D01*
X174238906Y-81769052D01*
X174202555Y-81774500D01*
X173954798Y-81774500D01*
X173954792Y-81774500D01*
X173954788Y-81774501D01*
X173838621Y-81789794D01*
X173838616Y-81789796D01*
X173694063Y-81849671D01*
X173638248Y-81892500D01*
X173570352Y-81944598D01*
X173526962Y-81965996D01*
X173435809Y-81990421D01*
X173435802Y-81990424D01*
X173298877Y-82069477D01*
X173298872Y-82069481D01*
X173237584Y-82130770D01*
X173176261Y-82164255D01*
X173149903Y-82167089D01*
X173035155Y-82167089D01*
X172975817Y-82182989D01*
X172882426Y-82208013D01*
X172882421Y-82208016D01*
X172745502Y-82287065D01*
X172745494Y-82287071D01*
X171994386Y-83038181D01*
X171933063Y-83071666D01*
X171906705Y-83074500D01*
X171651916Y-83074500D01*
X171584877Y-83054815D01*
X171539122Y-83002011D01*
X171529178Y-82932853D01*
X171558203Y-82869297D01*
X171564235Y-82862819D01*
X171566972Y-82860082D01*
X171577553Y-82849501D01*
X171683996Y-82702994D01*
X171766211Y-82541639D01*
X171822171Y-82369409D01*
X171838911Y-82263719D01*
X171850500Y-82190551D01*
X171850500Y-82009448D01*
X171833627Y-81902923D01*
X171822171Y-81830591D01*
X171771780Y-81675500D01*
X171766212Y-81658363D01*
X171766211Y-81658360D01*
X171725195Y-81577863D01*
X171683996Y-81497006D01*
X171647400Y-81446635D01*
X171577558Y-81350505D01*
X171577554Y-81350500D01*
X171449499Y-81222445D01*
X171449494Y-81222441D01*
X171302997Y-81116006D01*
X171302996Y-81116005D01*
X171302994Y-81116004D01*
X171251300Y-81089664D01*
X171141639Y-81033788D01*
X171141636Y-81033787D01*
X170969410Y-80977829D01*
X170790551Y-80949500D01*
X170790546Y-80949500D01*
X170609454Y-80949500D01*
X170609449Y-80949500D01*
X170430589Y-80977829D01*
X170258363Y-81033787D01*
X170258360Y-81033788D01*
X170097002Y-81116006D01*
X169950505Y-81222441D01*
X169950500Y-81222445D01*
X169822445Y-81350500D01*
X169822441Y-81350505D01*
X169716006Y-81497002D01*
X169633788Y-81658360D01*
X169633787Y-81658363D01*
X169577829Y-81830589D01*
X169549500Y-82009448D01*
X169549500Y-82190547D01*
X169557547Y-82241358D01*
X169548591Y-82310651D01*
X169503594Y-82364102D01*
X169436842Y-82384741D01*
X169369529Y-82366015D01*
X169347392Y-82348435D01*
X169010332Y-82011375D01*
X169010330Y-82011372D01*
X168891459Y-81892501D01*
X168891458Y-81892500D01*
X168804607Y-81842357D01*
X168804606Y-81842356D01*
X168754532Y-81813445D01*
X168754529Y-81813443D01*
X168693435Y-81797073D01*
X168601799Y-81772519D01*
X168443685Y-81772519D01*
X168436089Y-81772519D01*
X168436073Y-81772520D01*
X167659196Y-81772520D01*
X167592157Y-81752835D01*
X167571515Y-81736201D01*
X166948669Y-81113355D01*
X166948667Y-81113352D01*
X166829796Y-80994481D01*
X166829795Y-80994480D01*
X166742983Y-80944360D01*
X166742983Y-80944359D01*
X166742979Y-80944358D01*
X166692864Y-80915423D01*
X166540136Y-80874499D01*
X166382022Y-80874499D01*
X166374426Y-80874499D01*
X166374410Y-80874500D01*
X163393295Y-80874500D01*
X163326256Y-80854815D01*
X163305614Y-80838181D01*
X161911819Y-79444386D01*
X161878334Y-79383063D01*
X161875500Y-79356705D01*
X161875500Y-76300001D01*
X165890204Y-76300001D01*
X165890399Y-76302486D01*
X165936218Y-76460198D01*
X166019814Y-76601552D01*
X166019821Y-76601561D01*
X166135938Y-76717678D01*
X166135947Y-76717685D01*
X166277303Y-76801282D01*
X166277306Y-76801283D01*
X166435004Y-76847099D01*
X166435010Y-76847100D01*
X166471850Y-76849999D01*
X166471866Y-76850000D01*
X166875000Y-76850000D01*
X167375000Y-76850000D01*
X167778134Y-76850000D01*
X167778149Y-76849999D01*
X167814989Y-76847100D01*
X167814995Y-76847099D01*
X167972693Y-76801283D01*
X167972696Y-76801282D01*
X168114052Y-76717685D01*
X168114061Y-76717678D01*
X168230178Y-76601561D01*
X168230185Y-76601552D01*
X168313781Y-76460198D01*
X168359600Y-76302486D01*
X168359795Y-76300001D01*
X168359795Y-76300000D01*
X167375000Y-76300000D01*
X167375000Y-76850000D01*
X166875000Y-76850000D01*
X166875000Y-76300000D01*
X165890205Y-76300000D01*
X165890204Y-76300001D01*
X161875500Y-76300001D01*
X161875500Y-76095861D01*
X161875501Y-76095848D01*
X161875501Y-75927747D01*
X161875500Y-75927742D01*
X161841271Y-75799998D01*
X165890204Y-75799998D01*
X165890205Y-75800000D01*
X166875000Y-75800000D01*
X166875000Y-75250000D01*
X166471850Y-75250000D01*
X166435010Y-75252899D01*
X166435004Y-75252900D01*
X166277306Y-75298716D01*
X166277303Y-75298717D01*
X166135947Y-75382314D01*
X166135938Y-75382321D01*
X166019821Y-75498438D01*
X166019814Y-75498447D01*
X165936218Y-75639801D01*
X165890399Y-75797513D01*
X165890204Y-75799998D01*
X161841271Y-75799998D01*
X161834577Y-75775017D01*
X161796795Y-75709577D01*
X161755520Y-75638086D01*
X161643716Y-75526282D01*
X161643715Y-75526281D01*
X161639385Y-75521951D01*
X161639374Y-75521941D01*
X160905788Y-74788355D01*
X160905786Y-74788352D01*
X160786915Y-74669481D01*
X160786907Y-74669475D01*
X160673903Y-74604233D01*
X160673903Y-74604232D01*
X160673898Y-74604231D01*
X160665553Y-74599412D01*
X160649984Y-74590423D01*
X160611801Y-74580192D01*
X160497255Y-74549499D01*
X160339141Y-74549499D01*
X160331545Y-74549499D01*
X160331529Y-74549500D01*
X153952741Y-74549500D01*
X153947286Y-74550218D01*
X153878251Y-74539451D01*
X153825996Y-74493070D01*
X153813214Y-74465726D01*
X153808642Y-74451708D01*
X153807643Y-74439007D01*
X153762494Y-74283605D01*
X153743154Y-74250903D01*
X153738932Y-74237956D01*
X153738283Y-74216102D01*
X153732906Y-74194909D01*
X153737219Y-74180220D01*
X153736860Y-74168117D01*
X153744504Y-74155408D01*
X153750091Y-74136384D01*
X153762032Y-74116194D01*
X153804504Y-73970000D01*
X153498352Y-73970000D01*
X153435233Y-73952732D01*
X153426395Y-73947506D01*
X153426393Y-73947505D01*
X153426389Y-73947503D01*
X153270997Y-73902357D01*
X153270991Y-73902356D01*
X153234697Y-73899500D01*
X153234690Y-73899500D01*
X153124000Y-73899500D01*
X153056961Y-73879815D01*
X153011206Y-73827011D01*
X153000000Y-73775500D01*
X153000000Y-73720000D01*
X152874000Y-73720000D01*
X152806961Y-73700315D01*
X152761206Y-73647511D01*
X152750000Y-73596000D01*
X152750000Y-73470000D01*
X153250000Y-73470000D01*
X153804504Y-73470000D01*
X153762031Y-73323804D01*
X153679721Y-73184625D01*
X153679714Y-73184616D01*
X153565383Y-73070285D01*
X153565374Y-73070278D01*
X153426195Y-72987968D01*
X153426190Y-72987966D01*
X153270918Y-72942855D01*
X153270912Y-72942854D01*
X153250000Y-72941209D01*
X153250000Y-73470000D01*
X152750000Y-73470000D01*
X152750000Y-72941209D01*
X152740329Y-72932270D01*
X152704461Y-72872309D01*
X152700499Y-72841219D01*
X152700499Y-72149992D01*
X152689999Y-72047203D01*
X152634814Y-71880666D01*
X152542712Y-71731344D01*
X152523549Y-71712181D01*
X152490064Y-71650858D01*
X152495048Y-71581166D01*
X152536920Y-71525233D01*
X152602384Y-71500816D01*
X152611230Y-71500500D01*
X182725271Y-71500500D01*
X182792310Y-71520185D01*
G37*
G04 #@! TD.AperFunction*
G04 #@! TA.AperFunction,Conductor*
G36*
X146130703Y-85771807D02*
G01*
X146137181Y-85777839D01*
X146164811Y-85805469D01*
X146164813Y-85805470D01*
X146164815Y-85805472D01*
X146310394Y-85893478D01*
X146472804Y-85944086D01*
X146543384Y-85950500D01*
X146543387Y-85950500D01*
X148256611Y-85950500D01*
X148256616Y-85950500D01*
X148289279Y-85947531D01*
X148357822Y-85961067D01*
X148408169Y-86009512D01*
X148424500Y-86071022D01*
X148424500Y-86639363D01*
X148407887Y-86701363D01*
X148363720Y-86777862D01*
X148363719Y-86777865D01*
X148324500Y-86924234D01*
X148324500Y-87424233D01*
X148324500Y-87424234D01*
X148324500Y-87575766D01*
X148334754Y-87614036D01*
X148363719Y-87722136D01*
X148401602Y-87787750D01*
X148439485Y-87853365D01*
X148746635Y-88160515D01*
X148766344Y-88171894D01*
X148786424Y-88192953D01*
X148808467Y-88211943D01*
X148810245Y-88217935D01*
X148814560Y-88222461D01*
X148820067Y-88251038D01*
X148828343Y-88278926D01*
X148827118Y-88287620D01*
X148827783Y-88291068D01*
X148823421Y-88313875D01*
X148795560Y-88409776D01*
X148757954Y-88468662D01*
X148694481Y-88497869D01*
X148625295Y-88488123D01*
X148612333Y-88481299D01*
X148489395Y-88406980D01*
X148489396Y-88406980D01*
X148327105Y-88356409D01*
X148327106Y-88356409D01*
X148256572Y-88350000D01*
X147650000Y-88350000D01*
X147650000Y-90149999D01*
X148256581Y-90149999D01*
X148327102Y-90143591D01*
X148327107Y-90143590D01*
X148489396Y-90093018D01*
X148634877Y-90005072D01*
X148755072Y-89884877D01*
X148843019Y-89739395D01*
X148893590Y-89577106D01*
X148899999Y-89506572D01*
X148899999Y-89447500D01*
X148900562Y-89445579D01*
X148900059Y-89443643D01*
X148910359Y-89412211D01*
X148919682Y-89380460D01*
X148921195Y-89379148D01*
X148921818Y-89377248D01*
X148947473Y-89356378D01*
X148972486Y-89334704D01*
X148974467Y-89334419D01*
X148976019Y-89333157D01*
X149008888Y-89329469D01*
X149041644Y-89324760D01*
X149044093Y-89325520D01*
X149045454Y-89325368D01*
X149055209Y-89328973D01*
X149078993Y-89336360D01*
X149226515Y-89409357D01*
X149244443Y-89425895D01*
X149265001Y-89439024D01*
X149269666Y-89449163D01*
X149277870Y-89456731D01*
X149284010Y-89480335D01*
X149294208Y-89502496D01*
X149293814Y-89518021D01*
X149295461Y-89524350D01*
X149293502Y-89530325D01*
X149293139Y-89544685D01*
X149286620Y-89577459D01*
X149277576Y-89622932D01*
X149274500Y-89638395D01*
X149274500Y-89761610D01*
X149298535Y-89882444D01*
X149298537Y-89882452D01*
X149303802Y-89895163D01*
X149345687Y-89996283D01*
X149345692Y-89996292D01*
X149414141Y-90098732D01*
X149414144Y-90098736D01*
X149501263Y-90185855D01*
X149501267Y-90185858D01*
X149603707Y-90254307D01*
X149603719Y-90254314D01*
X149643606Y-90270835D01*
X149683835Y-90297715D01*
X150052382Y-90666262D01*
X150050595Y-90668048D01*
X150084334Y-90714259D01*
X150088484Y-90784006D01*
X150054268Y-90844924D01*
X149992549Y-90877673D01*
X149987040Y-90878673D01*
X149842302Y-90901597D01*
X149677552Y-90955128D01*
X149523211Y-91033768D01*
X149383073Y-91135585D01*
X149275166Y-91243492D01*
X149213843Y-91276976D01*
X149144151Y-91271992D01*
X149088218Y-91230120D01*
X149081946Y-91220906D01*
X149042317Y-91156656D01*
X148918345Y-91032684D01*
X148769124Y-90940643D01*
X148769119Y-90940641D01*
X148602697Y-90885494D01*
X148602690Y-90885493D01*
X148499986Y-90875000D01*
X148350000Y-90875000D01*
X148350000Y-91969670D01*
X148330255Y-91949925D01*
X148244745Y-91900556D01*
X148149370Y-91875000D01*
X148050630Y-91875000D01*
X147955255Y-91900556D01*
X147869745Y-91949925D01*
X147850000Y-91969670D01*
X147850000Y-90875000D01*
X147700027Y-90875000D01*
X147700012Y-90875001D01*
X147597302Y-90885494D01*
X147430880Y-90940641D01*
X147430875Y-90940643D01*
X147281654Y-91032684D01*
X147157684Y-91156654D01*
X147065643Y-91305875D01*
X147065641Y-91305880D01*
X147010494Y-91472302D01*
X147010493Y-91472309D01*
X147000000Y-91575013D01*
X147000000Y-92000000D01*
X147819670Y-92000000D01*
X147799925Y-92019745D01*
X147750556Y-92105255D01*
X147725000Y-92200630D01*
X147725000Y-92299370D01*
X147750556Y-92394745D01*
X147799925Y-92480255D01*
X147819670Y-92500000D01*
X147000000Y-92500000D01*
X147000000Y-92586759D01*
X146980315Y-92653798D01*
X146927511Y-92699553D01*
X146858352Y-92709496D01*
X146794797Y-92680470D01*
X146788319Y-92674439D01*
X145961819Y-91847939D01*
X145947115Y-91821011D01*
X145930523Y-91795193D01*
X145929631Y-91788992D01*
X145928334Y-91786616D01*
X145925500Y-91760258D01*
X145925500Y-90064812D01*
X145945185Y-89997773D01*
X145997989Y-89952018D01*
X146067147Y-89942074D01*
X146130703Y-89971099D01*
X146137181Y-89977131D01*
X146165122Y-90005072D01*
X146310604Y-90093019D01*
X146310603Y-90093019D01*
X146472894Y-90143590D01*
X146472893Y-90143590D01*
X146543427Y-90149999D01*
X147149999Y-90149999D01*
X147150000Y-90149998D01*
X147150000Y-88350000D01*
X146543417Y-88350000D01*
X146472897Y-88356408D01*
X146472892Y-88356409D01*
X146310603Y-88406981D01*
X146165122Y-88494927D01*
X146165121Y-88494928D01*
X146137181Y-88522869D01*
X146075858Y-88556354D01*
X146006166Y-88551370D01*
X145950233Y-88509498D01*
X145925816Y-88444034D01*
X145925500Y-88435188D01*
X145925500Y-85865520D01*
X145945185Y-85798481D01*
X145997989Y-85752726D01*
X146067147Y-85742782D01*
X146130703Y-85771807D01*
G37*
G04 #@! TD.AperFunction*
G04 #@! TA.AperFunction,Conductor*
G36*
X159793334Y-89130626D02*
G01*
X159837681Y-89159127D01*
X160263181Y-89584627D01*
X160296666Y-89645950D01*
X160299500Y-89672308D01*
X160299500Y-89738088D01*
X160309267Y-89787190D01*
X160279837Y-89775000D01*
X160220163Y-89775000D01*
X160165032Y-89797836D01*
X160122836Y-89840032D01*
X160100000Y-89895163D01*
X160100000Y-89954837D01*
X160122836Y-90009968D01*
X160165032Y-90052164D01*
X160220163Y-90075000D01*
X160279837Y-90075000D01*
X160334968Y-90052164D01*
X160377164Y-90009968D01*
X160383413Y-89994880D01*
X160442487Y-90083290D01*
X160442493Y-90083298D01*
X160531701Y-90172506D01*
X160531709Y-90172512D01*
X160636607Y-90242603D01*
X160636611Y-90242605D01*
X160727553Y-90280274D01*
X160753173Y-90290886D01*
X160753177Y-90290886D01*
X160753178Y-90290887D01*
X160815997Y-90303383D01*
X160877908Y-90335768D01*
X160912482Y-90396484D01*
X160908742Y-90466253D01*
X160867875Y-90522925D01*
X160815997Y-90546617D01*
X160753178Y-90559112D01*
X160753168Y-90559115D01*
X160636611Y-90607394D01*
X160636607Y-90607396D01*
X160531709Y-90677487D01*
X160531701Y-90677493D01*
X160442493Y-90766701D01*
X160442487Y-90766709D01*
X160372396Y-90871607D01*
X160372394Y-90871611D01*
X160324115Y-90988168D01*
X160324112Y-90988180D01*
X160299500Y-91111911D01*
X160299500Y-91238088D01*
X160309267Y-91287190D01*
X160279837Y-91275000D01*
X160220163Y-91275000D01*
X160165032Y-91297836D01*
X160122836Y-91340032D01*
X160100000Y-91395163D01*
X160100000Y-91454837D01*
X160122836Y-91509968D01*
X160165032Y-91552164D01*
X160220163Y-91575000D01*
X160279837Y-91575000D01*
X160309267Y-91562809D01*
X160299500Y-91611912D01*
X160299500Y-91677691D01*
X160279815Y-91744730D01*
X160263181Y-91765372D01*
X159837681Y-92190872D01*
X159776358Y-92224357D01*
X159706666Y-92219373D01*
X159662319Y-92190872D01*
X159236819Y-91765372D01*
X159222795Y-91739689D01*
X159206388Y-91715449D01*
X159205120Y-91707320D01*
X159203334Y-91704049D01*
X159200535Y-91680643D01*
X159200500Y-91679173D01*
X159200500Y-91611916D01*
X159190732Y-91562809D01*
X159220163Y-91575000D01*
X159279837Y-91575000D01*
X159316050Y-91560000D01*
X159738555Y-91560000D01*
X159750000Y-91571445D01*
X159761445Y-91560000D01*
X159738555Y-91560000D01*
X159316050Y-91560000D01*
X159334968Y-91552164D01*
X159377164Y-91509968D01*
X159400000Y-91454837D01*
X159400000Y-91395163D01*
X159377164Y-91340032D01*
X159334968Y-91297836D01*
X159279837Y-91275000D01*
X159220163Y-91275000D01*
X159165032Y-91297836D01*
X159122836Y-91340032D01*
X159116586Y-91355119D01*
X159057512Y-91266709D01*
X159057513Y-91266709D01*
X159057509Y-91266705D01*
X159053488Y-91262684D01*
X159020001Y-91201365D01*
X159024982Y-91131673D01*
X159053488Y-91087315D01*
X159057509Y-91083295D01*
X159121063Y-90988180D01*
X159127603Y-90978392D01*
X159127605Y-90978388D01*
X159148030Y-90929078D01*
X159175886Y-90861827D01*
X159200500Y-90738084D01*
X159200500Y-90611916D01*
X159200500Y-90611913D01*
X159193864Y-90578554D01*
X159550000Y-90578554D01*
X159550000Y-90771446D01*
X159604864Y-90716581D01*
X159622836Y-90759968D01*
X159665032Y-90802164D01*
X159720163Y-90825000D01*
X159779837Y-90825000D01*
X159834968Y-90802164D01*
X159877164Y-90759968D01*
X159900000Y-90704837D01*
X159900000Y-90645163D01*
X159877164Y-90590032D01*
X159834968Y-90547836D01*
X159779837Y-90525000D01*
X159720163Y-90525000D01*
X159665032Y-90547836D01*
X159622836Y-90590032D01*
X159604864Y-90633418D01*
X159550000Y-90578554D01*
X159193864Y-90578554D01*
X159183136Y-90524622D01*
X159175886Y-90488173D01*
X159166555Y-90465647D01*
X159164563Y-90458561D01*
X159164884Y-90430691D01*
X159161905Y-90402987D01*
X159165338Y-90391293D01*
X159165368Y-90388696D01*
X159166689Y-90386690D01*
X159169373Y-90377548D01*
X159175886Y-90361827D01*
X159200500Y-90238084D01*
X159200500Y-90111916D01*
X159190732Y-90062809D01*
X159220163Y-90075000D01*
X159279837Y-90075000D01*
X159334968Y-90052164D01*
X159377164Y-90009968D01*
X159400000Y-89954837D01*
X159400000Y-89895163D01*
X159377164Y-89840032D01*
X159334968Y-89797836D01*
X159316050Y-89790000D01*
X159738554Y-89790000D01*
X159761445Y-89790000D01*
X159750000Y-89778553D01*
X159738554Y-89790000D01*
X159316050Y-89790000D01*
X159279837Y-89775000D01*
X159220163Y-89775000D01*
X159190732Y-89787190D01*
X159200500Y-89738084D01*
X159200500Y-89672308D01*
X159220185Y-89605269D01*
X159236819Y-89584627D01*
X159662319Y-89159127D01*
X159723642Y-89125642D01*
X159793334Y-89130626D01*
G37*
G04 #@! TD.AperFunction*
G04 #@! TA.AperFunction,Conductor*
G36*
X152228190Y-87142516D02*
G01*
X152234668Y-87148548D01*
X153235379Y-88149259D01*
X153268864Y-88210582D01*
X153263880Y-88280274D01*
X153250000Y-88301871D01*
X153250000Y-90109999D01*
X153650500Y-90109999D01*
X153659185Y-90112549D01*
X153668147Y-90111261D01*
X153692187Y-90122239D01*
X153717539Y-90129684D01*
X153723466Y-90136524D01*
X153731703Y-90140286D01*
X153745992Y-90162520D01*
X153763294Y-90182488D01*
X153765581Y-90193002D01*
X153769477Y-90199064D01*
X153774500Y-90233999D01*
X153774500Y-90360258D01*
X153754815Y-90427297D01*
X153738181Y-90447939D01*
X153639487Y-90546632D01*
X153639485Y-90546635D01*
X153563719Y-90677863D01*
X153524500Y-90824234D01*
X153523439Y-90832294D01*
X153519934Y-90831832D01*
X153504815Y-90883323D01*
X153452011Y-90929078D01*
X153382853Y-90939022D01*
X153319297Y-90909997D01*
X153312819Y-90903965D01*
X152722107Y-90313253D01*
X152688622Y-90251930D01*
X152693606Y-90182238D01*
X152722107Y-90137890D01*
X152750000Y-90109997D01*
X152750000Y-88310000D01*
X152146987Y-88310000D01*
X152079948Y-88290315D01*
X152034193Y-88237511D01*
X152022987Y-88186000D01*
X152022987Y-87236229D01*
X152042672Y-87169190D01*
X152095476Y-87123435D01*
X152164634Y-87113491D01*
X152228190Y-87142516D01*
G37*
G04 #@! TD.AperFunction*
G04 #@! TA.AperFunction,Conductor*
G36*
X155205449Y-88397895D02*
G01*
X155231449Y-88401558D01*
X155238443Y-88407583D01*
X155247299Y-88410184D01*
X155264490Y-88430024D01*
X155284383Y-88447162D01*
X155287009Y-88456011D01*
X155293054Y-88462988D01*
X155296790Y-88488975D01*
X155304259Y-88514144D01*
X155302354Y-88527669D01*
X155302998Y-88532146D01*
X155299337Y-88549094D01*
X155252854Y-88709089D01*
X155251209Y-88729999D01*
X155251210Y-88730000D01*
X155906000Y-88730000D01*
X155973039Y-88749685D01*
X156018794Y-88802489D01*
X156030000Y-88854000D01*
X156030000Y-88980000D01*
X156085500Y-88980000D01*
X156152539Y-88999685D01*
X156198294Y-89052489D01*
X156209500Y-89104000D01*
X156209500Y-89214697D01*
X156212356Y-89250991D01*
X156212357Y-89250997D01*
X156257503Y-89406389D01*
X156257505Y-89406393D01*
X156257506Y-89406395D01*
X156262732Y-89415233D01*
X156267082Y-89431132D01*
X156274977Y-89443417D01*
X156280000Y-89478352D01*
X156280000Y-89591645D01*
X156262734Y-89654763D01*
X156257507Y-89663600D01*
X156257504Y-89663608D01*
X156212357Y-89819002D01*
X156212356Y-89819008D01*
X156209500Y-89855302D01*
X156209500Y-89966000D01*
X156189815Y-90033039D01*
X156137011Y-90078794D01*
X156126587Y-90082995D01*
X155961883Y-90140836D01*
X155957290Y-90141075D01*
X155952890Y-90143616D01*
X155877865Y-90163719D01*
X155877864Y-90163719D01*
X155877862Y-90163720D01*
X155746635Y-90239485D01*
X155746632Y-90239487D01*
X155682439Y-90303681D01*
X155621116Y-90337166D01*
X155594758Y-90340000D01*
X155251210Y-90340000D01*
X155252854Y-90360910D01*
X155297968Y-90516195D01*
X155297969Y-90516197D01*
X155312909Y-90541460D01*
X155318972Y-90565360D01*
X155329045Y-90587865D01*
X155327413Y-90598628D01*
X155330092Y-90609184D01*
X155322270Y-90632571D01*
X155318577Y-90656946D01*
X155310039Y-90669144D01*
X155307932Y-90675446D01*
X155299271Y-90686491D01*
X155296648Y-90689471D01*
X155289485Y-90696635D01*
X155287842Y-90699479D01*
X155280864Y-90707411D01*
X155254710Y-90723940D01*
X155229714Y-90742191D01*
X155224355Y-90743124D01*
X155221801Y-90744739D01*
X155215371Y-90744690D01*
X155187770Y-90749500D01*
X155049500Y-90749500D01*
X154982461Y-90729815D01*
X154936706Y-90677011D01*
X154925500Y-90625500D01*
X154925500Y-89839999D01*
X155251209Y-89839999D01*
X155251210Y-89840000D01*
X155780000Y-89840000D01*
X155780000Y-89230000D01*
X155251210Y-89230000D01*
X155252854Y-89250910D01*
X155297968Y-89406195D01*
X155297970Y-89406199D01*
X155336813Y-89471880D01*
X155353996Y-89539604D01*
X155336813Y-89598120D01*
X155297970Y-89663800D01*
X155297966Y-89663809D01*
X155252855Y-89819081D01*
X155252854Y-89819087D01*
X155251209Y-89839999D01*
X154925500Y-89839999D01*
X154925500Y-88514499D01*
X154945185Y-88447460D01*
X154997989Y-88401705D01*
X155049496Y-88390499D01*
X155180261Y-88390499D01*
X155205449Y-88397895D01*
G37*
G04 #@! TD.AperFunction*
G04 #@! TA.AperFunction,Conductor*
G36*
X150766083Y-86742402D02*
G01*
X150793385Y-86744845D01*
X150799725Y-86749770D01*
X150807568Y-86751488D01*
X150826919Y-86770894D01*
X150848563Y-86787707D01*
X150851234Y-86795277D01*
X150856903Y-86800963D01*
X150862690Y-86827751D01*
X150871809Y-86853597D01*
X150871987Y-86860236D01*
X150871987Y-89500500D01*
X150852302Y-89567539D01*
X150799498Y-89613294D01*
X150747987Y-89624500D01*
X150689742Y-89624500D01*
X150622703Y-89604815D01*
X150602061Y-89588181D01*
X150497715Y-89483835D01*
X150470835Y-89443606D01*
X150454314Y-89403719D01*
X150454307Y-89403707D01*
X150385858Y-89301267D01*
X150385855Y-89301263D01*
X150347824Y-89263232D01*
X150314339Y-89201909D01*
X150319323Y-89132217D01*
X150328774Y-89112428D01*
X150362031Y-89056194D01*
X150404504Y-88910000D01*
X149724000Y-88910000D01*
X149715314Y-88907449D01*
X149706353Y-88908738D01*
X149682312Y-88897759D01*
X149656961Y-88890315D01*
X149651033Y-88883474D01*
X149642797Y-88879713D01*
X149628507Y-88857478D01*
X149611206Y-88837511D01*
X149608918Y-88826996D01*
X149605023Y-88820935D01*
X149600000Y-88786000D01*
X149600000Y-88604500D01*
X149619685Y-88537461D01*
X149672489Y-88491706D01*
X149724000Y-88480500D01*
X149834682Y-88480500D01*
X149834690Y-88480500D01*
X149870993Y-88477643D01*
X149870995Y-88477642D01*
X149870997Y-88477642D01*
X150026389Y-88432496D01*
X150026389Y-88432495D01*
X150026395Y-88432494D01*
X150035233Y-88427267D01*
X150098352Y-88410000D01*
X150404504Y-88410000D01*
X150362031Y-88263803D01*
X150350090Y-88243613D01*
X150332906Y-88175889D01*
X150350089Y-88117369D01*
X150362494Y-88096395D01*
X150407643Y-87940993D01*
X150410500Y-87904690D01*
X150410500Y-87495310D01*
X150407643Y-87459007D01*
X150407642Y-87459002D01*
X150360580Y-87297015D01*
X150360779Y-87227146D01*
X150370852Y-87204053D01*
X150372866Y-87199397D01*
X150372869Y-87199393D01*
X150417665Y-87045204D01*
X150420500Y-87009181D01*
X150420499Y-86874499D01*
X150421811Y-86870030D01*
X150420828Y-86865479D01*
X150431561Y-86836825D01*
X150440183Y-86807461D01*
X150443703Y-86804410D01*
X150445337Y-86800049D01*
X150469861Y-86781744D01*
X150492987Y-86761706D01*
X150498634Y-86760268D01*
X150501330Y-86758257D01*
X150519059Y-86755071D01*
X150535828Y-86750804D01*
X150540165Y-86750500D01*
X150664069Y-86750500D01*
X150731491Y-86737088D01*
X150739316Y-86736540D01*
X150766083Y-86742402D01*
G37*
G04 #@! TD.AperFunction*
G04 #@! TA.AperFunction,Conductor*
G36*
X160177151Y-78465093D02*
G01*
X160217680Y-78522007D01*
X160224500Y-78562564D01*
X160224500Y-79756528D01*
X160224499Y-79756546D01*
X160224499Y-79922252D01*
X160224498Y-79922252D01*
X160239456Y-79978075D01*
X160265423Y-80074983D01*
X160281810Y-80103365D01*
X160309081Y-80150600D01*
X160344479Y-80211913D01*
X160463349Y-80330783D01*
X160463354Y-80330787D01*
X162538086Y-82405520D01*
X162538088Y-82405521D01*
X162538092Y-82405524D01*
X162611643Y-82447988D01*
X162675018Y-82484577D01*
X162827745Y-82525501D01*
X162827747Y-82525501D01*
X162993456Y-82525501D01*
X162993472Y-82525500D01*
X164256000Y-82525500D01*
X164323039Y-82545185D01*
X164368794Y-82597989D01*
X164380000Y-82649500D01*
X164380000Y-82826027D01*
X164370000Y-82860082D01*
X164370000Y-83201645D01*
X164352734Y-83264763D01*
X164347507Y-83273600D01*
X164347504Y-83273608D01*
X164302357Y-83429002D01*
X164302356Y-83429008D01*
X164299500Y-83465302D01*
X164299500Y-83934697D01*
X164302356Y-83970991D01*
X164302357Y-83970994D01*
X164324576Y-84047469D01*
X164329500Y-84082065D01*
X164329500Y-84341418D01*
X164329500Y-84341420D01*
X164329499Y-84341420D01*
X164341159Y-84400033D01*
X164341170Y-84408168D01*
X164343017Y-84412823D01*
X164341203Y-84431783D01*
X164341227Y-84448071D01*
X164340159Y-84453517D01*
X164327402Y-84497431D01*
X164324615Y-84532836D01*
X164323242Y-84539846D01*
X164310294Y-84564769D01*
X164300291Y-84591017D01*
X164294404Y-84595358D01*
X164291033Y-84601849D01*
X164284280Y-84605719D01*
X164236319Y-84653681D01*
X164174996Y-84687166D01*
X164148638Y-84690000D01*
X164000000Y-84690000D01*
X164000000Y-84815500D01*
X163997514Y-84823966D01*
X163998802Y-84832697D01*
X163987820Y-84856977D01*
X163980315Y-84882539D01*
X163973647Y-84888316D01*
X163970010Y-84896359D01*
X163947643Y-84910848D01*
X163927511Y-84928294D01*
X163917234Y-84930549D01*
X163911371Y-84934348D01*
X163877337Y-84939305D01*
X163876455Y-84939499D01*
X163875977Y-84939500D01*
X163750820Y-84939501D01*
X163744706Y-84939981D01*
X163740062Y-84939999D01*
X163740010Y-84939984D01*
X163739607Y-84940000D01*
X163187156Y-84940000D01*
X163227594Y-85079193D01*
X163261419Y-85136388D01*
X163262677Y-85141349D01*
X163266127Y-85145130D01*
X163271181Y-85174868D01*
X163278601Y-85204112D01*
X163277209Y-85210333D01*
X163277835Y-85214012D01*
X163273548Y-85226707D01*
X163268760Y-85248119D01*
X163265562Y-85255623D01*
X163227131Y-85320607D01*
X163204123Y-85399799D01*
X163201197Y-85406667D01*
X163183547Y-85428120D01*
X163168592Y-85451538D01*
X163161656Y-85454729D01*
X163156807Y-85460624D01*
X163130358Y-85469129D01*
X163105119Y-85480743D01*
X163097559Y-85479678D01*
X163090293Y-85482015D01*
X163063443Y-85474871D01*
X163035933Y-85470996D01*
X163025127Y-85465446D01*
X163022137Y-85463719D01*
X162924555Y-85437573D01*
X162875766Y-85424500D01*
X162875765Y-85424500D01*
X162769797Y-85424500D01*
X162765863Y-85423835D01*
X162763726Y-85424351D01*
X162747974Y-85420814D01*
X162729079Y-85417624D01*
X162725674Y-85416440D01*
X162682452Y-85398537D01*
X162663109Y-85394689D01*
X162654996Y-85391869D01*
X162633265Y-85376349D01*
X162609608Y-85363973D01*
X162605271Y-85356356D01*
X162598138Y-85351262D01*
X162588248Y-85326460D01*
X162575036Y-85303256D01*
X162575505Y-85294502D01*
X162572259Y-85286361D01*
X162577348Y-85260149D01*
X162578779Y-85233487D01*
X162584194Y-85224893D01*
X162585577Y-85217773D01*
X162594682Y-85208249D01*
X162608034Y-85187062D01*
X162629718Y-85165378D01*
X162629721Y-85165374D01*
X162712031Y-85026195D01*
X162712033Y-85026190D01*
X162757144Y-84870918D01*
X162757145Y-84870912D01*
X162758790Y-84850000D01*
X162230000Y-84850000D01*
X162230000Y-85361845D01*
X162210315Y-85428884D01*
X162174891Y-85464947D01*
X162101267Y-85514141D01*
X162101263Y-85514144D01*
X162014144Y-85601263D01*
X162014141Y-85601267D01*
X161945692Y-85703707D01*
X161945687Y-85703716D01*
X161898538Y-85817545D01*
X161898535Y-85817555D01*
X161874500Y-85938389D01*
X161874500Y-86060701D01*
X161854815Y-86127740D01*
X161802011Y-86173495D01*
X161798658Y-86173977D01*
X161770000Y-86195494D01*
X161770000Y-86501645D01*
X161752734Y-86564763D01*
X161747509Y-86573598D01*
X161747504Y-86573608D01*
X161702357Y-86729002D01*
X161702356Y-86729008D01*
X161699500Y-86765302D01*
X161699500Y-87234697D01*
X161702356Y-87270991D01*
X161702357Y-87270997D01*
X161747503Y-87426389D01*
X161747505Y-87426393D01*
X161747506Y-87426395D01*
X161752732Y-87435233D01*
X161770000Y-87498352D01*
X161770000Y-87804503D01*
X161916194Y-87762032D01*
X161936384Y-87750091D01*
X162004108Y-87732906D01*
X162062629Y-87750089D01*
X162083605Y-87762494D01*
X162124587Y-87774400D01*
X162239002Y-87807642D01*
X162239005Y-87807642D01*
X162239007Y-87807643D01*
X162275310Y-87810500D01*
X162275318Y-87810500D01*
X162625500Y-87810500D01*
X162692539Y-87830185D01*
X162738294Y-87882989D01*
X162749500Y-87934500D01*
X162749500Y-88536345D01*
X162739302Y-88585591D01*
X162737129Y-88590612D01*
X162692335Y-88744791D01*
X162692334Y-88744797D01*
X162689500Y-88780811D01*
X162689500Y-88825500D01*
X162686949Y-88834185D01*
X162688238Y-88843147D01*
X162677259Y-88867187D01*
X162669815Y-88892539D01*
X162662974Y-88898466D01*
X162659213Y-88906703D01*
X162636978Y-88920992D01*
X162617011Y-88938294D01*
X162606496Y-88940581D01*
X162600435Y-88944477D01*
X162565500Y-88949500D01*
X162339862Y-88949500D01*
X162272823Y-88929815D01*
X162227068Y-88877011D01*
X162217124Y-88807853D01*
X162246149Y-88744297D01*
X162252181Y-88737819D01*
X162260000Y-88730000D01*
X162260000Y-88210068D01*
X162259999Y-88210068D01*
X162224869Y-88212834D01*
X162224868Y-88212834D01*
X162070811Y-88257592D01*
X162070808Y-88257593D01*
X161932714Y-88339261D01*
X161932705Y-88339268D01*
X161819268Y-88452705D01*
X161819261Y-88452714D01*
X161737595Y-88590805D01*
X161697156Y-88730000D01*
X161876545Y-88730000D01*
X161887000Y-88733069D01*
X161897828Y-88731840D01*
X161919937Y-88742741D01*
X161943584Y-88749685D01*
X161950718Y-88757919D01*
X161960494Y-88762739D01*
X161973200Y-88783863D01*
X161989339Y-88802489D01*
X161990889Y-88813273D01*
X161996507Y-88822613D01*
X161995775Y-88847249D01*
X161999283Y-88871647D01*
X161994755Y-88881560D01*
X161994432Y-88892452D01*
X161980497Y-88912781D01*
X161970258Y-88935203D01*
X161960053Y-88942608D01*
X161954930Y-88950083D01*
X161937363Y-88959073D01*
X161924685Y-88968274D01*
X161916851Y-88971573D01*
X161852865Y-88988719D01*
X161790007Y-89025009D01*
X161782858Y-89028021D01*
X161755533Y-89031124D01*
X161728816Y-89037606D01*
X161721486Y-89037038D01*
X161697873Y-89034500D01*
X161573085Y-89034500D01*
X161573084Y-89034500D01*
X160876916Y-89034500D01*
X160876915Y-89034500D01*
X160870853Y-89035097D01*
X160870731Y-89033863D01*
X160860234Y-89033017D01*
X160844381Y-89036466D01*
X160809894Y-89028963D01*
X160720666Y-88995682D01*
X160664732Y-88953811D01*
X160640316Y-88888346D01*
X160640000Y-88879501D01*
X160640000Y-88727172D01*
X160639999Y-88727155D01*
X160633598Y-88667627D01*
X160633596Y-88667620D01*
X160583354Y-88532913D01*
X160583350Y-88532906D01*
X160497190Y-88417812D01*
X160497187Y-88417809D01*
X160382093Y-88331649D01*
X160382086Y-88331645D01*
X160247379Y-88281403D01*
X160247372Y-88281401D01*
X160187844Y-88275000D01*
X160140000Y-88275000D01*
X160140000Y-89001000D01*
X160137449Y-89009685D01*
X160138738Y-89018647D01*
X160127759Y-89042687D01*
X160120315Y-89068039D01*
X160113474Y-89073966D01*
X160109713Y-89082203D01*
X160087478Y-89096492D01*
X160067511Y-89113794D01*
X160056996Y-89116081D01*
X160050935Y-89119977D01*
X160016000Y-89125000D01*
X159984000Y-89125000D01*
X159916961Y-89105315D01*
X159871206Y-89052511D01*
X159860000Y-89001000D01*
X159860000Y-88275000D01*
X159812172Y-88275000D01*
X159763255Y-88280259D01*
X159736745Y-88280259D01*
X159687828Y-88275000D01*
X159640000Y-88275000D01*
X159640000Y-89001000D01*
X159637449Y-89009685D01*
X159638738Y-89018647D01*
X159627759Y-89042687D01*
X159620315Y-89068039D01*
X159613474Y-89073966D01*
X159609713Y-89082203D01*
X159587478Y-89096492D01*
X159567511Y-89113794D01*
X159556996Y-89116081D01*
X159550935Y-89119977D01*
X159516000Y-89125000D01*
X159484000Y-89125000D01*
X159416961Y-89105315D01*
X159371206Y-89052511D01*
X159360000Y-89001000D01*
X159360000Y-88275000D01*
X159312155Y-88275000D01*
X159252627Y-88281401D01*
X159252620Y-88281403D01*
X159117913Y-88331645D01*
X159117906Y-88331649D01*
X159002812Y-88417809D01*
X159002809Y-88417812D01*
X158916649Y-88532906D01*
X158916645Y-88532913D01*
X158866403Y-88667620D01*
X158866401Y-88667627D01*
X158860000Y-88727155D01*
X158860000Y-88846758D01*
X158840315Y-88913797D01*
X158787511Y-88959552D01*
X158718353Y-88969496D01*
X158654797Y-88940471D01*
X158648319Y-88934439D01*
X158233367Y-88519487D01*
X158233365Y-88519485D01*
X158160891Y-88477642D01*
X158102136Y-88443719D01*
X158028950Y-88424109D01*
X157955766Y-88404500D01*
X157955765Y-88404500D01*
X157681666Y-88404500D01*
X157614627Y-88384815D01*
X157593989Y-88368185D01*
X157525687Y-88299883D01*
X157517775Y-88295204D01*
X157443095Y-88251038D01*
X157386395Y-88217506D01*
X157386394Y-88217505D01*
X157386393Y-88217505D01*
X157386390Y-88217504D01*
X157230997Y-88172357D01*
X157230991Y-88172356D01*
X157194697Y-88169500D01*
X157194690Y-88169500D01*
X156954079Y-88169500D01*
X156887040Y-88149815D01*
X156841285Y-88097011D01*
X156831341Y-88027853D01*
X156850976Y-87976610D01*
X156865081Y-87955499D01*
X156865084Y-87955495D01*
X156921658Y-87818913D01*
X156944476Y-87704204D01*
X156950500Y-87673920D01*
X156950500Y-87526079D01*
X156921659Y-87381092D01*
X156921658Y-87381091D01*
X156921658Y-87381087D01*
X156912705Y-87359472D01*
X156868663Y-87253145D01*
X156868647Y-87253107D01*
X156867360Y-87250000D01*
X160741210Y-87250000D01*
X160742854Y-87270910D01*
X160787968Y-87426195D01*
X160870278Y-87565374D01*
X160870285Y-87565383D01*
X160984616Y-87679714D01*
X160984625Y-87679721D01*
X161123804Y-87762031D01*
X161270000Y-87804504D01*
X161270000Y-87250000D01*
X160741210Y-87250000D01*
X156867360Y-87250000D01*
X156865084Y-87244505D01*
X156865081Y-87244500D01*
X156865080Y-87244498D01*
X156782951Y-87121584D01*
X156782948Y-87121580D01*
X156678419Y-87017051D01*
X156678415Y-87017048D01*
X156555501Y-86934919D01*
X156555488Y-86934912D01*
X156492695Y-86908903D01*
X156418917Y-86878343D01*
X156418907Y-86878340D01*
X156273920Y-86849500D01*
X156273918Y-86849500D01*
X156144500Y-86849500D01*
X156077461Y-86829815D01*
X156031706Y-86777011D01*
X156025830Y-86749999D01*
X160741209Y-86749999D01*
X160741210Y-86750000D01*
X161270000Y-86750000D01*
X161270000Y-86195494D01*
X161269998Y-86195493D01*
X161123809Y-86237965D01*
X161123806Y-86237967D01*
X160984625Y-86320278D01*
X160984616Y-86320285D01*
X160870285Y-86434616D01*
X160870278Y-86434625D01*
X160787968Y-86573804D01*
X160787966Y-86573809D01*
X160742855Y-86729081D01*
X160742854Y-86729087D01*
X160741209Y-86749999D01*
X156025830Y-86749999D01*
X156020500Y-86725500D01*
X156020499Y-86400830D01*
X156020498Y-86400808D01*
X156017665Y-86364796D01*
X155972869Y-86210607D01*
X155891135Y-86072402D01*
X155891133Y-86072400D01*
X155891130Y-86072396D01*
X155777603Y-85958869D01*
X155777594Y-85958862D01*
X155726202Y-85928469D01*
X155720848Y-85923754D01*
X155716825Y-85922336D01*
X155707404Y-85911913D01*
X155691420Y-85897836D01*
X155686193Y-85891111D01*
X155660515Y-85846635D01*
X155620584Y-85806704D01*
X155615838Y-85800598D01*
X155605757Y-85774999D01*
X155592575Y-85750857D01*
X155593139Y-85742956D01*
X155590238Y-85735587D01*
X155595596Y-85708607D01*
X155597559Y-85681165D01*
X155602306Y-85674823D01*
X155603849Y-85667056D01*
X155622944Y-85647255D01*
X155639431Y-85625232D01*
X155646852Y-85622464D01*
X155652350Y-85616763D01*
X155679119Y-85610429D01*
X155704895Y-85600815D01*
X155713728Y-85600499D01*
X155911090Y-85600499D01*
X155911098Y-85600499D01*
X155977882Y-85594431D01*
X155977885Y-85594430D01*
X155977887Y-85594430D01*
X156131602Y-85546531D01*
X156265852Y-85465373D01*
X156333404Y-85447538D01*
X156394147Y-85465373D01*
X156528398Y-85546531D01*
X156682113Y-85594430D01*
X156748909Y-85600500D01*
X157181090Y-85600499D01*
X157181098Y-85600499D01*
X157247882Y-85594431D01*
X157247885Y-85594430D01*
X157247887Y-85594430D01*
X157401602Y-85546531D01*
X157535852Y-85465373D01*
X157603404Y-85447538D01*
X157664147Y-85465373D01*
X157798398Y-85546531D01*
X157952113Y-85594430D01*
X158018909Y-85600500D01*
X158451090Y-85600499D01*
X158451098Y-85600499D01*
X158517882Y-85594431D01*
X158517885Y-85594430D01*
X158517887Y-85594430D01*
X158671602Y-85546531D01*
X158805852Y-85465373D01*
X158873404Y-85447538D01*
X158934147Y-85465373D01*
X159068398Y-85546531D01*
X159222113Y-85594430D01*
X159288909Y-85600500D01*
X159721090Y-85600499D01*
X159721098Y-85600499D01*
X159787882Y-85594431D01*
X159787885Y-85594430D01*
X159787887Y-85594430D01*
X159941602Y-85546531D01*
X160079388Y-85463236D01*
X160184074Y-85358549D01*
X160191039Y-85354746D01*
X160195683Y-85348307D01*
X160221264Y-85338241D01*
X160245395Y-85325065D01*
X160254971Y-85324979D01*
X160260701Y-85322725D01*
X160295937Y-85324612D01*
X160397241Y-85344763D01*
X160416468Y-85348587D01*
X160426081Y-85350500D01*
X160426082Y-85350500D01*
X160426083Y-85350500D01*
X160570210Y-85350500D01*
X160619461Y-85360701D01*
X160623602Y-85362492D01*
X160623605Y-85362494D01*
X160671294Y-85376349D01*
X160779002Y-85407642D01*
X160779005Y-85407642D01*
X160779007Y-85407643D01*
X160815310Y-85410500D01*
X160815318Y-85410500D01*
X161224682Y-85410500D01*
X161224690Y-85410500D01*
X161260993Y-85407643D01*
X161260995Y-85407642D01*
X161260997Y-85407642D01*
X161315287Y-85391869D01*
X161416395Y-85362494D01*
X161437369Y-85350089D01*
X161505088Y-85332906D01*
X161563613Y-85350090D01*
X161583803Y-85362031D01*
X161730000Y-85404504D01*
X161730000Y-85098352D01*
X161747267Y-85035233D01*
X161752494Y-85026395D01*
X161752678Y-85025764D01*
X161797642Y-84870997D01*
X161797643Y-84870991D01*
X161800033Y-84840620D01*
X161800500Y-84834690D01*
X161800500Y-84440000D01*
X163187156Y-84440000D01*
X163750000Y-84440000D01*
X163750000Y-83950000D01*
X163341210Y-83950000D01*
X163342855Y-83970915D01*
X163358011Y-84023083D01*
X163357811Y-84092952D01*
X163326619Y-84145354D01*
X163309269Y-84162705D01*
X163309260Y-84162716D01*
X163227595Y-84300805D01*
X163187156Y-84440000D01*
X161800500Y-84440000D01*
X161800500Y-84365310D01*
X161799295Y-84350000D01*
X162230000Y-84350000D01*
X162758790Y-84350000D01*
X162757145Y-84329089D01*
X162712032Y-84173805D01*
X162705715Y-84163125D01*
X162688530Y-84095402D01*
X162705715Y-84036875D01*
X162712031Y-84026195D01*
X162757145Y-83870910D01*
X162758790Y-83850000D01*
X162230000Y-83850000D01*
X162230000Y-84350000D01*
X161799295Y-84350000D01*
X161797643Y-84329007D01*
X161775423Y-84252528D01*
X161770500Y-84217934D01*
X161770500Y-83982065D01*
X161775424Y-83947469D01*
X161784698Y-83915549D01*
X161797643Y-83870993D01*
X161800500Y-83834690D01*
X161800500Y-83449999D01*
X163341209Y-83449999D01*
X163341210Y-83450000D01*
X163870000Y-83450000D01*
X163870000Y-82895494D01*
X163869998Y-82895493D01*
X163723809Y-82937965D01*
X163723806Y-82937967D01*
X163584625Y-83020278D01*
X163584616Y-83020285D01*
X163470285Y-83134616D01*
X163470278Y-83134625D01*
X163387968Y-83273804D01*
X163387966Y-83273809D01*
X163342855Y-83429081D01*
X163342854Y-83429087D01*
X163341209Y-83449999D01*
X161800500Y-83449999D01*
X161800500Y-83365310D01*
X161797643Y-83329007D01*
X161781606Y-83273809D01*
X161752495Y-83173608D01*
X161752492Y-83173600D01*
X161747266Y-83164763D01*
X161730000Y-83101645D01*
X161730000Y-82795494D01*
X162230000Y-82795494D01*
X162230000Y-83350000D01*
X162758790Y-83350000D01*
X162757145Y-83329089D01*
X162712031Y-83173804D01*
X162629721Y-83034625D01*
X162629714Y-83034616D01*
X162515383Y-82920285D01*
X162515374Y-82920278D01*
X162376193Y-82837967D01*
X162376190Y-82837965D01*
X162230001Y-82795493D01*
X162230000Y-82795494D01*
X161730000Y-82795494D01*
X161729998Y-82795493D01*
X161623987Y-82826293D01*
X161554118Y-82826094D01*
X161495448Y-82788152D01*
X161482002Y-82769211D01*
X161480515Y-82766635D01*
X161373365Y-82659485D01*
X161053365Y-82339485D01*
X160962580Y-82287070D01*
X160922136Y-82263719D01*
X160838682Y-82241358D01*
X160775766Y-82224500D01*
X160775765Y-82224500D01*
X159169797Y-82224500D01*
X159122344Y-82215061D01*
X159082454Y-82198538D01*
X159082455Y-82198538D01*
X159082452Y-82198537D01*
X159082448Y-82198536D01*
X159082444Y-82198535D01*
X158961610Y-82174500D01*
X158961606Y-82174500D01*
X158838394Y-82174500D01*
X158838389Y-82174500D01*
X158717556Y-82198535D01*
X158717552Y-82198536D01*
X158717548Y-82198537D01*
X158717544Y-82198538D01*
X158711722Y-82200305D01*
X158711189Y-82198549D01*
X158650255Y-82205085D01*
X158587784Y-82173794D01*
X158584622Y-82170742D01*
X157931405Y-81517525D01*
X157915984Y-81498734D01*
X157850861Y-81401271D01*
X157850855Y-81401263D01*
X157763736Y-81314144D01*
X157763732Y-81314141D01*
X157661292Y-81245692D01*
X157661282Y-81245687D01*
X157567007Y-81206637D01*
X157512604Y-81162796D01*
X157505512Y-81149807D01*
X157505345Y-81149904D01*
X157484243Y-81113355D01*
X157425515Y-81011635D01*
X157318365Y-80904485D01*
X157101061Y-80687181D01*
X157067576Y-80625858D01*
X157072560Y-80556166D01*
X157114432Y-80500233D01*
X157179896Y-80475816D01*
X157188742Y-80475500D01*
X157375764Y-80475500D01*
X157375766Y-80475500D01*
X157522135Y-80436281D01*
X157653365Y-80360515D01*
X157960515Y-80053365D01*
X158036281Y-79922135D01*
X158075500Y-79775766D01*
X158075500Y-79624233D01*
X158075500Y-79589742D01*
X158095185Y-79522703D01*
X158111819Y-79502061D01*
X158402061Y-79211819D01*
X158463384Y-79178334D01*
X158489742Y-79175500D01*
X159175764Y-79175500D01*
X159175766Y-79175500D01*
X159322135Y-79136281D01*
X159453365Y-79060515D01*
X159965514Y-78548366D01*
X159966514Y-78546635D01*
X159968883Y-78542533D01*
X159993113Y-78500564D01*
X160043680Y-78452349D01*
X160112287Y-78439125D01*
X160177151Y-78465093D01*
G37*
G04 #@! TD.AperFunction*
G04 #@! TA.AperFunction,Conductor*
G36*
X174886563Y-84502871D02*
G01*
X174902319Y-84516199D01*
X174961472Y-84575352D01*
X174994957Y-84636675D01*
X174989973Y-84706367D01*
X174948244Y-84762193D01*
X174915000Y-84787153D01*
X174915000Y-85339591D01*
X174914999Y-85340045D01*
X174914981Y-85344694D01*
X174914500Y-85350819D01*
X174914500Y-85476385D01*
X174914500Y-85476454D01*
X174904582Y-85509781D01*
X174894817Y-85543039D01*
X174894638Y-85543193D01*
X174894571Y-85543421D01*
X174868165Y-85566132D01*
X174842013Y-85588794D01*
X174841752Y-85588850D01*
X174841600Y-85588982D01*
X174840333Y-85589159D01*
X174790501Y-85600000D01*
X174665000Y-85600000D01*
X174665000Y-85726000D01*
X174645315Y-85793039D01*
X174592511Y-85838794D01*
X174541000Y-85850000D01*
X173804000Y-85850000D01*
X173736961Y-85830315D01*
X173691206Y-85777511D01*
X173680000Y-85726000D01*
X173680000Y-85474000D01*
X173699685Y-85406961D01*
X173752489Y-85361206D01*
X173804000Y-85350000D01*
X174415000Y-85350000D01*
X174415000Y-84778127D01*
X174388534Y-84742667D01*
X174383650Y-84672968D01*
X174417223Y-84611693D01*
X174478594Y-84578296D01*
X174504778Y-84575500D01*
X174537354Y-84575500D01*
X174537356Y-84575500D01*
X174683725Y-84536281D01*
X174752639Y-84496493D01*
X174820536Y-84480020D01*
X174886563Y-84502871D01*
G37*
G04 #@! TD.AperFunction*
G04 #@! TA.AperFunction,Conductor*
G36*
X151732514Y-78434501D02*
G01*
X151732674Y-78433905D01*
X151740524Y-78436008D01*
X151740526Y-78436008D01*
X151740528Y-78436009D01*
X151850599Y-78450500D01*
X152049400Y-78450499D01*
X152119623Y-78441254D01*
X152188654Y-78452019D01*
X152240910Y-78498399D01*
X152259796Y-78565668D01*
X152258744Y-78580377D01*
X152249500Y-78650596D01*
X152249500Y-78849403D01*
X152263989Y-78959468D01*
X152266094Y-78967322D01*
X152262814Y-78968200D01*
X152268581Y-79022073D01*
X152265517Y-79032522D01*
X152266095Y-79032677D01*
X152263990Y-79040529D01*
X152249500Y-79150598D01*
X152249500Y-79349403D01*
X152263989Y-79459468D01*
X152266094Y-79467322D01*
X152262814Y-79468200D01*
X152268581Y-79522073D01*
X152265517Y-79532522D01*
X152266095Y-79532677D01*
X152263990Y-79540529D01*
X152249500Y-79650598D01*
X152249500Y-79849403D01*
X152263989Y-79959468D01*
X152266094Y-79967322D01*
X152262814Y-79968200D01*
X152268581Y-80022073D01*
X152265517Y-80032522D01*
X152266095Y-80032677D01*
X152263990Y-80040529D01*
X152249500Y-80150598D01*
X152249500Y-80349403D01*
X152263989Y-80459468D01*
X152266094Y-80467322D01*
X152262814Y-80468200D01*
X152268581Y-80522073D01*
X152265517Y-80532522D01*
X152266095Y-80532677D01*
X152263990Y-80540529D01*
X152249500Y-80650598D01*
X152249500Y-80849403D01*
X152263989Y-80959468D01*
X152266094Y-80967322D01*
X152262814Y-80968200D01*
X152268581Y-81022073D01*
X152265517Y-81032522D01*
X152266095Y-81032677D01*
X152263990Y-81040529D01*
X152249500Y-81150598D01*
X152249500Y-81349403D01*
X152258744Y-81419622D01*
X152247977Y-81488657D01*
X152201596Y-81540912D01*
X152134327Y-81559796D01*
X152119620Y-81558744D01*
X152049402Y-81549500D01*
X151850596Y-81549500D01*
X151740531Y-81563989D01*
X151732678Y-81566094D01*
X151731802Y-81562824D01*
X151677853Y-81568567D01*
X151667477Y-81565518D01*
X151667323Y-81566095D01*
X151659470Y-81563990D01*
X151549401Y-81549500D01*
X151350596Y-81549500D01*
X151240531Y-81563989D01*
X151232678Y-81566094D01*
X151231802Y-81562824D01*
X151177853Y-81568567D01*
X151167477Y-81565518D01*
X151167323Y-81566095D01*
X151159470Y-81563990D01*
X151049401Y-81549500D01*
X150850596Y-81549500D01*
X150740531Y-81563989D01*
X150732678Y-81566094D01*
X150731802Y-81562824D01*
X150677853Y-81568567D01*
X150667477Y-81565518D01*
X150667323Y-81566095D01*
X150659470Y-81563990D01*
X150549401Y-81549500D01*
X150350596Y-81549500D01*
X150240531Y-81563989D01*
X150232678Y-81566094D01*
X150231802Y-81562824D01*
X150177853Y-81568567D01*
X150167477Y-81565518D01*
X150167323Y-81566095D01*
X150159470Y-81563990D01*
X150049401Y-81549500D01*
X149850596Y-81549500D01*
X149740531Y-81563989D01*
X149732678Y-81566094D01*
X149731802Y-81562824D01*
X149677853Y-81568567D01*
X149667477Y-81565518D01*
X149667323Y-81566095D01*
X149659470Y-81563990D01*
X149549401Y-81549500D01*
X149350604Y-81549500D01*
X149280377Y-81558745D01*
X149211341Y-81547977D01*
X149159087Y-81501596D01*
X149140203Y-81434327D01*
X149141255Y-81419622D01*
X149150500Y-81349401D01*
X149150499Y-81150600D01*
X149150407Y-81149904D01*
X149139270Y-81065302D01*
X149136009Y-81040528D01*
X149136008Y-81040525D01*
X149133905Y-81032674D01*
X149137207Y-81031789D01*
X149131392Y-80978075D01*
X149134501Y-80967485D01*
X149133905Y-80967326D01*
X149136008Y-80959475D01*
X149136008Y-80959474D01*
X149136009Y-80959472D01*
X149150500Y-80849401D01*
X149150499Y-80650600D01*
X149136009Y-80540528D01*
X149136008Y-80540525D01*
X149133905Y-80532674D01*
X149137207Y-80531789D01*
X149131392Y-80478075D01*
X149134501Y-80467485D01*
X149133905Y-80467326D01*
X149136008Y-80459475D01*
X149136008Y-80459474D01*
X149136009Y-80459472D01*
X149150500Y-80349401D01*
X149150499Y-80150600D01*
X149136009Y-80040528D01*
X149136008Y-80040525D01*
X149133905Y-80032674D01*
X149137207Y-80031789D01*
X149131392Y-79978075D01*
X149134501Y-79967485D01*
X149133905Y-79967326D01*
X149136008Y-79959475D01*
X149136008Y-79959474D01*
X149136009Y-79959472D01*
X149150500Y-79849401D01*
X149150499Y-79650600D01*
X149136009Y-79540528D01*
X149136008Y-79540525D01*
X149133905Y-79532674D01*
X149137207Y-79531789D01*
X149131392Y-79478075D01*
X149134501Y-79467485D01*
X149133905Y-79467326D01*
X149136008Y-79459475D01*
X149136008Y-79459474D01*
X149136009Y-79459472D01*
X149150500Y-79349401D01*
X149150499Y-79150600D01*
X149136009Y-79040528D01*
X149136008Y-79040525D01*
X149133905Y-79032674D01*
X149137207Y-79031789D01*
X149131392Y-78978075D01*
X149134501Y-78967485D01*
X149133905Y-78967326D01*
X149136008Y-78959475D01*
X149136008Y-78959474D01*
X149136009Y-78959472D01*
X149150500Y-78849401D01*
X149150499Y-78650600D01*
X149141254Y-78580375D01*
X149152019Y-78511344D01*
X149198399Y-78459088D01*
X149265668Y-78440203D01*
X149280371Y-78441254D01*
X149350599Y-78450500D01*
X149549400Y-78450499D01*
X149549401Y-78450499D01*
X149566087Y-78448302D01*
X149659472Y-78436009D01*
X149659475Y-78436007D01*
X149667326Y-78433905D01*
X149668210Y-78437207D01*
X149721925Y-78431392D01*
X149732514Y-78434501D01*
X149732674Y-78433905D01*
X149740524Y-78436008D01*
X149740526Y-78436008D01*
X149740528Y-78436009D01*
X149850599Y-78450500D01*
X150049400Y-78450499D01*
X150049401Y-78450499D01*
X150066087Y-78448302D01*
X150159472Y-78436009D01*
X150159475Y-78436007D01*
X150167326Y-78433905D01*
X150168210Y-78437207D01*
X150221925Y-78431392D01*
X150232514Y-78434501D01*
X150232674Y-78433905D01*
X150240524Y-78436008D01*
X150240526Y-78436008D01*
X150240528Y-78436009D01*
X150350599Y-78450500D01*
X150549400Y-78450499D01*
X150549401Y-78450499D01*
X150566087Y-78448302D01*
X150659472Y-78436009D01*
X150659475Y-78436007D01*
X150667326Y-78433905D01*
X150668210Y-78437207D01*
X150721925Y-78431392D01*
X150732514Y-78434501D01*
X150732674Y-78433905D01*
X150740524Y-78436008D01*
X150740526Y-78436008D01*
X150740528Y-78436009D01*
X150850599Y-78450500D01*
X151049400Y-78450499D01*
X151049401Y-78450499D01*
X151066087Y-78448302D01*
X151159472Y-78436009D01*
X151159475Y-78436007D01*
X151167326Y-78433905D01*
X151168210Y-78437207D01*
X151221925Y-78431392D01*
X151232514Y-78434501D01*
X151232674Y-78433905D01*
X151240524Y-78436008D01*
X151240526Y-78436008D01*
X151240528Y-78436009D01*
X151350599Y-78450500D01*
X151549400Y-78450499D01*
X151549401Y-78450499D01*
X151566087Y-78448302D01*
X151659472Y-78436009D01*
X151659475Y-78436007D01*
X151667326Y-78433905D01*
X151668210Y-78437207D01*
X151721925Y-78431392D01*
X151732514Y-78434501D01*
G37*
G04 #@! TD.AperFunction*
G04 #@! TA.AperFunction,Conductor*
G36*
X154767218Y-76204626D02*
G01*
X154781846Y-76203863D01*
X154800068Y-76214272D01*
X154820203Y-76220185D01*
X154829794Y-76231253D01*
X154842514Y-76238520D01*
X154852216Y-76257130D01*
X154865958Y-76272989D01*
X154868618Y-76288592D01*
X154874814Y-76300476D01*
X154876655Y-76335722D01*
X154870000Y-76408956D01*
X154870000Y-76862500D01*
X155571000Y-76862500D01*
X155638039Y-76882185D01*
X155683794Y-76934989D01*
X155695000Y-76986500D01*
X155695000Y-77238500D01*
X155675315Y-77305539D01*
X155622511Y-77351294D01*
X155571000Y-77362500D01*
X154870000Y-77362500D01*
X154870000Y-77443956D01*
X154850315Y-77510995D01*
X154797511Y-77556750D01*
X154793453Y-77558517D01*
X154703717Y-77595687D01*
X154703707Y-77595692D01*
X154601267Y-77664141D01*
X154601263Y-77664144D01*
X154516645Y-77748763D01*
X154455322Y-77782248D01*
X154385630Y-77777264D01*
X154366970Y-77768472D01*
X154312046Y-77736762D01*
X154272136Y-77713719D01*
X154192182Y-77692296D01*
X154125766Y-77674500D01*
X154125765Y-77674500D01*
X153744862Y-77674500D01*
X153697410Y-77665061D01*
X153634472Y-77638991D01*
X153634470Y-77638990D01*
X153524410Y-77624501D01*
X153524407Y-77624500D01*
X153524401Y-77624500D01*
X153524394Y-77624500D01*
X153199499Y-77624500D01*
X153132460Y-77604815D01*
X153086705Y-77552011D01*
X153075499Y-77500500D01*
X153075499Y-77175601D01*
X153073747Y-77162295D01*
X153074334Y-77158526D01*
X153073002Y-77154953D01*
X153079675Y-77124276D01*
X153084512Y-77093259D01*
X153087278Y-77089324D01*
X153087854Y-77086680D01*
X153109006Y-77058426D01*
X153255617Y-76911818D01*
X153316940Y-76878334D01*
X153343297Y-76875500D01*
X153456529Y-76875500D01*
X153456545Y-76875501D01*
X153464141Y-76875501D01*
X153622252Y-76875501D01*
X153622255Y-76875501D01*
X153774983Y-76834577D01*
X153864507Y-76782890D01*
X153911914Y-76755520D01*
X154023718Y-76643716D01*
X154023718Y-76643714D01*
X154033922Y-76633511D01*
X154033925Y-76633506D01*
X154430614Y-76236819D01*
X154491937Y-76203334D01*
X154518295Y-76200500D01*
X154753164Y-76200500D01*
X154767218Y-76204626D01*
G37*
G04 #@! TD.AperFunction*
G04 #@! TA.AperFunction,Conductor*
G36*
X148256516Y-71520185D02*
G01*
X148302271Y-71572989D01*
X148312215Y-71642147D01*
X148283190Y-71705703D01*
X148277158Y-71712181D01*
X148257684Y-71731654D01*
X148165643Y-71880875D01*
X148165641Y-71880880D01*
X148110494Y-72047302D01*
X148110493Y-72047309D01*
X148100000Y-72150013D01*
X148100000Y-72300000D01*
X149176000Y-72300000D01*
X149243039Y-72319685D01*
X149288794Y-72372489D01*
X149300000Y-72424000D01*
X149300000Y-72550000D01*
X149426000Y-72550000D01*
X149493039Y-72569685D01*
X149538794Y-72622489D01*
X149550000Y-72674000D01*
X149550000Y-74126000D01*
X149530315Y-74193039D01*
X149477511Y-74238794D01*
X149426000Y-74250000D01*
X149174000Y-74250000D01*
X149106961Y-74230315D01*
X149061206Y-74177511D01*
X149050000Y-74126000D01*
X149050000Y-72800000D01*
X148100001Y-72800000D01*
X148076366Y-72823635D01*
X148015042Y-72857119D01*
X147964495Y-72857571D01*
X147923918Y-72849500D01*
X147450906Y-72849500D01*
X147416311Y-72844576D01*
X147270997Y-72802357D01*
X147270991Y-72802356D01*
X147234697Y-72799500D01*
X147234690Y-72799500D01*
X146765310Y-72799500D01*
X146765302Y-72799500D01*
X146729008Y-72802356D01*
X146729002Y-72802357D01*
X146573608Y-72847504D01*
X146573600Y-72847507D01*
X146564767Y-72852732D01*
X146548865Y-72857082D01*
X146536581Y-72864977D01*
X146501646Y-72870000D01*
X146498354Y-72870000D01*
X146435233Y-72852732D01*
X146426399Y-72847507D01*
X146426391Y-72847504D01*
X146270997Y-72802357D01*
X146270991Y-72802356D01*
X146234697Y-72799500D01*
X146234690Y-72799500D01*
X145765310Y-72799500D01*
X145765302Y-72799500D01*
X145729008Y-72802356D01*
X145729002Y-72802357D01*
X145573610Y-72847503D01*
X145573605Y-72847506D01*
X145564766Y-72852732D01*
X145501648Y-72870000D01*
X145195496Y-72870000D01*
X145237968Y-73016194D01*
X145249911Y-73036389D01*
X145267092Y-73104113D01*
X145249911Y-73162628D01*
X145237506Y-73183604D01*
X145237504Y-73183609D01*
X145192357Y-73339002D01*
X145192356Y-73339008D01*
X145189500Y-73375302D01*
X145189500Y-73784697D01*
X145192356Y-73820991D01*
X145192357Y-73820997D01*
X145237504Y-73976390D01*
X145239301Y-73980543D01*
X145241213Y-73989777D01*
X145244477Y-73994856D01*
X145249500Y-74029791D01*
X145249500Y-74203646D01*
X145244576Y-74238241D01*
X145222336Y-74314789D01*
X145222334Y-74314802D01*
X145219500Y-74350811D01*
X145219500Y-74849169D01*
X145219501Y-74849191D01*
X145222334Y-74885202D01*
X145233011Y-74921951D01*
X145232810Y-74991820D01*
X145194868Y-75050489D01*
X145182825Y-75059646D01*
X145101267Y-75114141D01*
X145101263Y-75114144D01*
X145014144Y-75201263D01*
X145014141Y-75201267D01*
X144945692Y-75303707D01*
X144945687Y-75303716D01*
X144898538Y-75417545D01*
X144898535Y-75417555D01*
X144874500Y-75538389D01*
X144874500Y-75661610D01*
X144898535Y-75782444D01*
X144898538Y-75782454D01*
X144945687Y-75896283D01*
X144945692Y-75896292D01*
X145014141Y-75998732D01*
X145014144Y-75998736D01*
X145101263Y-76085855D01*
X145101267Y-76085858D01*
X145203707Y-76154307D01*
X145203713Y-76154310D01*
X145203714Y-76154311D01*
X145317548Y-76201463D01*
X145435579Y-76224940D01*
X145438389Y-76225499D01*
X145438393Y-76225500D01*
X145438394Y-76225500D01*
X145561607Y-76225500D01*
X145561608Y-76225499D01*
X145682452Y-76201463D01*
X145796286Y-76154311D01*
X145898733Y-76085858D01*
X145905584Y-76079007D01*
X145912819Y-76071773D01*
X145974142Y-76038288D01*
X146043834Y-76043272D01*
X146099767Y-76085144D01*
X146124184Y-76150608D01*
X146124500Y-76159454D01*
X146124500Y-76924234D01*
X146124500Y-77075766D01*
X146127424Y-77086680D01*
X146141840Y-77140479D01*
X146140796Y-77208336D01*
X146094731Y-77361264D01*
X146085217Y-77375841D01*
X146080315Y-77392539D01*
X146066522Y-77404489D01*
X146056547Y-77419777D01*
X146040663Y-77426897D01*
X146027511Y-77438294D01*
X146003670Y-77443480D01*
X145992790Y-77448358D01*
X145985976Y-77447329D01*
X145976000Y-77449500D01*
X145865302Y-77449500D01*
X145829008Y-77452356D01*
X145829002Y-77452357D01*
X145673608Y-77497504D01*
X145673600Y-77497507D01*
X145664767Y-77502732D01*
X145648865Y-77507082D01*
X145636581Y-77514977D01*
X145601646Y-77520000D01*
X145598354Y-77520000D01*
X145535233Y-77502732D01*
X145526399Y-77497507D01*
X145526391Y-77497504D01*
X145370997Y-77452357D01*
X145370991Y-77452356D01*
X145334697Y-77449500D01*
X145334690Y-77449500D01*
X144865310Y-77449500D01*
X144865302Y-77449500D01*
X144829008Y-77452356D01*
X144829002Y-77452357D01*
X144673610Y-77497503D01*
X144673605Y-77497506D01*
X144664766Y-77502732D01*
X144601648Y-77520000D01*
X144295495Y-77520000D01*
X144288399Y-77529449D01*
X144288296Y-77565775D01*
X144250354Y-77624445D01*
X144186715Y-77653288D01*
X144169419Y-77654500D01*
X143419287Y-77654500D01*
X143352248Y-77634815D01*
X143338084Y-77624213D01*
X143305166Y-77595689D01*
X143223294Y-77524746D01*
X143092416Y-77464976D01*
X143092413Y-77464975D01*
X143092408Y-77464973D01*
X143089050Y-77463987D01*
X143086110Y-77462097D01*
X143084349Y-77461293D01*
X143084464Y-77461039D01*
X143030277Y-77426205D01*
X143001260Y-77362646D01*
X143000000Y-77345014D01*
X143000000Y-77020000D01*
X144295496Y-77020000D01*
X144850000Y-77020000D01*
X144850000Y-76491210D01*
X144849999Y-76491209D01*
X145350000Y-76491209D01*
X145350000Y-77020000D01*
X145850000Y-77020000D01*
X145850000Y-76491210D01*
X145849999Y-76491209D01*
X145829087Y-76492854D01*
X145829081Y-76492855D01*
X145673809Y-76537966D01*
X145673803Y-76537968D01*
X145663118Y-76544288D01*
X145595393Y-76561468D01*
X145536882Y-76544288D01*
X145526196Y-76537968D01*
X145526190Y-76537966D01*
X145370918Y-76492855D01*
X145370912Y-76492854D01*
X145350000Y-76491209D01*
X144849999Y-76491209D01*
X144829087Y-76492854D01*
X144829081Y-76492855D01*
X144673809Y-76537966D01*
X144673804Y-76537968D01*
X144534625Y-76620278D01*
X144534616Y-76620285D01*
X144420285Y-76734616D01*
X144420278Y-76734625D01*
X144337968Y-76873804D01*
X144295496Y-77020000D01*
X143000000Y-77020000D01*
X143000000Y-75175570D01*
X143019685Y-75108531D01*
X143042796Y-75081858D01*
X143063724Y-75063724D01*
X143204281Y-74901513D01*
X143320322Y-74720950D01*
X143320325Y-74720942D01*
X143320328Y-74720938D01*
X143375786Y-74599500D01*
X143409485Y-74525710D01*
X143409841Y-74524500D01*
X143460839Y-74350811D01*
X143469954Y-74319769D01*
X143500500Y-74107318D01*
X143500500Y-74000000D01*
X143500500Y-73934108D01*
X143500500Y-72370000D01*
X145195496Y-72370000D01*
X145750000Y-72370000D01*
X145750000Y-71841210D01*
X145749999Y-71841209D01*
X146250000Y-71841209D01*
X146250000Y-72370000D01*
X146750000Y-72370000D01*
X147250000Y-72370000D01*
X147804504Y-72370000D01*
X147762031Y-72223804D01*
X147679721Y-72084625D01*
X147679714Y-72084616D01*
X147565383Y-71970285D01*
X147565374Y-71970278D01*
X147426195Y-71887968D01*
X147426190Y-71887966D01*
X147270918Y-71842855D01*
X147270912Y-71842854D01*
X147250000Y-71841209D01*
X147250000Y-72370000D01*
X146750000Y-72370000D01*
X146750000Y-71841210D01*
X146749999Y-71841209D01*
X146729087Y-71842854D01*
X146729081Y-71842855D01*
X146573809Y-71887966D01*
X146573803Y-71887968D01*
X146563118Y-71894288D01*
X146495393Y-71911468D01*
X146436882Y-71894288D01*
X146426196Y-71887968D01*
X146426190Y-71887966D01*
X146270918Y-71842855D01*
X146270912Y-71842854D01*
X146250000Y-71841209D01*
X145749999Y-71841209D01*
X145729087Y-71842854D01*
X145729081Y-71842855D01*
X145573809Y-71887966D01*
X145573804Y-71887968D01*
X145434625Y-71970278D01*
X145434616Y-71970285D01*
X145320285Y-72084616D01*
X145320278Y-72084625D01*
X145237968Y-72223804D01*
X145195496Y-72370000D01*
X143500500Y-72370000D01*
X143500500Y-72006959D01*
X143501280Y-71993077D01*
X143503849Y-71970278D01*
X143511459Y-71902729D01*
X143517635Y-71875668D01*
X143545353Y-71796457D01*
X143557393Y-71771453D01*
X143602046Y-71700389D01*
X143619351Y-71678690D01*
X143678690Y-71619351D01*
X143700389Y-71602046D01*
X143771453Y-71557393D01*
X143796457Y-71545353D01*
X143875668Y-71517635D01*
X143902729Y-71511459D01*
X143978753Y-71502893D01*
X143993078Y-71501280D01*
X144006960Y-71500500D01*
X144065892Y-71500500D01*
X148189477Y-71500500D01*
X148256516Y-71520185D01*
G37*
G04 #@! TD.AperFunction*
G04 #@! TD*
M02*
